SplineFontDB: 3.0
FontName: AnkaCoder-C87-b
FullName: Anka/Coder Condensed Bold
FamilyName: Anka/Coder Condensed
Weight: Bold
Copyright: Copyright (c) 2010, Andrey Makarov (makarov@bmstu.ru, mka-at-mailru@mail.ru),\nwith Reserved Font Name Anka/Coder Condensed.\n---------------------------------\nThe Anka/* are members of Anna Shugol name font family; March 2010
Version: 001.100
ItalicAngle: 0
UnderlinePosition: -292
UnderlineWidth: 150
Ascent: 1638
Descent: 410
LayerCount: 2
Layer: 0 0 "Back"  1
Layer: 1 0 "Fore"  0
XUID: [1021 77 1780377344 172786]
UseXUID: 1
BaseHoriz: 0
FSType: 8
OS2Version: 1
OS2_WeightWidthSlopeOnly: 0
OS2_UseTypoMetrics: 1
CreationTime: 1260467214
ModificationTime: 1351164431
PfmFamily: 49
TTFWeight: 700
TTFWidth: 4
LineGap: 0
VLineGap: 0
Panose: 2 11 8 9 2 5 2 2 2 4
OS2TypoAscent: 0
OS2TypoAOffset: 1
OS2TypoDescent: 0
OS2TypoDOffset: 1
OS2TypoLinegap: 0
OS2WinAscent: 0
OS2WinAOffset: 1
OS2WinDescent: 0
OS2WinDOffset: 1
HheadAscent: 0
HheadAOffset: 1
HheadDescent: 0
HheadDOffset: 1
OS2SubXSize: 553
OS2SubYSize: 1229
OS2SubXOff: 0
OS2SubYOff: 283
OS2SupXSize: 553
OS2SupYSize: 1229
OS2SupXOff: 0
OS2SupYOff: 977
OS2StrikeYSize: 102
OS2StrikeYPos: 530
OS2FamilyClass: 1285
OS2Vendor: 'AVM1'
OS2CodePages: 40000097.cfd60000
OS2UnicodeRanges: 800002ef.000079eb.00000000.00000000
DEI: 91125
ShortTable: maxp 16
  0
  0
  0
  0
  0
  0
  0
  2
  1
  0
  9
  0
  256
  0
  0
  0
EndShort
TtTable: prep
PUSHW_1
 511
SCANCTRL
SVTCA[y-axis]
MPPEM
PUSHB_1
 8
LT
IF
PUSHB_2
 1
 1
INSTCTRL
EIF
PUSHB_2
 70
 6
CALL
IF
POP
PUSHB_1
 16
EIF
MPPEM
PUSHB_1
 20
GT
IF
POP
PUSHB_1
 128
EIF
SCVTCI
PUSHB_1
 6
CALL
NOT
IF
EIF
EndTTInstrs
TtTable: fpgm
PUSHB_1
 0
FDEF
PUSHB_1
 0
SZP0
MPPEM
PUSHB_1
 42
LT
IF
PUSHB_1
 74
SROUND
EIF
PUSHB_1
 0
SWAP
MIAP[rnd]
RTG
PUSHB_1
 6
CALL
IF
RTDG
EIF
MPPEM
PUSHB_1
 42
LT
IF
RDTG
EIF
DUP
MDRP[rp0,rnd,grey]
PUSHB_1
 1
SZP0
MDAP[no-rnd]
RTG
ENDF
PUSHB_1
 1
FDEF
DUP
DUP
MDRP[rp0,min,white]
MDAP[rnd]
PUSHB_1
 7
CALL
NOT
IF
DUP
DUP
GC[orig]
SWAP

StartChar: exclam
Encoding: 33 33 1
Width: 1075
VWidth: 1708
GlyphClass: 2
Flags: W
HStem: -102 354<414.607 660.243> 434 984<434.373 641.163>
VStem: 351 373<-39.3516 187.342> 399 280<929.936 1379.58> 434 210<434 777.654>
LayerCount: 2
Fore
SplineSet
724 75 m 3xe0
 724 -28 636 -102 537 -102 c 3
 441 -102 351 -27 351 75 c 3
 351 168 432 252 537 252 c 3
 634 252 724 180 724 75 c 3xe0
533 1418 m 0
 607 1418 679 1370 679 1273 c 1xd0
 644 434 l 1
 434 434 l 1xc8
 399 1274 l 1xd0
 399 1370 467 1418 533 1418 c 0
EndSplineSet
Validated: 3073
EndChar

StartChar: quotedbl
Encoding: 34 34 2
Width: 1075
VWidth: 1708
GlyphClass: 2
Flags: W
HStem: 960 504<230.244 311.856 720.244 801.856>
LayerCount: 2
Fore
SplineSet
315 1010 m 2
 300 982 256 960 217 960 c 3
 152 960 118 1021 118 1066 c 3
 118 1073 120 1085 123 1091 c 2
 193 1362 l 2
 209 1415 271 1464 336 1464 c 3
 422 1464 466 1397 466 1325 c 3
 466 1302 461 1272 451 1255 c 2
 315 1010 l 2
805 1010 m 2
 790 982 746 960 707 960 c 3
 642 960 608 1021 608 1066 c 3
 608 1073 610 1085 613 1091 c 2
 683 1362 l 2
 699 1415 761 1464 826 1464 c 3
 912 1464 956 1397 956 1325 c 3
 956 1302 951 1272 941 1255 c 2
 805 1010 l 2
EndSplineSet
Validated: 3073
EndChar

StartChar: numbersign
Encoding: 35 35 3
Width: 1075
VWidth: 1708
GlyphClass: 2
Flags: W
HStem: 0 21G<113 329.023 541 757.023> 311 210<58 161 406 589 833 942> 838 210<141 242 487 670 914 1024>
LayerCount: 2
Fore
SplineSet
406 521 m 1
 621 521 l 1
 670 838 l 1
 455 838 l 1
 406 521 l 1
326 0 m 1
 113 0 l 1
 161 311 l 1
 26 311 l 1
 58 521 l 1
 193 521 l 1
 242 838 l 1
 108 838 l 1
 141 1048 l 1
 275 1048 l 1
 317 1320 l 1
 529 1320 l 1
 487 1048 l 1
 702 1048 l 1
 744 1320 l 1
 956 1320 l 1
 914 1048 l 1
 1057 1048 l 1
 1024 838 l 1
 882 838 l 1
 833 521 l 1
 974 521 l 1
 942 311 l 1
 801 311 l 1
 754 0 l 1
 541 0 l 1
 589 311 l 1
 373 311 l 1
 326 0 l 1
EndSplineSet
Validated: 3073
EndChar

StartChar: dollar
Encoding: 36 36 4
Width: 1075
VWidth: 2334
GlyphClass: 2
Flags: W
HStem: -16 216<342.842 433 643 712.992> 1203 215<643 730.579>
VStem: 61 210<268.149 357> 117 210<948.609 1160.73> 433 210<-93 -7.6069 200 585 907 1199 1410.04 1494> 779 210<265.042 509.204 1063 1155.37>
LayerCount: 2
Fore
SplineSet
643 585 m 1xcc
 643 198 l 1
 722 221 779 303 779 367 c 2
 779 397 l 2
 779 467 737 536 643 585 c 1xcc
327 1027 m 2xdc
 327 1011 340 948 433 907 c 1
 433 1199 l 1
 369 1176 327 1129 327 1063 c 2
 327 1027 l 2xdc
643 -93 m 1
 433 -93 l 1
 433 -16 l 1
 270 14 115 119 72 275 c 0
 63 307 62 312 61 357 c 1
 271 357 l 1xec
 282 254 393 212 433 200 c 1
 433 678 l 1
 333 722 l 2
 280 745 117 837 117 1033 c 2
 117 1063 l 2
 117 1247 249 1379 433 1415 c 1
 433 1494 l 1
 643 1494 l 1
 643 1418 l 1
 815 1391 984 1275 984 1063 c 1
 774 1063 l 1
 774 1147 709 1186 643 1203 c 1
 643 815 l 1
 723 779 l 2
 912 694 989 534 989 397 c 2
 989 367 l 2
 989 180 835 17 643 -16 c 1
 643 -93 l 1
EndSplineSet
Validated: 3073
EndChar

StartChar: percent
Encoding: 37 37 5
Width: 1075
VWidth: 1708
GlyphClass: 2
Flags: W
HStem: -41 193<722.503 837.437> 351 193<722.07 838.37> 852 193<238.503 353.437> 1245 193<238.349 353.79>
VStem: 31 198<1049.57 1240.78> 363 198<1049.95 1240.74> 515 198<156.574 346.889> 847 198<156.922 347.437>
LayerCount: 2
Fore
SplineSet
882 1356 m 1xf9
 1052 1234 l 1
 194 45 l 1
 24 167 l 1
 882 1356 l 1xf9
561 1145 m 0xfd
 561 982 455 852 296 852 c 0
 137 852 31 981 31 1145 c 0
 31 1311 137 1438 296 1438 c 0
 455 1438 561 1311 561 1145 c 0xfd
296 1245 m 0
 246 1245 229 1197 229 1145 c 0
 229 1103 242 1045 296 1045 c 0
 352 1045 363 1109 363 1145 c 0
 363 1196 347 1245 296 1245 c 0
1045 252 m 0
 1045 89 939 -41 780 -41 c 0
 621 -41 515 88 515 252 c 0xfb
 515 417 621 544 780 544 c 0
 939 544 1045 417 1045 252 c 0
780 351 m 0
 728 351 713 299 713 252 c 0
 713 210 726 152 780 152 c 0
 836 152 847 215 847 252 c 0
 847 350 796 351 780 351 c 0
EndSplineSet
Validated: 3073
EndChar

StartChar: ampersand
Encoding: 38 38 6
Width: 1075
VWidth: 2334
GlyphClass: 2
Flags: W
HStem: -25 210<343.787 661.073> 1215 210<433.111 655.712>
VStem: 61 210<249.928 495.305> 211 210<978.186 1198.83> 670 210<1018.83 1192.99>
LayerCount: 2
Fore
SplineSet
679 245 m 1xe8
 446 611 l 1
 381 561 l 2
 295 495 271 425 271 367 c 2
 271 337 l 2
 271 249 377 185 501 185 c 2
 522 185 l 2
 593 185 643 208 679 245 c 1xe8
793 65 m 1
 720 7 628 -25 522 -25 c 2
 501 -25 l 2
 268 -25 61 120 61 337 c 2
 61 367 l 2xe8
 61 437 69 586 239 717 c 2
 331 788 l 1
 280 868 211 995 211 1108 c 2
 211 1130 l 2xd8
 211 1300 330 1425 528 1425 c 2
 550 1425 l 2
 550 1425 597 1423 612 1421 c 0
 778 1397 880 1275 880 1125 c 2
 880 1098 l 2
 880 1035 875 942 727 827 c 2
 613 739 l 1
 792 459 l 1
 871 634 l 1
 1063 546 l 1
 926 248 l 1
 1042 66 l 1
 864 -46 l 1
 793 65 l 1
499 916 m 1
 597 991 l 2
 658 1038 670 1075 670 1098 c 2
 670 1125 l 2
 670 1209 569 1215 550 1215 c 2
 528 1215 l 2
 425 1215 421 1159 421 1130 c 2
 421 1108 l 2xd8
 421 1067 449 998 499 916 c 1
EndSplineSet
Validated: 3073
EndChar

StartChar: quotesingle
Encoding: 39 39 7
Width: 1075
VWidth: 1708
GlyphClass: 2
Flags: W
HStem: 960 504<473.737 555.878>
VStem: 362 350
LayerCount: 2
Fore
SplineSet
559 1010 m 2
 544 982 502 960 460 960 c 3
 395 960 362 1021 362 1066 c 3
 362 1073 362 1086 362 1091 c 2
 440 1362 l 2
 450 1415 515 1464 582 1464 c 3
 666 1464 712 1397 712 1325 c 3
 712 1302 707 1272 697 1255 c 2
 559 1010 l 2
EndSplineSet
Validated: 3073
EndChar

StartChar: parenleft
Encoding: 40 40 8
Width: 1075
VWidth: 1708
GlyphClass: 2
Flags: W
VStem: 305 210<461.111 939.116>
LayerCount: 2
Fore
SplineSet
515 700 m 0
 515 407 702 157 920 7 c 1
 800 -167 l 1
 550 5 305 313 305 700 c 0
 305 1087 551 1396 801 1567 c 1
 919 1393 l 1
 702 1245 515 993 515 700 c 0
EndSplineSet
Validated: 3073
EndChar

StartChar: parenright
Encoding: 41 41 9
Width: 1075
VWidth: 1708
GlyphClass: 2
Flags: W
VStem: 561 210<461.111 939.116>
LayerCount: 2
Fore
SplineSet
771 700 m 0
 771 313 525 5 274 -167 c 1
 156 7 l 1
 374 157 561 407 561 700 c 0
 561 993 374 1245 156 1393 c 1
 274 1567 l 1
 525 1396 771 1087 771 700 c 0
EndSplineSet
Validated: 3073
EndChar

StartChar: asterisk
Encoding: 42 42 10
Width: 1075
VWidth: 1708
GlyphClass: 2
Flags: W
HStem: 613 205<105.535 202.273 873.727 970.465>
VStem: 433 210<745 1050.63>
LayerCount: 2
Fore
SplineSet
837 366 m 2
 851 347 857 326 857 304 c 0
 857 272 842 240 814 220 c 0
 795 206 774 200 752 200 c 0
 720 200 688 215 668 243 c 2
 538 421 l 1
 408 243 l 2
 388 215 356 200 324 200 c 0
 302 200 281 206 262 220 c 0
 234 240 219 272 219 304 c 0
 219 326 225 347 239 366 c 2
 368 545 l 1
 158 613 l 2
 114 627 86 668 86 712 c 0
 86 723 87 734 91 745 c 0
 106 789 147 818 191 818 c 0
 202 818 212 816 223 813 c 2
 433 745 l 1
 433 965 l 2
 433 1023 480 1070 538 1070 c 0
 596 1070 643 1023 643 965 c 2
 643 745 l 1
 853 813 l 2
 864 816 874 818 885 818 c 0
 929 818 970 789 985 745 c 0
 989 734 990 723 990 712 c 0
 990 668 962 627 918 613 c 2
 708 545 l 1
 837 366 l 2
EndSplineSet
Validated: 3073
EndChar

StartChar: plus
Encoding: 43 43 11
Width: 1075
VWidth: 1708
GlyphClass: 2
Flags: W
HStem: 495 210<127 433 643 949>
VStem: 433 210<189 495 705 1011>
LayerCount: 2
Fore
SplineSet
949 705 m 1
 949 495 l 1
 643 495 l 1
 643 189 l 1
 433 189 l 1
 433 495 l 1
 127 495 l 1
 127 705 l 1
 433 705 l 1
 433 1011 l 1
 643 1011 l 1
 643 705 l 1
 949 705 l 1
EndSplineSet
Validated: 3073
EndChar

StartChar: comma
Encoding: 44 44 12
Width: 1075
VWidth: 1947
GlyphClass: 2
Flags: HW
HStem: -334 74<387.125 438.006>
VStem: 493 239<-154.982 109>
LayerCount: 2
Fore
SplineSet
456 -73 m 0
 402 -60 343 -4 343 56 c 3
 343 158 420 252 537 252 c 3
 651 252 732 162 732 56 c 3
 732 -140 653 -306 391 -334 c 1
 371 -260 l 1
 420 -242 493 -197 493 -141 c 3
 493 -120 485 -80 456 -73 c 0
EndSplineSet
Validated: 3073
EndChar

StartChar: hyphen
Encoding: 45 45 13
Width: 1075
VWidth: 1708
GlyphClass: 2
Flags: W
HStem: 495 210<127 949>
LayerCount: 2
Fore
SplineSet
949 705 m 1
 949 495 l 1
 127 495 l 1
 127 705 l 1
 949 705 l 1
EndSplineSet
Validated: 3073
EndChar

StartChar: period
Encoding: 46 46 14
Width: 1075
VWidth: 1708
GlyphClass: 2
Flags: W
HStem: -136 75<568 575 578 584 587 592 594 599 603 607 610 611.512> -47 6<571 576> -39 2<572 574> -35 2<571 574>
VStem: 546 4<-41 -35 -33 -31> 556 2<-41 -33> 560 2<-41 -33> 564 2<-41 -33> 568 2<-39 -37> 570 8<-53 -49> 572 2<-39 -37> 576 2<-59 -55 -49 -47> 584 2<-59 -53> 588 2<-59 -51> 592 2<-59 -53> 596 2<-59 -53> 600 2<-59 -53> 604 2<-59 -53> 608 2<-59 -53>
LayerCount: 2
Fore
SplineSet
614 -59 m 25xff8fe0
 612 -59 l 25
 612 -47 l 25
 610 -47 l 25
 610 -61 l 25
 614 -61 l 25
 614 -59 l 25xff8fe0
606 -59 m 9
 604 -59 l 17
 604 -53 l 9
 606 -53 l 1
 606 -59 l 9
544 -41 m 9
 546 -41 l 25
 546 -35 l 25
 550 -35 l 25
 550 -41 l 25
 552 -41 l 25
 552 -27 l 25
 546 -27 l 17
 544 -31 l 1
 544 -41 l 9
547 -29 m 9
 550 -29 l 25
 550 -33 l 25
 546 -33 l 17
 546 -31 l 1
 547 -29 l 9
558 -33 m 25
 558 -41 l 25
 560 -41 l 17
 560 -33 l 1
 559 -31 l 9
 554 -31 l 17
 554 -41 l 9
 556 -41 l 17
 556 -33 l 9
 558 -33 l 25
566 -33 m 25
 566 -41 l 25
 568 -41 l 17
 568 -33 l 1
 567 -31 l 9
 562 -31 l 17
 562 -41 l 9
 564 -41 l 25
 564 -33 l 25
 566 -33 l 25
572 -37 m 25xffafe0
 574 -37 l 25
 574 -39 l 25
 572 -39 l 25
 572 -37 l 25xffafe0
571 -41 m 9
 576 -41 l 17
 576 -33 l 1xffbfe0
 575 -31 l 9
 570 -31 l 25
 570 -33 l 25
 574 -33 l 25
 574 -35 l 25
 571 -35 l 17
 570 -37 l 1
 570 -39 l 1
 571 -41 l 9
582 -53 m 25
 582 -61 l 25
 584 -61 l 17
 584 -53 l 1
 583 -51 l 1
 580 -51 l 1
 580 -47 l 1
 578 -47 l 9
 578 -61 l 25
 580 -61 l 25
 580 -53 l 25
 582 -53 l 25
575 -53 m 1
 570 -53 l 25
 570 -49 l 25
 576 -49 l 1
 576 -47 l 9
 569 -47 l 17
 568 -49 l 1
 568 -53 l 1
 569 -55 l 9
 574 -55 l 17
 574 -59 l 1
 568 -59 l 1
 568 -61 l 9
 575 -61 l 17
 576 -59 l 1
 576 -55 l 1
 575 -53 l 1
590 -59 m 25
 588 -59 l 25
 588 -51 l 25
 586 -51 l 17
 586 -59 l 1
 587 -61 l 9
 592 -61 l 25
 592 -51 l 25
 590 -51 l 25
 590 -59 l 25
596 -59 m 25
 596 -53 l 25
 598 -53 l 25
 598 -59 l 25
 596 -59 l 25
595 -51 m 17
 594 -53 l 1
 594 -59 l 1
 595 -61 l 9
 598 -61 l 25
 598 -63 l 25
 594 -63 l 25
 594 -65 l 25
 599 -65 l 17
 600 -63 l 1
 600 -51 l 9
 595 -51 l 17
603 -51 m 17
 602 -53 l 1
 602 -59 l 1
 603 -61 l 9
 607 -61 l 17
 608 -59 l 1
 608 -53 l 1
 607 -51 l 9
 603 -51 l 17
732 59 m 3
 732 -44 652 -136 537 -136 c 3
 426 -136 343 -46 343 59 c 3
 343 161 420 254 537 254 c 3
 651 254 732 164 732 59 c 3
EndSplineSet
Validated: 3073
EndChar

StartChar: slash
Encoding: 47 47 15
Width: 1075
VWidth: 1708
GlyphClass: 2
Flags: W
LayerCount: 2
Fore
SplineSet
764 1468 m 1
 956 1382 l 1
 311 -68 l 1
 119 18 l 1
 764 1468 l 1
EndSplineSet
Validated: 3073
EndChar

StartChar: zero
Encoding: 48 48 16
Width: 1075
VWidth: 1708
GlyphClass: 2
Flags: W
HStem: -25 210<413.653 656.064> 1215 210<418.625 663.172>
VStem: 99 210<579.077 1073.54> 767 210<337.73 817.589>
LayerCount: 2
Fore
SplineSet
538 1215 m 0
 368 1215 309 1056 309 700 c 0
 309 656 310 616 312 578 c 1
 713 1101 l 1
 677 1179 621 1215 538 1215 c 0
977 700 m 0
 977 364 920 -25 538 -25 c 0
 390 -25 292 33 226 122 c 1
 107 -33 l 1
 16 192 l 1
 132 344 l 1
 105 460 99 586 99 700 c 0
 99 1028 151 1425 538 1425 c 0
 686 1425 784 1368 850 1280 c 1
 977 1445 l 1
 1062 1211 l 1
 945 1058 l 1
 971 944 977 817 977 700 c 0
764 823 m 1
 364 301 l 1
 401 221 457 185 538 185 c 0
 705 185 767 341 767 700 c 0
 767 744 766 785 764 823 c 1
EndSplineSet
Validated: 3073
EndChar

StartChar: one
Encoding: 49 49 17
Width: 1075
VWidth: 1708
GlyphClass: 2
Flags: W
HStem: -0 21G<547 757> 1405 20G<613 757>
VStem: 547 210<0 1056>
LayerCount: 2
Fore
SplineSet
757 1425 m 1
 757 0 l 1
 547 -0 l 1
 547 1056 l 1
 340 947 l 1
 279 1024 l 1
 613 1423 l 1
 616 1425 l 1
 757 1425 l 1
EndSplineSet
Validated: 3073
EndChar

StartChar: two
Encoding: 50 50 18
Width: 1075
VWidth: 2334
GlyphClass: 2
Flags: W
HStem: 0 210<375 967> 1215 210<372.66 718.613>
VStem: 755 212<935.507 1168.93>
LayerCount: 2
Fore
SplineSet
755 1064 m 2
 755 1207 654 1215 548 1215 c 2
 528 1215 l 2
 390 1215 357 1175 322 1103 c 1
 134 1195 l 1
 201 1334 302 1425 528 1425 c 2
 548 1425 l 2
 636 1425 965 1421 965 1064 c 2
 965 1024 l 2
 965 969 954 891 834 753 c 2
 451 315 l 2
 420 280 395 245 375 210 c 1
 967 210 l 1
 967 0 l 1
 109 0 l 1
 109 118 l 1
 115 137 l 2
 148 239 200 346 293 453 c 2
 676 891 l 2
 730 953 755 996 755 1024 c 2
 755 1064 l 2
EndSplineSet
Validated: 3073
EndChar

StartChar: three
Encoding: 51 51 19
Width: 1075
VWidth: 2334
GlyphClass: 2
Flags: W
HStem: -25 210<375.082 691.314> 672 210<354 652.493> 1215 210<380.541 659.665>
VStem: 110 210<240.833 337> 703 210<932.137 1176.99> 755 210<256.99 617.927>
LayerCount: 2
Fore
SplineSet
528 1425 m 2xf8
 548 1425 l 2
 758 1425 913 1280 913 1063 c 2
 913 1024 l 2xf8
 913 943 878 857 819 792 c 1
 913 712 965 613 965 447 c 2
 965 427 l 2
 965 167 833 -25 548 -25 c 2
 528 -25 l 2
 298 -25 110 120 110 337 c 1
 320 337 l 1
 320 228 434 185 528 185 c 2
 548 185 l 2
 699 185 755 269 755 427 c 2
 755 447 l 2xf4
 755 639 674 671 550 672 c 2
 354 672 l 1
 354 882 l 1
 550 882 l 2
 648 882 703 974 703 1024 c 2
 703 1063 l 2
 703 1150 656 1215 548 1215 c 2
 528 1215 l 2
 441 1215 360 1177 332 1115 c 1
 140 1201 l 1
 210 1359 381 1425 528 1425 c 2xf8
EndSplineSet
Validated: 3073
EndChar

StartChar: four
Encoding: 52 52 20
Width: 1075
VWidth: 1708
GlyphClass: 2
Flags: W
HStem: -0 21G<677 887> 322 210<390 677 887 965> 1405 20G<710.915 887>
VStem: 677 210<0 322 532 970>
LayerCount: 2
Fore
SplineSet
677 970 m 1
 390 532 l 1
 677 532 l 1
 677 970 l 1
109 485 m 1
 724 1425 l 1
 887 1425 l 1
 887 532 l 1
 965 532 l 1
 965 322 l 1
 887 322 l 1
 887 0 l 1
 677 -0 l 1
 677 322 l 1
 109 322 l 1
 109 485 l 1
EndSplineSet
Validated: 3073
EndChar

StartChar: five
Encoding: 53 53 21
Width: 1075
VWidth: 2334
GlyphClass: 2
Flags: W
HStem: -25 210<324.186 681.545> 742 210<420.026 694.397> 1190 210<411 900>
VStem: 755 210<260.285 676.522>
LayerCount: 2
Fore
SplineSet
528 952 m 2
 548 952 l 2
 811 952 965 794 965 507 c 2
 965 447 l 2
 965 150 804 -25 548 -25 c 2
 470 -25 l 2
 318 -25 140 52 77 210 c 1
 266 307 l 1
 287 215 405 185 470 185 c 2
 548 185 l 2
 673 185 755 254 755 447 c 2
 755 507 l 2
 755 700 673 742 548 742 c 2
 528 742 l 2
 474 742 388 694 346 608 c 1
 136 734 l 1
 229 1400 l 1
 900 1400 l 1
 900 1190 l 1
 411 1190 l 1
 373 914 l 1
 425 939 478 952 528 952 c 2
EndSplineSet
Validated: 3073
EndChar

StartChar: six
Encoding: 54 54 22
Width: 1075
VWidth: 2334
GlyphClass: 2
Flags: W
HStem: -25 210<405.502 681.545> 742 210<380.581 694.397> 1215 210<406.664 721.485>
VStem: 110 210<278.349 682.733 905 1113.61> 755 210<260.285 676.522>
LayerCount: 2
Fore
SplineSet
320 507 m 2
 320 447 l 2
 320 286 406 185 528 185 c 2
 548 185 l 2
 673 185 755 254 755 447 c 2
 755 507 l 2
 755 700 673 742 548 742 c 2
 528 742 l 2
 403 742 320 700 320 507 c 2
739 1153 m 1
 726 1178 702 1215 548 1215 c 2
 528 1215 l 2
 362 1215 321 1046 320 943 c 1
 320 905 l 1
 379 936 448 952 528 952 c 2
 548 952 l 2
 811 952 965 794 965 507 c 2
 965 447 l 2
 965 150 804 -25 548 -25 c 2
 528 -25 l 2
 302 -25 110 136 110 427 c 2
 110 945 l 1
 113 1219 277 1425 528 1425 c 2
 548 1425 l 2
 630 1425 839 1423 927 1247 c 1
 739 1153 l 1
EndSplineSet
Validated: 3073
EndChar

StartChar: seven
Encoding: 55 55 23
Width: 1075
VWidth: 1708
GlyphClass: 2
Flags: W
HStem: 0 21G<205 469.5> 1190 210<109 681>
VStem: 205 215<0 156.748>
LayerCount: 2
Fore
SplineSet
205 0 m 1
 295 422 473 811 681 1190 c 1
 109 1190 l 1
 109 1400 l 1
 967 1400 l 1
 967 1271 l 1
 951 1243 l 2
 718 837 519 430 420 -0 c 1
 348 0 277 0 205 0 c 1
EndSplineSet
Validated: 3073
EndChar

StartChar: eight
Encoding: 56 56 24
Width: 1075
VWidth: 2334
GlyphClass: 2
Flags: W
HStem: -25 210<401.847 688.219> 672 210<415.61 652.493> 1215 210<415.592 650.899>
VStem: 110 210<265.993 611.995> 163 210<926.225 1169.06> 703 210<928.493 1168.14> 755 210<248.38 611.995>
LayerCount: 2
Fore
SplineSet
913 1063 m 2xec
 913 1024 l 2xec
 913 942 878 858 819 793 c 1
 914 713 965 603 965 437 c 2
 965 417 l 2
 965 157 852 -25 548 -25 c 2
 528 -25 l 2
 264 -25 110 149 110 417 c 2
 110 437 l 2xf2
 110 603 162 712 256 792 c 1
 174 888 163 987 163 1024 c 2
 163 1064 l 2
 163 1281 316 1425 528 1425 c 2
 548 1425 l 2
 758 1425 913 1280 913 1063 c 2xec
526 882 m 2
 550 882 l 2
 648 882 703 973 703 1024 c 2
 703 1063 l 2
 703 1152 630 1215 548 1215 c 2
 528 1215 l 2
 435 1215 373 1152 373 1064 c 2
 373 1016 l 2
 373 960 429 882 526 882 c 2
550 672 m 2
 526 672 l 2
 402 671 320 629 320 437 c 2
 320 417 l 2
 320 243 431 185 528 185 c 2
 548 185 l 2
 699 185 755 259 755 417 c 2
 755 437 l 2xf2
 755 629 674 671 550 672 c 2
EndSplineSet
Validated: 3073
EndChar

StartChar: nine
Encoding: 57 57 25
Width: 1075
VWidth: 2334
GlyphClass: 2
Flags: W
HStem: -25 210<353.664 678.288> 448 210<384.127 691.42> 1215 210<392.134 672.041>
VStem: 110 210<727.217 1144.28> 755 210<271.059 492 722.25 1129.33>
LayerCount: 2
Fore
SplineSet
755 900 m 2
 755 960 l 2
 755 1118 672 1215 548 1215 c 2
 528 1215 l 2
 403 1215 320 1154 320 960 c 2
 320 900 l 2
 320 709 403 658 528 658 c 2
 548 658 l 2
 673 658 755 709 755 900 c 2
337 246 m 1
 360 197 445 185 528 185 c 2
 548 185 l 2
 714 185 755 322 755 443 c 2
 755 492 l 1
 696 463 627 448 548 448 c 2
 528 448 l 2
 271 448 110 607 110 900 c 2
 110 960 l 2
 110 1251 266 1425 528 1425 c 2
 548 1425 l 2
 780 1425 965 1243 965 960 c 2
 965 443 l 2
 965 157 798 -25 548 -25 c 2
 528 -25 l 2
 432 -25 231 -12 149 154 c 1
 337 246 l 1
EndSplineSet
Validated: 3073
EndChar

StartChar: less
Encoding: 60 60 28
Width: 1075
VWidth: 1708
GlyphClass: 2
Flags: W
LayerCount: 2
Fore
SplineSet
167 684 m 1
 909 1239 l 1
 909 977 l 1
 404 600 l 1
 909 223 l 1
 909 -39 l 1
 167 516 l 1
 167 684 l 1
EndSplineSet
Validated: 3073
EndChar

StartChar: equal
Encoding: 61 61 29
Width: 1075
VWidth: 1708
GlyphClass: 2
Flags: W
HStem: 295 210<127 949> 705 210<127 949>
LayerCount: 2
Fore
SplineSet
949 915 m 1
 949 705 l 1
 127 705 l 1
 127 915 l 1
 949 915 l 1
949 505 m 1
 949 295 l 1
 127 295 l 1
 127 505 l 1
 949 505 l 1
EndSplineSet
Validated: 3073
EndChar

StartChar: greater
Encoding: 62 62 30
Width: 1075
VWidth: 1708
GlyphClass: 2
Flags: W
LayerCount: 2
Fore
SplineSet
167 1239 m 1
 909 684 l 1
 909 516 l 1
 167 -39 l 1
 167 223 l 1
 672 600 l 1
 167 977 l 1
 167 1239 l 1
EndSplineSet
Validated: 3073
EndChar

StartChar: question
Encoding: 63 63 31
Width: 1075
VWidth: 1708
GlyphClass: 2
Flags: W
HStem: -128 306<425.375 650.25> 1043 21G<110 320> 1215 210<368.658 711.099>
VStem: 110 210<1043 1165.24> 376 323<-79.263 129.209> 433 210<330 593.876> 755 210<932.009 1170.45>
LayerCount: 2
Fore
SplineSet
699 25 m 3xfa
 699 -65 623 -128 537 -128 c 3
 454 -128 376 -63 376 25 c 3
 376 106 446 178 537 178 c 3
 621 178 699 116 699 25 c 3xfa
965 1024 m 2
 965 928 923 849 863 786 c 2
 723 639 l 2
 675 590 643 538 643 480 c 2
 643 330 l 1
 433 330 l 1
 433 480 l 2xf6
 433 629 505 725 581 801 c 2
 711 932 l 2
 740 961 755 990 755 1024 c 2
 755 1063 l 2
 755 1122 738 1215 548 1215 c 2
 528 1215 l 2
 407 1210 320 1184 320 1043 c 1
 110 1043 l 1
 110 1186 164 1315 284 1376 c 0
 370 1419 454 1422 528 1425 c 2
 548 1425 l 2
 957 1425 965 1116 965 1063 c 2
 965 1024 l 2
EndSplineSet
Validated: 3073
EndChar

StartChar: at
Encoding: 64 64 32
Width: 1075
VWidth: 1708
GlyphClass: 2
Flags: W
HStem: -25 210<406.13 773.304> 330 210<635.632 787.369> 851 210<637.606 799> 1215 210<400.679 747.414>
VStem: 30 210<409.14 991.481> 406 210<553.588 838.729> 802 210<330 344 553.046 851 1061 1157.54>
LayerCount: 2
Fore
SplineSet
711 851 m 2
 657 851 616 838 616 702 c 3
 616 582 638 540 711 540 c 27
 763 540 802 584 802 639 c 2
 802 851 l 1
 711 851 l 2
406 702 m 3
 406 852 468 1061 711 1061 c 2
 711 1061 751 1061 799 1061 c 1
 798 1152 747 1215 538 1215 c 3
 300 1215 240 911 240 700 c 3
 240 491 300 185 538 185 c 3
 664 185 746 201 791 241 c 1
 929 83 l 1
 819 -14 538 -25 538 -25 c 3
 233 -25 30 252 30 700 c 3
 30 1149 233 1425 538 1425 c 3
 861 1425 1012 1306 1012 1062 c 2
 1012 330 l 1
 802 330 l 1
 802 344 l 1
 774 335 750 330 711 330 c 3
 432 330 406 514 406 702 c 3
EndSplineSet
Validated: 3073
EndChar

StartChar: B
Encoding: 66 66 33
Width: 1075
VWidth: 1947
GlyphClass: 2
Flags: W
HStem: 0 210<320 733.904> 650 210<320 656.81> 1190 210<320 677.624>
VStem: 110 210<210 650 860 1190> 698 210<901.511 1167.73> 755 210<236.973 605.797>
LayerCount: 2
Fore
SplineSet
832 782 m 1xf8
 876 759 965 669 965 485 c 2
 965 337 l 2xf4
 965 208 945 0 548 0 c 2
 110 0 l 1
 110 1400 l 1
 491 1400 l 2
 714 1400 908 1341 908 1063 c 2
 908 1024 l 2
 908 959 900 861 832 782 c 1xf8
755 485 m 2
 755 648 637 650 548 650 c 2
 320 650 l 1
 320 210 l 1
 548 210 l 2
 729 210 755 246 755 337 c 2
 755 485 l 2
698 1063 m 2xf8
 698 1186 636 1190 491 1190 c 2
 320 1190 l 1
 320 860 l 1
 491 860 l 2
 687 860 695 946 698 1024 c 2
 698 1063 l 2xf8
EndSplineSet
Validated: 3073
EndChar

StartChar: C
Encoding: 67 67 34
Width: 1075
VWidth: 1947
GlyphClass: 2
Flags: W
HStem: -25 210<413.435 663.769> 1046 21G<715 805.143> 1215 210<418.673 666.68>
VStem: 99 210<320.366 1068.04> 728 202<250.857 287.773 1099.35 1148.04>
LayerCount: 2
Fore
SplineSet
538 -25 m 3
 171 -25 99 325 99 647 c 2
 99 752 l 2
 99 1335 362 1425 538 1425 c 3
 749 1425 878 1305 935 1102 c 1
 733 1046 l 1
 697 1174 639 1215 538 1215 c 3
 379 1215 309 1064 309 752 c 2
 309 647 l 2
 309 322 376 185 538 185 c 3
 634 185 692 224 728 345 c 1
 930 285 l 1
 871 89 741 -25 538 -25 c 3
EndSplineSet
Validated: 3073
EndChar

StartChar: D
Encoding: 68 68 35
Width: 1075
VWidth: 1947
GlyphClass: 2
Flags: W
HStem: 0 210<320 664.529> 1190 210<320 666.826>
VStem: 110 210<210 1190> 767 210<341.354 1060.65>
LayerCount: 2
Fore
SplineSet
977 700 m 0
 977 350 913 0 538 0 c 2
 110 0 l 1
 110 1400 l 1
 538 1400 l 2
 921 1400 977 1042 977 700 c 0
538 1190 m 2
 320 1190 l 1
 320 210 l 1
 538 210 l 2
 705 210 767 342 767 700 c 0
 767 1057 710 1190 538 1190 c 2
EndSplineSet
Validated: 3073
EndChar

StartChar: E
Encoding: 69 69 36
Width: 1075
VWidth: 1708
GlyphClass: 2
Flags: W
HStem: 0 211<320 967> 650 210<320 860> 1190 210<320 967>
VStem: 110 210<211 650 860 1190>
LayerCount: 2
Fore
SplineSet
320 650 m 1
 320 211 l 1
 967 211 l 1
 967 0 l 1
 110 0 l 1
 110 1400 l 1
 967 1400 l 1
 967 1190 l 1
 320 1190 l 1
 320 860 l 1
 860 860 l 1
 860 650 l 1
 320 650 l 1
EndSplineSet
Validated: 3073
EndChar

StartChar: F
Encoding: 70 70 37
Width: 1075
VWidth: 1708
GlyphClass: 2
Flags: W
HStem: 650 210<320 860> 1190 210<320 967>
VStem: 110 210<106 650 860 1190>
LayerCount: 2
Fore
SplineSet
320 650 m 1
 320 106 l 1
 110 106 l 1
 110 1400 l 1
 967 1400 l 1
 967 1190 l 1
 320 1190 l 1
 320 860 l 1
 860 860 l 1
 860 650 l 1
 320 650 l 1
EndSplineSet
Validated: 3073
EndChar

StartChar: G
Encoding: 71 71 38
Width: 1075
VWidth: 1947
GlyphClass: 2
Flags: W
HStem: -25 210<417.534 703.931> 512 210<588 757> 1046 21G<715 805.143> 1215 210<418.495 666.848>
VStem: 99 210<329.521 1073.67> 588 379<512 722> 757 210<273 512>
LayerCount: 2
Fore
SplineSet
538 1215 m 0xfa
 368 1215 309 1056 309 700 c 0
 309 349 366 185 538 185 c 0
 697 185 740 258 757 306 c 1
 757 512 l 1xfa
 588 512 l 1
 588 722 l 1
 967 722 l 1xfc
 967 273 l 1
 962 258 l 1
 916 107 790 -25 538 -25 c 0
 146 -25 99 384 99 700 c 0
 99 1026 150 1425 538 1425 c 0
 749 1425 878 1306 935 1102 c 1
 733 1046 l 1
 697 1174 640 1215 538 1215 c 0xfa
EndSplineSet
Validated: 3073
EndChar

StartChar: H
Encoding: 72 72 39
Width: 1075
VWidth: 1947
GlyphClass: 2
Flags: W
HStem: 0 21G<110 320 755 965> 595 210<320 755> 1380 20G<110 320 755 965>
VStem: 110 210<0 595 805 1400> 755 210<0 595 805 1400>
LayerCount: 2
Fore
SplineSet
320 -0 m 1
 110 0 l 1
 110 1400 l 1
 320 1400 l 1
 320 805 l 1
 755 805 l 1
 755 1400 l 1
 965 1400 l 1
 965 -0 l 1
 755 0 l 1
 755 595 l 1
 320 595 l 1
 320 -0 l 1
EndSplineSet
Validated: 3073
EndChar

StartChar: I
Encoding: 73 73 40
Width: 1075
VWidth: 1947
GlyphClass: 2
Flags: W
HStem: 0 210<109 433 643 967> 1190 210<109 433 643 967>
VStem: 433 210<210 1190>
LayerCount: 2
Fore
SplineSet
967 1400 m 1
 967 1190 l 1
 643 1190 l 1
 643 210 l 1
 967 210 l 1
 967 0 l 1
 109 0 l 1
 109 210 l 1
 433 210 l 1
 433 1190 l 1
 109 1190 l 1
 109 1400 l 1
 967 1400 l 1
EndSplineSet
Validated: 3073
EndChar

StartChar: J
Encoding: 74 74 41
Width: 1075
VWidth: 1947
GlyphClass: 2
Flags: W
HStem: -25 210<294.741 570.708> 1190 210<373 599 809 990>
VStem: 599 210<215.469 1190>
LayerCount: 2
Fore
SplineSet
444 185 m 2
 514 187 599 192 599 337 c 2
 599 1190 l 1
 373 1190 l 1
 373 1400 l 1
 990 1400 l 1
 990 1190 l 1
 809 1190 l 1
 809 337 l 2
 809 183 753 -25 444 -25 c 2
 424 -25 l 2
 133 -25 89 174 75 213 c 1
 277 267 l 1
 290 231 301 185 424 185 c 2
 444 185 l 2
EndSplineSet
Validated: 3073
EndChar

StartChar: K
Encoding: 75 75 42
Width: 1075
VWidth: 1947
GlyphClass: 2
Flags: W
HStem: 0 21G<112 322 754.562 1007> 1380 20G<112 322 720.832 993>
VStem: 112 210<0 454 817 1400>
LayerCount: 2
Fore
SplineSet
112 0 m 1
 112 1400 l 1
 322 1400 l 1
 322 817 l 1
 735 1400 l 1
 993 1400 l 1
 558 787 l 1
 1007 0 l 1
 766 0 l 1
 424 598 l 1
 322 454 l 1
 322 -0 l 1
 112 0 l 1
EndSplineSet
Validated: 3073
EndChar

StartChar: L
Encoding: 76 76 43
Width: 1075
VWidth: 1947
GlyphClass: 2
Flags: W
HStem: 0 211<320 967> 1380 20G<110 320>
VStem: 110 210<211 1400>
LayerCount: 2
Fore
SplineSet
320 211 m 1
 967 211 l 1
 967 0 l 1
 110 0 l 1
 110 1400 l 1
 320 1400 l 1
 320 211 l 1
EndSplineSet
Validated: 3073
EndChar

StartChar: M
Encoding: 77 77 44
Width: 1075
VWidth: 1947
GlyphClass: 2
Flags: W
HStem: 0 21G<16 229.661 846.339 1059> 1380 20G<131.329 354.684 721.316 944.657>
LayerCount: 2
Fore
SplineSet
16 0 m 1
 133 1400 l 1
 349 1400 l 1
 538 735 l 1
 727 1400 l 1
 943 1400 l 1
 1059 0 l 1
 848 0 l 1
 780 819 l 1
 616 243 l 1
 460 243 l 1
 296 819 l 1
 228 0 l 1
 16 0 l 1
EndSplineSet
Validated: 3073
EndChar

StartChar: N
Encoding: 78 78 45
Width: 1075
VWidth: 1947
GlyphClass: 2
Flags: W
HStem: -0 21G<110 320 772.596 965> 1380 20G<110 302.393 755 965>
VStem: 110 210<0 890> 755 210<509 1400>
LayerCount: 2
Fore
SplineSet
320 0 m 1
 110 -0 l 1
 110 1400 l 1
 292 1400 l 1
 755 509 l 1
 755 1400 l 1
 965 1400 l 1
 965 0 l 1
 783 0 l 1
 320 890 l 1
 320 0 l 1
EndSplineSet
Validated: 3073
EndChar

StartChar: O
Encoding: 79 79 46
Width: 1075
VWidth: 1947
GlyphClass: 2
Flags: W
HStem: -25 210<414.874 662.252> 1215 210<415.317 662.697>
VStem: 100 210<321.925 1079.56> 765 210<316.763 1085.14>
LayerCount: 2
Fore
SplineSet
975 798 m 2
 975 608 l 2
 975 67 713 -25 538 -25 c 0
 363 -25 100 64 100 616 c 2
 100 783 l 2
 100 1336 363 1425 538 1425 c 0
 713 1425 975 1337 975 798 c 2
538 1215 m 0
 383 1215 310 1074 310 783 c 2
 310 616 l 2
 310 330 381 185 538 185 c 0
 690 185 765 321 765 608 c 2
 765 798 l 2
 765 1081 692 1215 538 1215 c 0
EndSplineSet
Validated: 3073
EndChar

StartChar: P
Encoding: 80 80 47
Width: 1075
VWidth: 1947
GlyphClass: 2
Flags: W
HStem: 0 21G<110 320> 580 210<320 720.355> 1190 210<320 732.927>
VStem: 110 210<0 580 790 1190> 755 210<826.678 1165.82>
LayerCount: 2
Fore
SplineSet
548 790 m 2
 651 790 755 791 755 942 c 2
 755 1063 l 2
 755 1143 749 1190 548 1190 c 2
 320 1190 l 1
 320 790 l 1
 548 790 l 2
965 1063 m 2
 965 942 l 2
 965 870 950 708 792 628 c 0
 707 585 621 580 548 580 c 2
 320 580 l 1
 320 -0 l 1
 110 0 l 1
 110 1400 l 1
 548 1400 l 2
 856 1400 965 1279 965 1063 c 2
EndSplineSet
Validated: 3073
EndChar

StartChar: Q
Encoding: 81 81 48
Width: 1075
VWidth: 1947
GlyphClass: 2
Flags: W
HStem: -25 210<420.846 542.113> 1215 210<418.625 658.206>
VStem: 99 210<331.652 1074.11> 767 210<326.815 1074.48>
LayerCount: 2
Fore
SplineSet
950 -90 m 1
 770 -198 l 1
 658 -10 l 1
 622 -20 582 -25 538 -25 c 0
 144 -25 99 388 99 700 c 0
 99 1028 151 1425 538 1425 c 0
 928 1425 977 1027 977 700 c 0
 977 484 953 246 835 104 c 1
 950 -90 l 1
538 1215 m 0
 368 1215 309 1056 309 700 c 0
 309 334 373 185 538 185 c 2
 543 185 l 1
 448 345 l 1
 628 453 l 1
 715 307 l 1
 752 391 767 520 767 700 c 0
 767 1059 710 1215 538 1215 c 0
EndSplineSet
Validated: 3073
EndChar

StartChar: R
Encoding: 82 82 49
Width: 1075
VWidth: 1947
GlyphClass: 2
Flags: W
HStem: 0 21G<110 320 770.345 1020> 580 210<320 472> 1190 210<320 732.927>
VStem: 110 210<0 580 790 1190> 755 210<826.094 1165.82>
LayerCount: 2
Fore
SplineSet
548 790 m 1
 673 795 755 802 755 943 c 2
 755 1063 l 2
 755 1143 749 1190 548 1190 c 2
 320 1190 l 1
 320 790 l 1
 548 790 l 1
965 1063 m 2
 965 943 l 2
 965 747 862 633 702 596 c 1
 1020 0 l 1
 781 0 l 1
 472 580 l 1
 320 580 l 1
 320 -0 l 1
 110 0 l 1
 110 1400 l 1
 548 1400 l 2
 856 1400 965 1279 965 1063 c 2
EndSplineSet
Validated: 3073
EndChar

StartChar: S
Encoding: 83 83 50
Width: 1075
VWidth: 2334
GlyphClass: 2
Flags: W
HStem: -25 210<358.668 705.352> 1215 210<380.291 711.893>
VStem: 61 210<269.483 357> 117 210<948.275 1159.17> 779 210<249.928 499.081 1063 1149.45>
LayerCount: 2
Fore
SplineSet
774 1063 m 1xd8
 774 1185 639 1215 543 1215 c 2
 535 1215 l 2
 418 1215 327 1161 327 1063 c 2
 327 1027 l 2xd8
 327 1018 329 953 417 914 c 2
 723 779 l 2
 912 695 989 504 989 367 c 2
 989 337 l 2
 989 120 781 -25 548 -25 c 2
 528 -25 l 2
 354 -25 95 19 61 357 c 1
 271 357 l 1xe8
 283 243 396 185 528 185 c 2
 548 185 l 2
 671 185 779 249 779 337 c 2
 779 367 l 2
 779 439 735 545 635 589 c 2
 333 722 l 2
 280 745 117 836 117 1033 c 2
 117 1063 l 2
 117 1280 299 1425 535 1425 c 2
 543 1425 l 2
 804 1425 984 1278 984 1063 c 1
 774 1063 l 1xd8
EndSplineSet
Validated: 3073
EndChar

StartChar: T
Encoding: 84 84 51
Width: 1075
VWidth: 1947
GlyphClass: 2
Flags: W
HStem: -0 21G<433 643> 1190 210<86 433 643 990>
VStem: 433 210<0 1190>
LayerCount: 2
Fore
SplineSet
990 1400 m 1
 990 1190 l 1
 643 1190 l 1
 643 0 l 1
 433 -0 l 1
 433 1190 l 1
 86 1190 l 1
 86 1400 l 1
 990 1400 l 1
EndSplineSet
Validated: 3073
EndChar

StartChar: U
Encoding: 85 85 52
Width: 1075
VWidth: 1947
GlyphClass: 2
Flags: W
HStem: -25 210<354.022 720.71> 1380 20G<110 320 755 965>
VStem: 110 210<218.865 1400> 755 210<216.658 1400>
LayerCount: 2
Fore
SplineSet
548 185 m 2
 735 185 755 237 755 337 c 2
 755 1400 l 1
 965 1400 l 1
 965 337 l 2
 965 147 879 -25 548 -25 c 2
 528 -25 l 2
 194 -25 110 150 110 337 c 2
 110 1400 l 1
 320 1400 l 1
 320 337 l 2
 320 237 348 185 528 185 c 2
 548 185 l 2
EndSplineSet
Validated: 3073
EndChar

StartChar: V
Encoding: 86 86 53
Width: 1075
VWidth: 1708
GlyphClass: 2
Flags: W
HStem: -25 21G<443.849 632.137> 1380 20G<82 304.151 770.871 993>
LayerCount: 2
Fore
SplineSet
449 -25 m 1
 82 1400 l 1
 299 1400 l 1
 538 472 l 1
 776 1400 l 1
 993 1400 l 1
 627 -25 l 1
 449 -25 l 1
EndSplineSet
Validated: 3073
EndChar

StartChar: W
Encoding: 87 87 54
Width: 1075
VWidth: 1947
GlyphClass: 2
Flags: W
HStem: 0 21G<131.329 354.676 721.324 944.657> 1380 20G<16 229.663 846.337 1059>
LayerCount: 2
Fore
SplineSet
133 0 m 1
 16 1400 l 1
 228 1400 l 1
 296 582 l 1
 460 1158 l 1
 616 1158 l 1
 780 582 l 1
 848 1400 l 1
 1059 1400 l 1
 943 0 l 1
 727 0 l 1
 538 666 l 1
 349 0 l 1
 133 0 l 1
EndSplineSet
Validated: 3073
EndChar

StartChar: X
Encoding: 88 88 55
Width: 1075
VWidth: 1947
GlyphClass: 2
Flags: W
HStem: 0 21G<91 332.471 743.529 985> 1380 20G<91 332.471 743.529 985>
LayerCount: 2
Fore
SplineSet
91 0 m 1
 422 700 l 1
 91 1400 l 1
 323 1400 l 1
 538 946 l 1
 753 1400 l 1
 985 1400 l 1
 654 700 l 1
 985 0 l 1
 753 0 l 1
 538 454 l 1
 323 0 l 1
 91 0 l 1
EndSplineSet
Validated: 3073
EndChar

StartChar: Y
Encoding: 89 89 56
Width: 1075
VWidth: 1947
GlyphClass: 2
Flags: W
HStem: -25 21G<433 643> 1380 20G<87 319.635 756.365 989>
VStem: 433 210<-25 494>
LayerCount: 2
Fore
SplineSet
433 -25 m 1
 433 494 l 1
 87 1400 l 1
 312 1400 l 1
 538 808 l 1
 764 1400 l 1
 989 1400 l 1
 643 494 l 1
 643 -25 l 1
 433 -25 l 1
EndSplineSet
Validated: 3073
EndChar

StartChar: Z
Encoding: 90 90 57
Width: 1075
VWidth: 1947
GlyphClass: 2
Flags: W
HStem: 0 211<391 967> 1190 210<109 684>
LayerCount: 2
Fore
SplineSet
109 1190 m 1
 109 1400 l 1
 967 1400 l 1
 967 1273 l 1
 391 211 l 1
 967 211 l 1
 967 0 l 1
 109 0 l 1
 109 130 l 1
 684 1190 l 1
 109 1190 l 1
EndSplineSet
Validated: 3073
EndChar

StartChar: bracketleft
Encoding: 91 91 58
Width: 1075
VWidth: 1947
GlyphClass: 2
Flags: W
HStem: -185 210<515 860> 1375 210<515 860>
VStem: 305 555<-185 25 1375 1585> 305 210<25 1375>
LayerCount: 2
Fore
SplineSet
515 1375 m 1xd0
 515 25 l 1xd0
 860 25 l 1
 860 -185 l 1
 305 -185 l 1
 305 1585 l 1
 860 1585 l 1
 860 1375 l 1xe0
 515 1375 l 1xd0
EndSplineSet
Validated: 3073
EndChar

StartChar: backslash
Encoding: 92 92 59
Width: 1075
VWidth: 1708
GlyphClass: 2
Flags: W
LayerCount: 2
Fore
SplineSet
119 1382 m 1
 311 1468 l 1
 956 18 l 1
 764 -68 l 1
 119 1382 l 1
EndSplineSet
Validated: 3073
EndChar

StartChar: bracketright
Encoding: 93 93 60
Width: 1075
VWidth: 1947
GlyphClass: 2
Flags: W
HStem: -185 210<215 561> 1375 210<215 561>
VStem: 215 556<-185 25 1375 1585> 561 210<25 1375>
LayerCount: 2
Fore
SplineSet
215 1585 m 1xe0
 771 1585 l 1
 771 -185 l 1
 215 -185 l 1
 215 25 l 1xe0
 561 25 l 1
 561 1375 l 1xd0
 215 1375 l 1
 215 1585 l 1xe0
EndSplineSet
Validated: 3073
EndChar

StartChar: asciicircum
Encoding: 94 94 61
Width: 1075
VWidth: 1947
GlyphClass: 2
Flags: W
HStem: 897 528
LayerCount: 2
Fore
SplineSet
616 1425 m 1
 903 1017 l 1
 731 897 l 1
 538 1171 l 1
 345 897 l 1
 173 1017 l 1
 460 1425 l 1
 616 1425 l 1
EndSplineSet
Validated: 3073
EndChar

StartChar: underscore
Encoding: 95 95 62
Width: 1075
VWidth: 1947
GlyphClass: 2
Flags: W
HStem: -197 210<167 909>
LayerCount: 2
Fore
SplineSet
909 13 m 1
 909 -197 l 1
 167 -197 l 1
 167 13 l 1
 909 13 l 1
EndSplineSet
Validated: 3073
EndChar

StartChar: grave
Encoding: 96 96 63
Width: 1075
VWidth: 1708
GlyphClass: 2
Flags: W
HStem: 972 491
VStem: 291 492
LayerCount: 2
Fore
SplineSet
764 1139 m 2
 778 1123 783 1100 783 1076 c 3
 783 1048 775 1019 757 1000 c 0
 736 980 707 972 681 972 c 3
 655 972 632 979 616 991 c 2
 343 1214 l 2
 312 1239 291 1282 291 1329 c 3
 291 1364 302 1399 328 1425 c 0
 354 1451 390 1463 424 1463 c 3
 471 1463 515 1440 541 1411 c 2
 764 1139 l 2
EndSplineSet
Validated: 3073
EndChar

StartChar: a
Encoding: 97 97 64
Width: 1075
VWidth: 1947
GlyphClass: 2
Flags: W
HStem: -25 210<365.5 682.117> 0 21G<755 965> 456 210<377.125 755> 839 210<355.62 715.615>
VStem: 110 210<230.825 404.078> 755 210<0 36 252.232 456 666 799.311>
LayerCount: 2
Fore
SplineSet
548 185 m 2xbc
 689 185 755 300 755 329 c 2
 755 456 l 1
 528 456 l 2
 453 456 380 437 336 374 c 0
 323 355 320 343 320 337 c 2
 320 291 l 2
 320 266 372 185 528 185 c 2
 548 185 l 2xbc
148 868 m 1
 174 912 230 1049 528 1049 c 2
 548 1049 l 2
 708 1049 965 1024 965 687 c 2
 965 -0 l 1
 755 0 l 1x7c
 755 36 l 1
 648 -25 548 -25 548 -25 c 2
 528 -25 l 2
 331 -25 230 66 199 96 c 0
 113 181 110 260 110 291 c 2
 110 337 l 2
 110 400 137 455 164 494 c 0
 284 666 491 666 528 666 c 2
 755 666 l 1
 755 687 l 2
 755 828 669 834 548 839 c 2
 528 839 l 2
 369 839 347 796 336 776 c 1
 148 868 l 1
EndSplineSet
Validated: 3073
EndChar

StartChar: b
Encoding: 98 98 65
Width: 1075
VWidth: 2334
GlyphClass: 2
Flags: W
HStem: -25 210<396.57 691.42> 0 21G<110 320> 839 210<384.662 691.42> 1380 20G<110 320>
VStem: 110 210<0 27 266.024 774.75 1005 1400> 755 210<252.615 769.783>
LayerCount: 2
Fore
SplineSet
320 427 m 2xbc
 320 266 406 185 528 185 c 2
 548 185 l 2
 673 185 755 234 755 427 c 2
 755 597 l 2
 755 788 673 839 548 839 c 2
 528 839 l 2
 403 839 320 788 320 597 c 2
 320 427 l 2xbc
528 1049 m 2
 548 1049 l 2
 805 1049 965 890 965 597 c 2
 965 427 l 2
 965 130 804 -25 548 -25 c 2
 528 -25 l 2xbc
 453 -25 382 -7 320 27 c 1
 320 -0 l 1
 110 0 l 1x7c
 110 1400 l 1
 320 1400 l 1
 320 1005 l 1
 379 1034 449 1049 528 1049 c 2
EndSplineSet
Validated: 3073
EndChar

StartChar: c
Encoding: 99 99 66
Width: 1075
VWidth: 2334
GlyphClass: 2
Flags: W
HStem: -25 210<396.201 726.903> 838 210<384.205 719.119>
VStem: 110 210<266.023 770.061>
LayerCount: 2
Fore
SplineSet
744 763 m 1
 733 789 717 838 548 838 c 2
 528 838 l 2
 403 838 320 788 320 597 c 2
 320 427 l 2
 320 267 405 185 528 185 c 2
 548 185 l 2
 670 185 726 206 744 257 c 1
 940 183 l 1
 861 -25 639 -25 548 -25 c 2
 528 -25 l 2
 303 -25 110 136 110 427 c 2
 110 597 l 2
 110 891 272 1048 528 1048 c 2
 548 1048 l 2
 863 1048 912 900 942 833 c 1
 744 763 l 1
EndSplineSet
Validated: 3073
EndChar

StartChar: d
Encoding: 100 100 67
Width: 1075
VWidth: 1947
GlyphClass: 2
Flags: W
HStem: -25 210<396.57 691.42> 0 21G<755 965> 839 210<384.205 691.42> 1380 20G<755 965>
VStem: 110 210<266.024 770.184> 755 210<0 19 248.42 774.75 1005 1400>
LayerCount: 2
Fore
SplineSet
320 597 m 2xbc
 320 427 l 2
 320 266 406 185 528 185 c 2
 548 185 l 2
 673 185 755 234 755 427 c 2
 755 597 l 2
 755 788 673 839 548 839 c 2
 528 839 l 2
 403 839 320 788 320 597 c 2xbc
528 1049 m 2
 548 1049 l 2
 627 1049 696 1034 755 1005 c 1
 755 1400 l 1
 965 1400 l 1
 965 -0 l 1
 755 0 l 1x7c
 755 19 l 1
 696 -10 627 -25 548 -25 c 2
 528 -25 l 2
 302 -25 110 136 110 427 c 2
 110 597 l 2
 110 891 272 1049 528 1049 c 2
EndSplineSet
Validated: 3073
EndChar

StartChar: e
Encoding: 101 101 68
Width: 1075
VWidth: 1947
GlyphClass: 2
Flags: W
HStem: -25 210<354.022 723.263> 456 210<320 755> 839 210<355.228 712.849>
VStem: 110 210<218.4 456 666 804.977> 755 210<666 794.888>
LayerCount: 2
Fore
SplineSet
548 1049 m 2
 960 1049 965 741 965 687 c 2
 965 456 l 1
 320 456 l 1
 320 337 l 2
 320 249 336 185 528 185 c 2
 548 185 l 2
 682 185 730 213 746 265 c 1
 946 203 l 1
 882 -12 630 -25 548 -25 c 2
 528 -25 l 2
 194 -25 110 150 110 337 c 2
 110 687 l 2
 110 830 164 939 284 1000 c 0
 370 1043 450 1049 528 1049 c 2
 548 1049 l 2
528 839 m 2
 411 839 320 828 320 687 c 2
 320 666 l 1
 755 666 l 1
 755 687 l 2
 755 747 747 839 548 839 c 2
 528 839 l 2
EndSplineSet
Validated: 3073
EndChar

StartChar: f
Encoding: 102 102 69
Width: 1075
VWidth: 1947
GlyphClass: 2
Flags: W
HStem: 0 21G<319 529> 719 210<109 319 529 860> 1215 210<539.616 747.029>
VStem: 319 210<0 719 929 1198.56>
LayerCount: 2
Fore
SplineSet
755 1153 m 1
 748 1196 692 1215 652 1215 c 2
 632 1215 l 2
 544 1215 529 1157 529 1152 c 2
 529 929 l 1
 860 929 l 1
 860 719 l 1
 529 719 l 1
 529 -0 l 1
 319 0 l 1
 319 719 l 1
 109 719 l 1
 109 929 l 1
 319 929 l 1
 319 1152 l 2
 319 1296 461 1425 632 1425 c 2
 652 1425 l 2
 731 1425 932 1399 965 1153 c 1
 755 1153 l 1
EndSplineSet
Validated: 3073
EndChar

StartChar: g
Encoding: 103 103 70
Width: 1075
VWidth: 1947
GlyphClass: 2
Flags: W
HStem: -414 210<368.314 708.021> 10 210<373.991 691.048> 286 210<384.404 677.364> 839 210<394.823 697.149>
VStem: 110 210<-156.553 -40.1283 192.365 324.649 559.096 773.204> 755 210<-159.635 -46.8203 573.044 785.254>
LayerCount: 2
Fore
SplineSet
548 -204 m 2
 654 -204 755 -148 755 -107 c 2
 755 -91 l 2
 755 -78 695 0 548 10 c 2
 528 10 l 2
 413 10 320 -64 320 -87 c 2
 320 -107 l 2
 320 -126 373 -196 528 -204 c 2
 548 -204 l 2
920 843 m 1
 953 790 965 734 965 687 c 2
 965 661 l 2
 965 371 680 286 548 286 c 2
 528 286 l 2
 459 286 399 306 350 327 c 1
 335 310 329 293 329 281 c 2
 329 245 l 2
 329 228 341 206 359 190 c 1
 410 208 468 220 528 220 c 2
 548 220 l 2
 860 220 965 7 965 -87 c 2
 965 -107 l 2
 965 -131 951 -240 850 -317 c 0
 779 -371 669 -414 548 -414 c 2
 528 -414 l 2
 459 -414 327 -399 225 -317 c 0
 157 -262 110 -191 110 -107 c 2
 110 -87 l 2
 110 -67 120 15 179 76 c 1
 143 122 119 181 119 245 c 2
 119 281 l 2
 119 349 148 411 184 456 c 1
 126 540 110 637 110 661 c 2
 110 687 l 2
 110 723 121 774 141 818 c 0
 204 956 369 1049 528 1049 c 2
 549 1049 l 2
 562 1049 666 1047 768 991 c 1
 819 1036 885 1064 955 1064 c 1
 955 854 l 1
 945 854 933 850 920 843 c 1
528 496 m 2
 548 496 l 2
 626 496 755 554 755 661 c 2
 755 687 l 2
 755 783 661 839 548 839 c 2
 528 839 l 2
 436 839 320 771 320 687 c 2
 320 653 l 2
 320 630 351 496 528 496 c 2
EndSplineSet
Validated: 3073
EndChar

StartChar: h
Encoding: 104 104 71
Width: 1075
VWidth: 2334
GlyphClass: 2
Flags: W
HStem: 0 21G<110 320 755 965> 839 210<423.792 697.394> 1380 20G<110 320>
VStem: 110 210<0 723.712 981 1400> 755 210<0 780.335>
LayerCount: 2
Fore
SplineSet
755 687 m 2
 755 746 705 839 548 839 c 2
 528 839 l 2
 409 839 320 677 320 597 c 2
 320 -0 l 1
 110 0 l 1
 110 1400 l 1
 320 1400 l 1
 320 981 l 1
 380 1023 450 1049 528 1049 c 2
 548 1049 l 2
 963 1049 965 741 965 687 c 2
 965 0 l 1
 755 -0 l 1
 755 687 l 2
EndSplineSet
Validated: 3073
EndChar

StartChar: k
Encoding: 107 107 74
Width: 1075
VWidth: 1947
GlyphClass: 2
Flags: W
HStem: 0 21G<110 320 722.579 988> 1405 20G<110 320>
VStem: 110 210<0 340 645 1425>
LayerCount: 2
Fore
SplineSet
110 0 m 1
 110 1425 l 1
 320 1425 l 1
 320 645 l 1
 784 1135 l 1
 936 991 l 1
 578 613 l 1
 988 0 l 1
 736 0 l 1
 430 456 l 1
 320 340 l 1
 320 -0 l 1
 110 0 l 1
EndSplineSet
Validated: 3073
EndChar

StartChar: l
Encoding: 108 108 75
Width: 1075
VWidth: 1947
GlyphClass: 2
Flags: W
HStem: 0 210<215 433 643 860> 1190 210<215 433>
VStem: 433 210<210 1190>
LayerCount: 2
Fore
SplineSet
215 1400 m 1
 643 1400 l 1
 643 210 l 1
 860 210 l 1
 860 0 l 1
 215 0 l 1
 215 210 l 1
 433 210 l 1
 433 1190 l 1
 215 1190 l 1
 215 1400 l 1
EndSplineSet
Validated: 3073
EndChar

StartChar: m
Encoding: 109 109 76
Width: 1075
VWidth: 2334
GlyphClass: 2
Flags: W
HStem: 0 21G<64 274 433 643 802 1012> 839 210<303.125 428.969 672.125 795.789>
VStem: 64 210<0 816.246> 433 210<0 816.246> 802 210<0 838.864>
CounterMasks: 1 38
LayerCount: 2
Fore
SplineSet
370 839 m 2
 299 839 274 738 274 687 c 2
 274 -0 l 1
 64 0 l 1
 64 1024 l 1
 258 1024 l 1
 306 1047 357 1049 370 1049 c 2
 382 1049 l 2
 480 1049 537 1014 567 986 c 1
 610 1040 711 1049 739 1049 c 2
 751 1049 l 2
 1005 1049 1012 876 1012 777 c 2
 1012 0 l 1
 802 -0 l 1
 802 777 l 2
 802 832 789 839 751 839 c 2
 739 839 l 2
 668 839 643 738 643 687 c 2
 643 0 l 1
 433 -0 l 1
 433 777 l 2
 433 837 429 839 382 839 c 2
 370 839 l 2
EndSplineSet
Validated: 3073
EndChar

StartChar: n
Encoding: 110 110 77
Width: 1075
VWidth: 2334
GlyphClass: 2
Flags: W
HStem: 0 21G<110 320 755 965> 839 210<423.792 711.848> 1004 20G<110 320>
VStem: 110 210<0 723.712 981 1024> 755 210<0 794.888>
LayerCount: 2
Fore
SplineSet
755 687 m 2xd8
 755 746 744 839 548 839 c 2
 528 839 l 2xd8
 409 839 320 677 320 597 c 2
 320 -0 l 1
 110 0 l 1
 110 1024 l 1
 320 1024 l 1xb8
 320 981 l 1
 380 1023 450 1049 528 1049 c 2
 548 1049 l 2
 957 1049 965 741 965 687 c 2
 965 0 l 1
 755 -0 l 1
 755 687 l 2xd8
EndSplineSet
Validated: 3073
EndChar

StartChar: o
Encoding: 111 111 78
Width: 1075
VWidth: 1947
GlyphClass: 2
Flags: W
HStem: -25 210<394.295 682.128> 838 210<393.876 682.128>
VStem: 99 210<276.603 747.504> 767 210<277.248 747.04>
LayerCount: 2
Fore
SplineSet
977 513 m 3
 977 48 714 -25 538 -25 c 3
 362 -25 99 48 99 513 c 3
 99 976 362 1048 538 1048 c 3
 714 1048 977 975 977 513 c 3
538 838 m 3
 392 838 309 768 309 513 c 3
 309 241 404 185 538 185 c 3
 674 185 767 244 767 513 c 3
 767 780 674 838 538 838 c 3
EndSplineSet
Validated: 3073
EndChar

StartChar: p
Encoding: 112 112 79
Width: 1075
VWidth: 1947
GlyphClass: 2
Flags: W
HStem: -385 21G<110 320> -25 210<396.57 691.42> 839 210<384.662 691.42> 1004 20G<110 320>
VStem: 110 210<-385 27 266.024 774.75 1005 1024> 755 210<252.615 769.783>
LayerCount: 2
Fore
SplineSet
320 427 m 2xec
 320 266 406 185 528 185 c 2
 548 185 l 2
 673 185 755 234 755 427 c 2
 755 597 l 2
 755 788 673 839 548 839 c 2
 528 839 l 2
 403 839 320 788 320 597 c 2
 320 427 l 2xec
320 -385 m 1
 110 -385 l 1
 110 1024 l 1
 320 1024 l 1xdc
 320 1005 l 1
 379 1034 449 1049 528 1049 c 2
 548 1049 l 2
 805 1049 965 890 965 597 c 2
 965 427 l 2
 965 130 804 -25 548 -25 c 2
 528 -25 l 2
 453 -25 382 -7 320 27 c 1
 320 -385 l 1
EndSplineSet
Validated: 3073
EndChar

StartChar: q
Encoding: 113 113 80
Width: 1075
VWidth: 1947
GlyphClass: 2
Flags: W
HStem: -385 21G<755 965> -25 210<396.57 691.42> 839 210<384.205 691.42> 1004 20G<755 965>
VStem: 110 210<266.024 770.184> 755 210<-385 19 248.42 774.75 1005 1024>
LayerCount: 2
Fore
SplineSet
320 597 m 2xec
 320 427 l 2
 320 266 406 185 528 185 c 2
 548 185 l 2
 673 185 755 234 755 427 c 2
 755 597 l 2
 755 788 673 839 548 839 c 2
 528 839 l 2
 403 839 320 788 320 597 c 2xec
528 1049 m 2
 548 1049 l 2xec
 627 1049 696 1034 755 1005 c 1
 755 1024 l 1
 965 1024 l 1xdc
 965 -385 l 1
 755 -385 l 1
 755 19 l 1
 696 -10 627 -25 548 -25 c 2
 528 -25 l 2
 302 -25 110 136 110 427 c 2
 110 597 l 2
 110 891 272 1049 528 1049 c 2
EndSplineSet
Validated: 3073
EndChar

StartChar: r
Encoding: 114 114 81
Width: 1075
VWidth: 1947
GlyphClass: 2
Flags: W
HStem: -0 21G<110 320> 839 210<490.075 764> 1004 20G<110 320>
VStem: 110 210<0 638.656 929 1024>
LayerCount: 2
Fore
SplineSet
777 780 m 1xd0
 768 793 728 839 629 839 c 2
 609 839 l 2xd0
 464 839 320 640 320 470 c 2
 320 -0 l 1
 110 -0 l 1
 110 1024 l 1
 320 1024 l 1xb0
 320 929 l 1
 402 1002 501 1049 609 1049 c 2
 629 1049 l 2
 837 1049 926 933 959 884 c 1
 777 780 l 1xd0
EndSplineSet
Validated: 3073
EndChar

StartChar: s
Encoding: 115 115 82
Width: 1075
VWidth: 1947
GlyphClass: 2
Flags: W
HStem: -25 210<356.296 721.398> 839 210<337.471 687.825>
VStem: 76 210<250.109 337> 110 210<720.729 818.91> 755 210<220.449 353.996 687 768.94>
LayerCount: 2
Fore
SplineSet
548 839 m 2xd8
 528 839 l 2
 333 839 320 800 320 757 c 2
 320 746 l 2xd8
 320 739 340 729 357 723 c 2
 793 548 l 2
 906 502 965 408 965 301 c 2
 965 287 l 2
 965 266 954 118 805 36 c 0
 738 -1 651 -25 548 -25 c 2
 493 -25 l 2
 302 -25 76 120 76 337 c 1
 286 337 l 1xe8
 286 284 354 185 493 185 c 2
 548 185 l 2
 629 185 755 209 755 287 c 2
 755 301 l 2
 755 321 748 340 715 354 c 2
 283 527 l 2
 121 592 110 726 110 745 c 2
 110 757 l 2
 110 808 120 981 348 1033 c 0
 418 1049 490 1049 528 1049 c 2
 548 1049 l 2
 641 1049 934 1003 965 687 c 1
 755 687 l 1
 739 806 613 839 548 839 c 2xd8
EndSplineSet
Validated: 3073
EndChar

StartChar: t
Encoding: 116 116 83
Width: 1075
VWidth: 1947
GlyphClass: 2
Flags: W
HStem: -25 210<515.881 722.714> 798 210<109 327 549 860> 1405 20G<361.849 574>
VStem: 295 210<196.984 491.088>
LayerCount: 2
Fore
SplineSet
629 185 m 2
 677 185 728 212 732 247 c 1
 942 247 l 1
 934 189 939 185 913 133 c 0
 913 133 831 -25 629 -25 c 2
 609 -25 l 2
 489 -25 295 55 295 238 c 3
 295 243 295 249 295 254 c 2
 327 798 l 1
 109 798 l 1
 109 1008 l 1
 339 1008 l 1
 363 1425 l 1
 574 1425 l 1
 549 1008 l 1
 860 1008 l 1
 860 798 l 1
 537 798 l 1
 505 242 l 2
 505 241 519 185 609 185 c 2
 629 185 l 2
EndSplineSet
Validated: 3073
EndChar

StartChar: u
Encoding: 117 117 84
Width: 1075
VWidth: 2334
GlyphClass: 2
Flags: W
HStem: -25 210<349 628.54> -0 21G<755 965> 1004 20G<110 320 755 965>
VStem: 110 210<217.578 1024> 755 210<0 61 327.627 1024>
LayerCount: 2
Fore
SplineSet
320 337 m 2xb8
 320 249 336 185 504 185 c 2
 525 185 l 2xb8
 641 185 755 364 755 447 c 2
 755 1024 l 1
 965 1024 l 1
 965 0 l 1
 755 -0 l 1x78
 755 61 l 1
 688 9 610 -25 525 -25 c 2
 504 -25 l 2
 150 -25 110 188 110 337 c 2
 110 1024 l 1
 320 1024 l 1
 320 337 l 2xb8
EndSplineSet
Validated: 3073
EndChar

StartChar: v
Encoding: 118 118 85
Width: 1075
VWidth: 1947
GlyphClass: 2
Flags: W
HStem: -25 21G<456.946 619.073> 1004 20G<94 324.038 752.93 983>
LayerCount: 2
Fore
SplineSet
464 -25 m 1
 94 1024 l 1
 317 1024 l 1
 538 396 l 1
 760 1024 l 1
 983 1024 l 1
 612 -25 l 1
 464 -25 l 1
EndSplineSet
Validated: 3073
EndChar

StartChar: w
Encoding: 119 119 86
Width: 1075
VWidth: 1947
GlyphClass: 2
Flags: W
HStem: 0 21G<143.539 317.327 758.673 932.461> 1004 20G<20 233.495 842.5 1056>
LayerCount: 2
Fore
SplineSet
146 0 m 1
 20 1024 l 1
 231 1024 l 1
 295 511 l 1
 464 919 l 1
 612 919 l 1
 781 512 l 1
 845 1024 l 1
 1056 1024 l 1
 930 0 l 1
 767 0 l 1
 538 550 l 1
 309 0 l 1
 146 0 l 1
EndSplineSet
Validated: 3073
EndChar

StartChar: x
Encoding: 120 120 87
Width: 1075
VWidth: 1947
GlyphClass: 2
Flags: W
HStem: 0 21G<91 352.571 723.429 984> 1004 20G<91 352.571 723.429 985>
LayerCount: 2
Fore
SplineSet
91 0 m 1
 414 512 l 1
 91 1024 l 1
 340 1024 l 1
 538 709 l 1
 736 1024 l 1
 985 1024 l 1
 662 512 l 1
 984 0 l 1
 736 0 l 1
 538 315 l 1
 340 0 l 1
 91 0 l 1
EndSplineSet
Validated: 3073
EndChar

StartChar: y
Encoding: 121 121 88
Width: 1075
VWidth: 1947
GlyphClass: 2
Flags: W
HStem: -399 210<283.153 462.349> 1004 20G<97 339.784 780.66 1003>
LayerCount: 2
Fore
SplineSet
380 -189 m 3
 440 -189 476 -141 491 -83 c 2
 542 111 l 1
 97 1024 l 1
 330 1024 l 1
 625 421 l 1
 786 1024 l 1
 1003 1024 l 1
 693 -137 l 2
 642 -328 508 -399 374 -399 c 3
 317 -399 232 -397 132 -284 c 0
 93 -238 66 -177 62 -110 c 1
 272 -110 l 1
 272 -157 324 -189 380 -189 c 3
EndSplineSet
Validated: 3073
EndChar

StartChar: z
Encoding: 122 122 89
Width: 1075
VWidth: 1947
GlyphClass: 2
Flags: W
HStem: 0 210<432 973> 814 210<167 643>
LayerCount: 2
Fore
SplineSet
106 136 m 1
 643 814 l 1
 167 814 l 1
 167 1024 l 1
 973 1024 l 1
 973 893 l 1
 432 210 l 1
 973 210 l 1
 973 0 l 1
 106 0 l 1
 106 136 l 1
EndSplineSet
Validated: 3073
EndChar

StartChar: braceleft
Encoding: 123 123 90
Width: 1075
VWidth: 1947
GlyphClass: 2
Flags: W
HStem: -185 210<585.526 817> 595 210<167 285.086> 1375 210<584.783 817>
VStem: 322 210<77.7834 559.621 835.245 1321.47>
CounterMasks: 1 e0
LayerCount: 2
Fore
SplineSet
197 805 m 2
 297 805 322 896 322 970 c 2
 322 1210 l 2
 322 1417 488 1585 697 1585 c 2
 817 1585 l 1
 817 1375 l 1
 697 1375 l 2
 606 1375 532 1303 532 1210 c 2
 532 970 l 2
 532 917 526 800 437 700 c 1
 507 621 532 518 532 430 c 2
 532 190 l 2
 532 99 604 25 697 25 c 2
 817 25 l 1
 817 -185 l 1
 697 -185 l 2
 490 -185 322 -19 322 190 c 2
 322 430 l 2
 322 591 207 595 197 595 c 2
 167 595 l 1
 167 805 l 1
 197 805 l 2
EndSplineSet
Validated: 3073
EndChar

StartChar: bar
Encoding: 124 124 91
Width: 1075
VWidth: 1947
GlyphClass: 2
Flags: W
VStem: 433 210<-77 1477>
LayerCount: 2
Fore
SplineSet
433 1477 m 1
 643 1477 l 1
 643 -77 l 1
 433 -77 l 1
 433 1477 l 1
EndSplineSet
Validated: 3073
EndChar

StartChar: braceright
Encoding: 125 125 92
Width: 1075
VWidth: 1947
GlyphClass: 2
Flags: W
HStem: -185 210<167 398.474> 595 210<694.629 817> 1375 210<167 399.217>
VStem: 452 210<77.7834 563.359 835.245 1321.47>
CounterMasks: 1 e0
LayerCount: 2
Fore
SplineSet
662 970 m 2
 662 896 687 805 787 805 c 2
 817 805 l 1
 817 595 l 1
 787 595 l 2
 690 595 662 508 662 430 c 2
 662 190 l 2
 662 -19 494 -185 287 -185 c 2
 167 -185 l 1
 167 25 l 1
 287 25 l 2
 380 25 452 99 452 190 c 2
 452 430 l 2
 452 518 477 621 547 700 c 1
 458 800 452 917 452 970 c 2
 452 1210 l 2
 452 1303 378 1375 287 1375 c 2
 167 1375 l 1
 167 1585 l 1
 287 1585 l 2
 496 1585 662 1417 662 1210 c 2
 662 970 l 2
EndSplineSet
Validated: 3073
EndChar

StartChar: asciitilde
Encoding: 126 126 93
Width: 1075
VWidth: 1947
GlyphClass: 2
Flags: W
HStem: 696 210<627.034 733.083> 872 210<341.632 450.156>
LayerCount: 2
Fore
SplineSet
384 872 m 2x40
 369 872 346 854 317 771 c 1
 115 829 l 1
 133 881 143 909 174 954 c 0
 227 1030 306 1082 394 1082 c 2
 409 1082 l 2x40
 446 1082 497 1079 568 1008 c 2
 661 915 l 2
 664 913 676 906 682 906 c 2
 692 906 l 2
 710 908 738 942 761 1010 c 1
 961 944 l 1
 946 897 923 852 892 812 c 0
 804 698 712 696 685 696 c 0
 682 696 l 2
 667 696 l 2x80
 584 696 533 746 513 766 c 2
 420 859 l 2
 413 866 398 872 394 872 c 2
 384 872 l 2x40
EndSplineSet
Validated: 3073
EndChar

StartChar: cent
Encoding: 162 162 96
Width: 1075
VWidth: 2334
GlyphClass: 2
Flags: W
HStem: -25 212<605 727.157> 838 210<384.205 526>
VStem: 110 210<265.395 770.061>
LayerCount: 2
Fore
SplineSet
398 227 m 1
 526 838 l 1
 402 838 320 787 320 597 c 2
 320 427 l 2
 320 333 349 266 398 227 c 1
605 187 m 1
 715 195 736 236 744 257 c 1
 940 183 l 1
 869 -3 694 -21 560 -25 c 1
 538 -132 l 1
 332 -88 l 1
 353 11 l 1
 211 73 110 216 110 427 c 2
 110 597 l 2
 110 891 272 1048 528 1048 c 0
 542 1048 556 1048 570 1048 c 1
 606 1219 l 1
 812 1175 l 1
 777 1009 l 1
 898 957 927 868 942 833 c 1
 744 763 l 1
 740 771 737 780 731 789 c 1
 605 187 l 1
EndSplineSet
Validated: 3073
EndChar

StartChar: sterling
Encoding: 163 163 97
Width: 1075
VWidth: 1947
GlyphClass: 2
Flags: W
HStem: -25 210<593.058 879.947> 51 210<470 582> 594 210<86 180 520 837> 1215 210<390.744 692.082>
VStem: 110 209<907.435 1148.16> 319 210<346.637 592.643> 755 210<1068.18 1153.01>
LayerCount: 2
Fore
SplineSet
755 1057 m 1xbe
 749 1148 663 1215 548 1215 c 2
 528 1215 l 2
 378 1215 319 1104 319 1063 c 2
 319 1024 l 2
 319 1002 330 966 358 916 c 2
 423 804 l 1
 837 804 l 1
 837 594 l 1
 520 594 l 1
 525 569 529 543 529 516 c 2
 529 470 l 2
 529 393 506 323 470 261 c 1x7e
 511 260 554 245 602 226 c 2
 666 201 l 2
 680 195 709 185 722 185 c 2
 755 185 l 2
 823 185 865 208 870 212 c 2
 870 212 879 219 880 220 c 1
 1030 74 l 1
 1012 57 l 2
 972 19 918 -25 755 -25 c 2
 704 -25 l 18xbe
 678 -25 653 -22 597 0 c 2
 517 34 l 2
 494 44 471 51 457 51 c 2
 424 51 l 2x7e
 322 51 290 51 198 0 c 2
 161 -25 l 1
 57 159 l 1
 94 180 l 2
 189 234 319 354 319 470 c 2
 319 516 l 2
 319 539 313 565 300 594 c 1
 86 594 l 1
 86 804 l 1
 180 804 l 1
 153 857 110 926 110 1024 c 2
 110 1063 l 2
 110 1280 336 1425 528 1425 c 2
 548 1425 l 2
 687 1425 816 1371 894 1262 c 1
 936 1207 961 1140 965 1069 c 1
 755 1057 l 1xbe
EndSplineSet
Validated: 3073
EndChar

StartChar: euro
Encoding: 8364 8364 98
Width: 1075
VWidth: 1947
GlyphClass: 2
Flags: W
HStem: -25 210<517.641 787.186> 460 210<74 199 416 714> 770 210<109 199 417 864> 1215 210<507.545 786.603>
VStem: 199 210<317.73 460 670 770 980 1098.4>
LayerCount: 2
Fore
SplineSet
109 770 m 1
 109 980 l 1
 206 980 l 1
 236 1224 364 1425 634 1425 c 0
 789 1425 922 1368 991 1255 c 1
 811 1145 l 1
 779 1197 705 1215 634 1215 c 0
 492 1215 436 1102 417 980 c 1
 864 980 l 1
 864 770 l 1
 409 770 l 1
 409 670 l 1
 714 670 l 1
 714 460 l 1
 416 460 l 1
 437 296 506 185 634 185 c 0
 709 185 779 205 811 258 c 1
 991 150 l 1
 914 24 772 -25 634 -25 c 0
 341 -25 231 223 205 460 c 1
 74 460 l 1
 74 670 l 1
 199 670 l 1
 199 770 l 1
 109 770 l 1
EndSplineSet
Validated: 3073
EndChar

StartChar: yen
Encoding: 165 165 99
Width: 1075
VWidth: 1947
GlyphClass: 2
Flags: W
HStem: 50 210<109 433 643 967> 407 210<109 386 690 967> 1380 20G<87 319.635 756.365 989>
VStem: 433 210<-160 50 260 407>
LayerCount: 2
Fore
SplineSet
967 617 m 1
 967 407 l 1
 643 407 l 1
 643 260 l 1
 967 260 l 1
 967 50 l 1
 643 50 l 1
 643 -160 l 1
 433 -160 l 1
 433 50 l 1
 109 50 l 1
 109 260 l 1
 433 260 l 1
 433 407 l 1
 109 407 l 1
 109 617 l 1
 386 617 l 1
 87 1400 l 1
 312 1400 l 1
 538 808 l 1
 764 1400 l 1
 989 1400 l 1
 690 617 l 1
 967 617 l 1
EndSplineSet
Validated: 3073
EndChar

StartChar: section
Encoding: 167 167 101
Width: 1075
VWidth: 1947
GlyphClass: 2
Flags: W
HStem: -199 210<454.766 693.563> 310 210<372.203 680.625> 863 210<404.18 701.739> 1385 210<372.919 619.469>
VStem: 110 210<567.375 810.375 1148.54 1332.24> 755 210<67.9769 242.424 587.013 806.658>
LayerCount: 2
Fore
SplineSet
548 863 m 2
 528 863 l 2
 396 863 320 798 320 711 c 2
 320 677 l 2
 320 594 366 520 528 520 c 2
 548 520 l 2
 626 520 755 578 755 685 c 2
 755 711 l 2
 755 784 699 863 548 863 c 2
548 1073 m 2
 739 1073 965 990 965 711 c 2
 965 685 l 2
 965 652 951 522 829 415 c 1
 948 315 965 191 965 172 c 2
 965 149 l 2
 965 -51 767 -199 580 -199 c 2
 561 -199 l 2
 419 -199 271 -101 206 33 c 1
 394 125 l 1
 421 69 494 11 561 11 c 2
 580 11 l 2
 710 21 755 112 755 149 c 2
 755 172 l 2
 755 240 626 310 547 310 c 2
 528 310 l 2
 267 310 110 432 110 685 c 2
 110 711 l 2
 111 724 126 876 247 972 c 1
 123 1068 110 1176 110 1224 c 2
 110 1247 l 2
 110 1434 305 1595 496 1595 c 2
 515 1595 l 2
 655 1595 799 1497 865 1371 c 1
 679 1273 l 1
 652 1324 581 1385 515 1385 c 2
 496 1385 l 2
 372 1385 320 1286 320 1247 c 2
 320 1224 l 2
 320 1161 441 1073 529 1073 c 2
 548 1073 l 2
EndSplineSet
Validated: 3073
EndChar

StartChar: copyright
Encoding: 169 169 103
Width: 1075
VWidth: 1947
GlyphClass: 2
Flags: W
HStem: 76 150<346.258 731.37> 305 150<423.366 676.851> 761 150<424.56 678.531> 990 150<347.886 731.424>
VStem: 5 150<415.631 799.694> 234 150<496.012 721.355> 921 150<419.024 802.163>
LayerCount: 2
Fore
SplineSet
1071 609 m 0
 1071 331 882 76 538 76 c 0
 199 76 5 321 5 609 c 0
 5 902 204 1140 538 1140 c 0
 880 1140 1071 898 1071 609 c 0
538 990 m 0
 282 990 155 813 155 609 c 0
 155 408 279 226 538 226 c 0
 800 226 921 414 921 609 c 0
 921 810 802 990 538 990 c 0
538 305 m 0
 348 305 234 443 234 608 c 0
 234 778 353 911 538 911 c 0
 672 911 739 846 761 823 c 1
 651 720 l 1
 621 751 578 761 538 761 c 0
 429 761 384 689 384 608 c 0
 384 529 428 455 538 455 c 0
 578 455 622 466 652 498 c 1
 762 396 l 1
 743 376 672 305 538 305 c 0
EndSplineSet
Validated: 3073
EndChar

StartChar: ordfeminine
Encoding: 170 170 104
Width: 1075
VWidth: 1947
GlyphClass: 2
Flags: W
HStem: 214 210<109 967> 488 210<393.156 657.284> 908 210<398.678 707> 1232 210<381.564 691.946>
VStem: 159 210<729.887 875.314> 707 210<747.25 908 1118 1208.84>
LayerCount: 2
Fore
SplineSet
967 424 m 1
 967 214 l 1
 109 214 l 1
 109 424 l 1
 967 424 l 1
547 698 m 2
 651 698 697 790 707 816 c 1
 707 908 l 1
 529 908 l 2
 392 908 369 826 369 823 c 2
 369 784 l 2
 369 756 421 698 529 698 c 2
 547 698 l 2
193 1281 m 1
 228 1337 276 1442 529 1442 c 2
 547 1442 l 2
 601 1442 621 1441 668 1431 c 0
 843 1394 917 1273 917 1120 c 2
 917 536 l 1
 715 536 l 1
 632 491 547 488 547 488 c 2
 529 488 l 2
 392 488 313 536 261 580 c 0
 170 657 159 769 159 784 c 2
 159 823 l 2
 159 940 270 1118 529 1118 c 2
 707 1118 l 1
 707 1132 l 2
 707 1212 656 1227 547 1232 c 2
 529 1232 l 2
 406 1232 393 1207 381 1189 c 1
 193 1281 l 1
EndSplineSet
Validated: 3073
EndChar

StartChar: guillemotleft
Encoding: 171 171 105
Width: 1075
VWidth: 1947
GlyphClass: 2
Flags: W
LayerCount: 2
Fore
SplineSet
762 98 m 1
 564 393 l 1
 564 544 l 1
 762 840 l 1
 936 724 l 1
 774 480 l 1
 774 457 l 1
 936 214 l 1
 762 98 l 1
342 98 m 1
 144 393 l 1
 144 544 l 1
 342 840 l 1
 516 724 l 1
 354 480 l 1
 354 457 l 1
 516 214 l 1
 342 98 l 1
EndSplineSet
Validated: 3073
EndChar

StartChar: logicalnot
Encoding: 172 172 106
Width: 1075
VWidth: 1708
GlyphClass: 2
Flags: W
HStem: 495 210<127 712>
VStem: 712 210<246 495>
LayerCount: 2
Fore
SplineSet
127 705 m 1
 922 705 l 1
 922 246 l 1
 712 246 l 1
 712 495 l 1
 127 495 l 1
 127 705 l 1
EndSplineSet
Validated: 3073
EndChar

StartChar: softhyphen
Encoding: 173 173 107
Width: 1075
VWidth: 1947
GlyphClass: 2
Flags: W
HStem: 495 210<299 777>
VStem: 299 478<495 705>
LayerCount: 2
Fore
SplineSet
777 705 m 1
 777 495 l 1
 299 495 l 1
 299 705 l 1
 777 705 l 1
EndSplineSet
Validated: 3073
EndChar

StartChar: registered
Encoding: 174 174 108
Width: 1075
VWidth: 1947
GlyphClass: 2
Flags: W
HStem: 76 150<346.258 731.37> 524 150<466 520> 760 150<466 634.664> 990 150<347.886 731.424>
VStem: 5 150<415.631 799.694> 316 150<339 524 674 760> 635 150<676.925 757.74> 921 150<419.024 802.163>
LayerCount: 2
Fore
SplineSet
555 910 m 2
 771 910 785 781 785 742 c 2
 785 701 l 2
 785 625 745 573 682 546 c 1
 786 379 l 1
 658 300 l 1
 520 524 l 1
 466 524 l 1
 466 339 l 1
 316 339 l 1
 316 910 l 1
 555 910 l 2
635 731 m 2
 635 749 627 760 555 760 c 2
 466 760 l 1
 466 674 l 1
 555 674 l 2
 629 674 635 695 635 713 c 2
 635 731 l 2
1071 609 m 0
 1071 331 882 76 538 76 c 0
 199 76 5 321 5 609 c 0
 5 902 204 1140 538 1140 c 0
 880 1140 1071 898 1071 609 c 0
538 990 m 0
 282 990 155 813 155 609 c 0
 155 408 279 226 538 226 c 0
 800 226 921 414 921 609 c 0
 921 810 802 990 538 990 c 0
EndSplineSet
Validated: 3073
EndChar

StartChar: degree
Encoding: 176 176 110
Width: 1075
VWidth: 1947
GlyphClass: 2
Flags: W
HStem: 882 451<398.727 679.014>
VStem: 313 450<967.489 1249.77>
LayerCount: 2
Fore
SplineSet
538 1333 m 0
 687 1333 763 1229 763 1108 c 0
 763 991 687 882 538 882 c 0
 391 882 313 987 313 1108 c 0
 313 1231 393 1333 538 1333 c 0
EndSplineSet
Validated: 3073
EndChar

StartChar: plusminus
Encoding: 177 177 111
Width: 1075
VWidth: 1947
GlyphClass: 2
Flags: W
HStem: 35 210<127 949> 725 210<127 433 643 949>
VStem: 433 210<419 725 935 1241>
LayerCount: 2
Fore
SplineSet
949 245 m 1
 949 35 l 1
 127 35 l 1
 127 245 l 1
 949 245 l 1
949 935 m 1
 949 725 l 1
 643 725 l 1
 643 419 l 1
 433 419 l 1
 433 725 l 1
 127 725 l 1
 127 935 l 1
 433 935 l 1
 433 1241 l 1
 643 1241 l 1
 643 935 l 1
 949 935 l 1
EndSplineSet
Validated: 3073
EndChar

StartChar: twosuperior
Encoding: 178 178 112
Width: 1075
VWidth: 2334
GlyphClass: 2
Flags: W
HStem: 545 210<569 763> 1228 210<491.725 605.826>
VStem: 607 210<1096.25 1221.26>
LayerCount: 2
Fore
SplineSet
554 1438 m 2
 564 1438 l 2
 718 1438 817 1345 817 1185 c 2
 817 1163 l 2
 817 1131 815 1080 746 989 c 2
 569 755 l 1
 763 755 l 1
 763 545 l 1
 307 545 l 1
 307 689 l 1
 322 740 348 812 396 875 c 2
 578 1115 l 2
 599 1143 607 1160 607 1171 c 2
 607 1193 l 2
 607 1214 600 1228 564 1228 c 2
 554 1228 l 2
 523 1228 505 1219 485 1169 c 1
 293 1253 l 1
 340 1364 410 1438 554 1438 c 2
EndSplineSet
Validated: 3073
EndChar

StartChar: threesuperior
Encoding: 179 179 113
Width: 1075
VWidth: 2334
GlyphClass: 2
Flags: W
HStem: 527 210<459.036 610.312> 917 210<433 586.121> 1223 210<461.346 585.838>
VStem: 587 210<1128.97 1220.44> 617 210<746.003 909.044>
LayerCount: 2
Fore
SplineSet
532 1433 m 6xf0
 544 1433 l 6
 732 1433 797 1328 797 1180 c 6
 797 1157 l 6xf0
 797 1114 784 1072 760 1035 c 5
 805 981 827 906 827 824 c 6
 827 813 l 6
 827 687 708 527 544 527 c 6
 532 527 l 6
 384 527 249 628 249 780 c 5
 459 780 l 5
 459 748 508 737 532 737 c 6
 544 737 l 6
 588 737 617 771 617 813 c 6
 617 824 l 6xe8
 617 888 584 917 544 917 c 6
 433 917 l 5
 433 1127 l 5
 545 1127 l 6
 572 1127 587 1152 587 1157 c 6
 587 1180 l 6
 587 1202 580 1223 544 1223 c 6
 532 1223 l 6
 499 1223 468 1205 461 1189 c 5
 270 1275 l 5
 319 1382 435 1433 532 1433 c 6xf0
EndSplineSet
Validated: 3073
EndChar

StartChar: micro
Encoding: 181 181 115
Width: 1075
VWidth: 2334
GlyphClass: 2
Flags: W
HStem: -385 21G<213.027 289> -25 210<385.344 663.853> 1004 20G<110 320 755 965>
VStem: 110 210<-306.348 22 249.74 1024> 755 210<279.21 1024>
LayerCount: 2
Fore
SplineSet
761 40 m 1
 699 0 627 -25 548 -25 c 2
 528 -25 l 2
 449 -25 379 -8 320 22 c 1
 320 -25 l 2
 320 -191 312 -263 266 -385 c 1
 70 -311 l 1
 108 -211 110 -160 110 -25 c 2
 110 1024 l 1
 320 1024 l 1
 320 397 l 2
 320 297 362 185 528 185 c 2
 548 185 l 2
 672 185 755 321 755 397 c 2
 755 1024 l 1
 965 1024 l 1
 965 116 l 2
 965 70 976 42 993 -4 c 1
 797 -76 l 1
 780 -30 768 2 761 40 c 1
EndSplineSet
Validated: 3073
EndChar

StartChar: paragraph
Encoding: 182 182 116
Width: 1075
VWidth: 1947
GlyphClass: 2
Flags: W
HStem: 0 21G<339 549 755 965> 1295 210<549 755>
VStem: 76 473<820.611 1270.86> 339 210<0 647.294> 755 210<0 1295>
LayerCount: 2
Fore
SplineSet
339 633 m 1xd8
 208 667 76 786 76 1057 c 2
 76 1095 l 2xe8
 76 1100 99 1389 304 1478 c 0
 342 1495 382 1505 424 1505 c 2
 965 1505 l 1
 965 0 l 1
 755 -0 l 1
 755 1295 l 1
 549 1295 l 1
 549 -0 l 1
 339 0 l 1
 339 633 l 1xd8
EndSplineSet
Validated: 3073
EndChar

StartChar: periodcentered
Encoding: 183 183 117
Width: 1075
VWidth: 1947
GlyphClass: 2
Flags: W
HStem: 552 390<415.595 660.057>
VStem: 343 389<624.912 869.919>
LayerCount: 2
Fore
SplineSet
732 747 m 3
 732 644 652 552 537 552 c 3
 426 552 343 642 343 747 c 3
 343 849 420 942 537 942 c 3
 651 942 732 852 732 747 c 3
EndSplineSet
Validated: 3073
EndChar

StartChar: onesuperior
Encoding: 185 185 119
Width: 1075
VWidth: 1708
GlyphClass: 2
Flags: W
VStem: 498 210<641 1165>
LayerCount: 2
Fore
SplineSet
498 1165 m 1
 394 1088 l 1
 339 1161 l 1
 549 1465 l 1
 708 1465 l 1
 708 641 l 1
 498 641 l 1
 498 1165 l 1
EndSplineSet
Validated: 3073
EndChar

StartChar: ordmasculine
Encoding: 186 186 120
Width: 1075
VWidth: 1947
GlyphClass: 2
Flags: W
HStem: 214 210<109 967> 493 210<411.574 664.165> 1235 210<417.768 658.39>
VStem: 149 210<763.889 1174.78> 717 210<763.573 1174.48>
LayerCount: 2
Fore
SplineSet
967 424 m 1
 967 214 l 1
 109 214 l 1
 109 424 l 1
 967 424 l 1
927 964 m 3
 927 558 694 493 538 493 c 3
 382 493 149 558 149 964 c 3
 149 1373 382 1445 538 1445 c 3
 694 1445 927 1373 927 964 c 3
538 1235 m 3
 427 1235 359 1178 359 964 c 3
 359 743 432 703 538 703 c 3
 658 703 717 761 717 964 c 3
 717 1197 634 1235 538 1235 c 3
EndSplineSet
Validated: 3073
EndChar

StartChar: guillemotright
Encoding: 187 187 121
Width: 1075
VWidth: 1947
GlyphClass: 2
Flags: W
LayerCount: 2
Fore
SplineSet
302 457 m 1
 302 480 l 1
 140 724 l 1
 314 840 l 1
 512 544 l 1
 512 393 l 1
 314 98 l 1
 140 214 l 1
 302 457 l 1
722 457 m 1
 722 480 l 1
 560 724 l 1
 734 840 l 1
 932 544 l 1
 932 393 l 1
 734 98 l 1
 560 214 l 1
 722 457 l 1
EndSplineSet
Validated: 3073
EndChar

StartChar: OE
Encoding: 338 338 122
Width: 1075
VWidth: 1947
GlyphClass: 2
Flags: W
HStem: 0 210<246.598 487.875 712 954> 627 210<712 876> 1190 210<249.729 483.505 712 954>
VStem: 17 210<228.95 1161.21> 502 374<627 837> 502 210<225.264 627 837 1166.44>
LayerCount: 2
Fore
SplineSet
335 1190 m 2xf4
 292 1190 227 1150 227 1104 c 2
 227 296 l 2
 227 288 235 210 335 210 c 2
 399 210 l 2
 486 210 502 280 502 296 c 2
 502 1104 l 2
 502 1164 407 1189 399 1190 c 2
 335 1190 l 2xf4
17 1104 m 2
 17 1320 142 1400 335 1400 c 2
 399 1400 l 2
 461 1400 452 1398 502 1384 c 1
 502 1400 l 1
 954 1400 l 1
 954 1190 l 1
 712 1190 l 1
 712 837 l 1xf4
 876 837 l 1
 876 627 l 1xf8
 712 627 l 1
 712 210 l 1
 954 210 l 1
 954 0 l 1
 502 0 l 1
 502 16 l 1
 490 12 449 0 399 0 c 2
 335 0 l 2
 36 0 17 189 17 296 c 2
 17 1104 l 2
EndSplineSet
Validated: 3073
EndChar

StartChar: oe
Encoding: 339 339 123
Width: 1075
VWidth: 1947
GlyphClass: 2
Flags: W
HStem: -25 210<231.074 427.67 649.234 841.521> 437 210<643 849> 839 210<232.911 422.451 649.119 843.582>
VStem: 17 210<197.191 827.253> 433 210<197.302 437 647 821.697> 849 210<201.995 251 647 827.817>
CounterMasks: 1 1c
LayerCount: 2
Fore
SplineSet
746 839 m 27
 698 839 643 812 643 773 c 2
 643 647 l 1
 849 647 l 1
 849 773 l 2
 849 826 794 839 746 839 c 27
330 839 m 27
 282 839 227 817 227 773 c 2
 227 251 l 2
 227 198 282 185 330 185 c 3
 394 185 433 215 433 251 c 2
 433 773 l 2
 433 799 378 839 330 839 c 27
17 773 m 2
 17 883 167 1049 330 1049 c 27
 416 1049 448 1049 538 978 c 1
 589 1016 660 1049 746 1049 c 3
 972 1049 1059 883 1059 773 c 2
 1059 437 l 1
 643 437 l 1
 643 251 l 2
 643 214 692 185 746 185 c 3
 794 185 849 216 849 251 c 1
 1059 251 l 1
 1059 98 970 -25 746 -25 c 3
 694 -25 628 -25 538 46 c 1
 487 8 416 -25 330 -25 c 27
 306 -25 283 -22 269 -20 c 0
 133 2 17 101 17 251 c 2
 17 773 l 2
EndSplineSet
Validated: 3073
EndChar

StartChar: AE
Encoding: 198 198 132
Width: 1075
VWidth: 1947
GlyphClass: 2
Flags: W
HStem: 0 210<712 954> 627 210<365 502 712 895> 1190 210<427.881 502 712 954>
VStem: 502 210<210 627 837 1187>
LayerCount: 2
Fore
SplineSet
502 837 m 1
 502 1187 l 1
 425 1176 416 1131 414 1118 c 2
 365 837 l 1
 502 837 l 1
5 0 m 1
 208 1154 l 2
 250 1397 494 1400 502 1400 c 1
 954 1400 l 1
 954 1190 l 1
 712 1190 l 1
 712 837 l 1
 895 837 l 1
 895 627 l 1
 712 627 l 1
 712 210 l 1
 954 210 l 1
 954 0 l 1
 502 0 l 1
 502 627 l 1
 328 627 l 1
 217 0 l 1
 5 0 l 1
EndSplineSet
Validated: 3073
EndChar

StartChar: Eth
Encoding: 208 208 142
Width: 1075
VWidth: 1947
GlyphClass: 2
Flags: W
HStem: 0 210<367 664.529> 651 210<54 157 367 528> 1190 210<367 666.826>
VStem: 157 210<210 651 861 1190> 767 210<341.354 1060.65>
LayerCount: 2
Fore
SplineSet
977 700 m 0
 977 350 913 0 538 0 c 2
 157 0 l 1
 157 651 l 1
 54 651 l 1
 54 861 l 1
 157 861 l 1
 157 1400 l 1
 538 1400 l 2
 921 1400 977 1042 977 700 c 0
538 1190 m 2
 367 1190 l 1
 367 861 l 1
 528 861 l 1
 528 651 l 1
 367 651 l 1
 367 210 l 1
 538 210 l 2
 705 210 767 342 767 700 c 0
 767 1057 710 1190 538 1190 c 2
EndSplineSet
Validated: 3073
EndChar

StartChar: multiply
Encoding: 215 215 149
Width: 1075
VWidth: 1708
GlyphClass: 2
Flags: W
LayerCount: 2
Fore
SplineSet
755 965 m 1
 903 817 l 1
 686 600 l 1
 903 383 l 1
 755 235 l 1
 538 452 l 1
 321 235 l 1
 173 383 l 1
 390 600 l 1
 173 817 l 1
 321 965 l 1
 538 748 l 1
 755 965 l 1
EndSplineSet
Validated: 3073
EndChar

StartChar: Thorn
Encoding: 222 222 156
Width: 1075
VWidth: 1947
GlyphClass: 2
Flags: W
HStem: 0 21G<110 320> 340 210<320 712.883> 1093 210<320 722.873>
VStem: 110 210<0 340 550 1093 1303 1540> 755 210<591.537 1057.07>
LayerCount: 2
Fore
SplineSet
755 940 m 2
 755 1024 750 1093 548 1093 c 2
 320 1093 l 1
 320 550 l 1
 548 550 l 2
 648 550 755 559 755 715 c 2
 755 940 l 2
548 1303 m 2
 950 1303 965 1048 965 940 c 2
 965 715 l 2
 965 668 964 506 818 408 c 0
 724 345 630 340 548 340 c 2
 320 340 l 1
 320 -0 l 1
 110 0 l 1
 110 1540 l 1
 320 1540 l 1
 320 1303 l 1
 548 1303 l 2
EndSplineSet
Validated: 3073
EndChar

StartChar: germandbls
Encoding: 223 223 157
Width: 1075
VWidth: 1947
GlyphClass: 2
Flags: W
HStem: -25 210<503.473 716.459> 650 210<470 659.672> 1215 210<367.424 671.282>
VStem: 110 210<-388 1168.74> 698 210<898.695 1192.62> 755 210<217.652 605.162>
LayerCount: 2
Fore
SplineSet
528 1215 m 2xf8
 336 1215 320 1116 320 1064 c 2
 320 -388 l 1
 110 -388 l 1
 110 1064 l 2
 110 1128 129 1425 528 1425 c 2
 548 1425 l 2
 621 1425 908 1420 908 1063 c 2
 908 1024 l 2xf8
 908 959 901 867 832 782 c 1
 860 757 965 684 965 485 c 2
 965 337 l 2
 965 291 951 -25 600 -25 c 2
 573 -25 l 2
 493 -25 432 -18 371 33 c 1
 503 195 l 1
 513 188 529 185 573 185 c 2
 600 185 l 2
 744 185 755 273 755 337 c 2
 755 485 l 2xf4
 755 648 637 650 548 650 c 2
 470 650 l 1
 470 860 l 1
 491 860 l 2
 687 860 698 943 698 1024 c 2
 698 1063 l 2
 698 1206 633 1215 548 1215 c 2
 528 1215 l 2xf8
EndSplineSet
Validated: 3073
EndChar

StartChar: ae
Encoding: 230 230 164
Width: 1075
VWidth: 1947
GlyphClass: 2
Flags: W
HStem: -25 210<234.466 414.085 653.406 839.518> 437 210<241.783 433 643 849> 839 210<231.439 425.433 649.201 844.083>
VStem: 17 210<196.183 425.123 773 827.484> 433 210<208.476 437 647 825.401> 849 210<201.889 251 647 826.69>
CounterMasks: 1 1c
LayerCount: 2
Fore
SplineSet
330 185 m 3
 378 185 433 245 433 251 c 2
 433 437 l 1
 335 437 l 2
 246 437 227 390 227 358 c 2
 227 251 l 2
 227 224 254 185 330 185 c 3
746 839 m 27
 698 839 643 813 643 773 c 2
 643 647 l 1
 849 647 l 1
 849 773 l 2
 849 826 794 839 746 839 c 27
1059 251 m 1
 1059 141 958 -25 746 -25 c 3
 660 -25 608 -10 537 47 c 1
 464 -14 415 -25 330 -25 c 3
 84 -25 17 141 17 251 c 2
 17 358 l 2
 17 525 163 647 335 647 c 2
 433 647 l 1
 433 773 l 2
 433 811 378 839 330 839 c 27
 282 839 227 829 227 773 c 1
 17 773 l 1
 17 882 72 1049 330 1049 c 3
 417 1049 475 1031 541 980 c 1
 589 1018 662 1049 746 1049 c 27
 910 1049 1059 944 1059 773 c 2
 1059 437 l 1
 643 437 l 1
 643 251 l 2
 643 225 698 185 746 185 c 27
 794 185 849 216 849 251 c 1
 1059 251 l 1
EndSplineSet
Validated: 3073
EndChar

StartChar: eth
Encoding: 240 240 174
Width: 1075
VWidth: 1947
GlyphClass: 2
Flags: W
HStem: -25 210<396.57 691.42> 712 210<392.134 655.78> 1389 20G<797.309 868.2>
VStem: 110 210<266.024 640.358> 755 210<252.615 637.261>
LayerCount: 2
Fore
SplineSet
320 457 m 2
 320 427 l 2
 320 266 406 185 528 185 c 2
 548 185 l 2
 673 185 755 234 755 427 c 2
 755 457 l 2
 755 650 673 712 548 712 c 2
 528 712 l 2
 403 712 320 650 320 457 c 2
528 922 m 2
 548 922 l 2
 588 922 625 918 660 910 c 1
 626 970 583 1030 535 1088 c 1
 248 999 l 1
 186 1199 l 1
 371 1257 l 1
 335 1289 297 1319 259 1347 c 1
 381 1517 l 1
 448 1469 525 1405 600 1328 c 1
 862 1409 l 1
 924 1209 l 1
 750 1154 l 1
 872 992 965 804 965 620 c 2
 965 427 l 2
 965 130 804 -25 548 -25 c 2
 528 -25 l 2
 302 -25 110 136 110 427 c 2
 110 457 l 2
 110 745 266 922 528 922 c 2
EndSplineSet
Validated: 3073
EndChar

StartChar: divide
Encoding: 247 247 181
Width: 1075
VWidth: 1947
GlyphClass: 2
Flags: W
HStem: 96 291<446.4 649.465> 495 210<127 949> 813 294<444.415 649.079>
VStem: 400 292<142.125 341.964 857.651 1062.35>
LayerCount: 2
Fore
SplineSet
949 705 m 1
 949 495 l 1
 127 495 l 1
 127 705 l 1
 949 705 l 1
692 960 m 0
 692 890 632 813 548 813 c 0
 456 813 400 897 400 960 c 0
 400 1023 456 1107 548 1107 c 0
 632 1107 692 1030 692 960 c 0
692 243 m 0
 692 170 633 96 548 96 c 0
 464 96 400 173 400 243 c 0
 400 308 461 387 548 387 c 0
 635 387 692 308 692 243 c 0
EndSplineSet
Validated: 3073
EndChar

StartChar: oslash
Encoding: 248 248 182
Width: 1075
VWidth: 1947
GlyphClass: 2
Flags: W
HStem: -25 210<459.885 682.128> 838 210<393.876 625.943>
VStem: 99 210<368.236 747.504> 767 210<277.248 640.6>
LayerCount: 2
Fore
SplineSet
757 643 m 1
 459 194 l 1
 483 187 510 185 538 185 c 0
 674 185 767 244 767 513 c 0
 767 563 763 606 757 643 c 1
977 513 m 0
 977 48 714 -25 538 -25 c 0
 477 -25 406 -16 339 14 c 1
 259 -106 l 1
 85 10 l 1
 181 155 l 1
 131 235 99 350 99 513 c 0
 99 976 362 1048 538 1048 c 0
 601 1048 676 1039 746 1005 c 1
 823 1120 l 1
 997 1004 l 1
 901 859 l 1
 947 780 977 668 977 513 c 0
538 838 m 0
 392 838 309 768 309 513 c 0
 309 455 314 407 322 367 c 1
 627 826 l 1
 600 835 570 838 538 838 c 0
EndSplineSet
Validated: 3073
EndChar

StartChar: thorn
Encoding: 254 254 188
Width: 1075
VWidth: 1947
GlyphClass: 2
Flags: W
HStem: -385 21G<110 320> -25 210<378.651 682.128> 838 210<377.498 682.128> 1380 20G<110 320>
VStem: 110 210<-385 19 242.707 781.687 1003 1400> 767 210<277.248 747.04>
LayerCount: 2
Fore
SplineSet
320 374 m 2
 320 259 379 185 538 185 c 0
 674 185 767 244 767 513 c 0
 767 780 674 838 538 838 c 0
 381 838 320 766 320 653 c 2
 320 374 l 2
977 513 m 0
 977 48 714 -25 538 -25 c 0
 455 -25 381 -10 320 19 c 1
 320 -385 l 1
 110 -385 l 1
 110 1400 l 1
 320 1400 l 1
 320 1003 l 1
 382 1032 455 1048 538 1048 c 0
 714 1048 977 975 977 513 c 0
EndSplineSet
Validated: 3073
EndChar

StartChar: minus
Encoding: 8722 8722 190
Width: 1075
VWidth: 1708
GlyphClass: 2
Flags: W
HStem: 495 210<50 1025>
LayerCount: 2
Fore
SplineSet
1025 705 m 1
 1025 495 l 1
 50 495 l 1
 50 705 l 1
 1025 705 l 1
EndSplineSet
Validated: 3073
EndChar

StartChar: gravemodifier
Encoding: 715 715 193
Width: 1075
VWidth: 2334
GlyphClass: 2
Flags: MW
HStem: 1319 407
VStem: 369 398
DStem2: 510 1726 369 1591 0.68678 -0.726865<1.29072 374.21>
LayerCount: 2
Fore
SplineSet
767 1454 m 5
 626 1319 l 5
 369 1591 l 5
 510 1726 l 5
 767 1454 l 5
EndSplineSet
Validated: 3073
EndChar

StartChar: acute
Encoding: 180 180 194
Width: 1075
VWidth: 1947
GlyphClass: 2
Flags: MW
HStem: 1167 521
VStem: 299 479
DStem2: 299 1325 520 1167 0.579325 0.815097<0 444.591>
LayerCount: 2
Fore
SplineSet
520 1167 m 5
 299 1325 l 5
 557 1688 l 5
 778 1530 l 5
 520 1167 l 5
EndSplineSet
Validated: 3073
EndChar

StartChar: circumflex
Encoding: 710 710 195
Width: 1075
VWidth: 1947
GlyphClass: 2
Flags: W
HStem: 1400 238
VStem: 295 486
LayerCount: 2
Fore
SplineSet
615 1638 m 1
 781 1521 l 1
 695 1400 l 1
 538 1508 l 1
 381 1400 l 1
 295 1521 l 1
 461 1638 l 1
 615 1638 l 1
EndSplineSet
Validated: 3073
EndChar

StartChar: tilde
Encoding: 732 732 196
Width: 1075
VWidth: 1947
GlyphClass: 2
Flags: W
HStem: 1447 150<567.116 727.937> 1537 150<348.718 508.929>
VStem: 200 677
LayerCount: 2
Fore
SplineSet
220 1574 m 2x60
 265 1629 318 1687 421 1687 c 2
 437 1687 l 2x60
 493 1687 544 1662 578 1632 c 2
 597 1615 l 2
 606 1608 622 1597 638 1597 c 2
 655 1597 l 2
 677 1597 704 1605 740 1654 c 2
 757 1677 l 1
 877 1587 l 1
 860 1564 l 2
 785 1463 761 1447 655 1447 c 2
 638 1447 l 2xa0
 589 1447 539 1468 497 1503 c 2
 478 1519 l 2
 468 1527 453 1537 437 1537 c 2
 421 1537 l 2
 389 1537 352 1499 338 1481 c 2
 318 1456 l 1
 200 1548 l 1
 220 1574 l 2x60
EndSplineSet
Validated: 3073
EndChar

StartChar: macronmodifier
Encoding: 713 713 197
Width: 1075
VWidth: 1947
GlyphClass: 2
Flags: W
HStem: 1463 150<311 764>
VStem: 311 453<1463 1613>
LayerCount: 2
Fore
SplineSet
311 1463 m 1
 311 1613 l 1
 764 1613 l 1
 764 1463 l 1
 311 1463 l 1
EndSplineSet
Validated: 3073
EndChar

StartChar: breve
Encoding: 728 728 198
Width: 1075
VWidth: 1947
GlyphClass: 2
Flags: W
HStem: 1405 150<406.427 667.101>
VStem: 248 579
LayerCount: 2
Fore
SplineSet
536 1405 m 0
 421 1405 318 1460 248 1544 c 1
 363 1640 l 1
 430 1559 510 1555 536 1555 c 0
 607 1555 669 1589 713 1641 c 1
 827 1544 l 1
 755 1460 652 1405 536 1405 c 0
EndSplineSet
Validated: 3073
EndChar

StartChar: dotaccent
Encoding: 729 729 199
Width: 1075
VWidth: 1947
GlyphClass: 2
Flags: W
HStem: 1351 312<425.52 640.661>
VStem: 378 312<1399.43 1614.57>
LayerCount: 2
Fore
SplineSet
378 1507 m 0
 378 1593 446 1663 533 1663 c 0
 618 1663 690 1593 690 1507 c 0
 690 1421 618 1351 533 1351 c 0
 446 1351 378 1421 378 1507 c 0
EndSplineSet
Validated: 3073
EndChar

StartChar: dieresis
Encoding: 168 168 200
Width: 1075
VWidth: 1947
GlyphClass: 2
Flags: W
HStem: 1371 304<154.947 357.349 721.81 921.125>
VStem: 108 295<1417.75 1632.17> 675 292<1417.36 1632.17>
LayerCount: 2
Fore
SplineSet
403 1526 m 0
 403 1444 337 1371 256 1371 c 0
 177 1371 108 1440 108 1526 c 0
 108 1617 181 1675 255 1675 c 0
 339 1675 403 1605 403 1526 c 0
967 1526 m 0
 967 1436 896 1371 822 1371 c 0
 744 1371 675 1441 675 1526 c 0
 675 1611 744 1675 822 1675 c 0
 893 1675 967 1617 967 1526 c 0
EndSplineSet
Validated: 3073
EndChar

StartChar: ring
Encoding: 730 730 202
Width: 1075
VWidth: 1947
GlyphClass: 2
Flags: W
HStem: 1223 110<452.515 607.788> 1517 110<452.515 607.788>
VStem: 328 110<1346.23 1503.77> 622 110<1348.51 1501.49>
LayerCount: 2
Fore
SplineSet
328 1425 m 0
 328 1537 416 1627 528 1627 c 0
 640 1627 732 1537 732 1425 c 0
 732 1313 640 1223 528 1223 c 0
 416 1223 328 1313 328 1425 c 0
438 1425 m 0
 438 1374 478 1333 529 1333 c 0
 580 1333 622 1374 622 1425 c 0
 622 1476 580 1517 529 1517 c 0
 478 1517 438 1476 438 1425 c 0
EndSplineSet
Validated: 3073
EndChar

StartChar: cedilla
Encoding: 184 184 203
Width: 1075
VWidth: 1947
GlyphClass: 2
Flags: W
HStem: -486 150<444.786 683.659> -207 225<500 644.375>
VStem: 500 150<-74.3376 18> 689 150<-321.632 -219.867>
LayerCount: 2
Fore
SplineSet
689 -270 m 27
 689 -216 611 -207 566 -207 c 2
 486 -207 l 1
 500 3 l 1
 500 18 l 1
 650 18 l 1
 650 -3 l 1
 646 -63 l 1
 825 -95 839 -221 839 -270 c 3
 839 -303 834 -374 748 -434 c 0
 706 -463 646 -486 578 -486 c 3
 478 -486 395 -449 328 -391 c 1
 426 -277 l 1
 465 -311 514 -336 578 -336 c 3
 614 -336 689 -320 689 -270 c 27
EndSplineSet
Validated: 3073
EndChar

StartChar: ogonek
Encoding: 731 731 204
Width: 1075
VWidth: 1947
GlyphClass: 2
Flags: W
HStem: -420 150<521.42 667.789>
VStem: 370 150<-267.794 -148.901>
LayerCount: 2
Fore
SplineSet
706 -371 m 1
 671 -400 624 -420 573 -420 c 0
 460 -420 370 -327 370 -216 c 0
 370 -161 392 -111 427 -74 c 1
 532 31 l 1
 532 72 l 1
 682 72 l 1
 682 -31 l 1
 535 -178 l 2
 526 -188 520 -200 520 -216 c 0
 520 -246 545 -270 573 -270 c 0
 586 -270 597 -266 608 -257 c 2
 635 -234 l 1
 733 -347 l 1
 706 -371 l 1
EndSplineSet
Validated: 3073
EndChar

StartChar: caron
Encoding: 711 711 205
Width: 1075
VWidth: 1947
GlyphClass: 2
Flags: W
HStem: 1422 239
VStem: 295 486
LayerCount: 2
Fore
SplineSet
538 1552 m 1
 695 1661 l 1
 781 1539 l 1
 615 1422 l 1
 461 1422 l 1
 295 1539 l 1
 381 1661 l 1
 538 1552 l 1
EndSplineSet
Validated: 3073
EndChar

StartChar: dotlessi
Encoding: 305 305 206
Width: 1075
VWidth: 1947
GlyphClass: 2
Flags: W
HStem: 0 210<215 433 643 860> 814 210<215 433>
VStem: 433 210<210 814>
LayerCount: 2
Fore
SplineSet
215 1024 m 1
 643 1024 l 1
 643 210 l 1
 860 210 l 1
 860 0 l 1
 215 0 l 1
 215 210 l 1
 433 210 l 1
 433 814 l 1
 215 814 l 1
 215 1024 l 1
EndSplineSet
Validated: 3073
EndChar

StartChar: currency
Encoding: 164 164 210
Width: 1075
VWidth: 1947
GlyphClass: 2
Flags: W
HStem: 386 210<422.53 653.403> 973 210<425.924 650.076>
VStem: 143 210<663.928 901.519> 723 210<663.098 901.519>
LayerCount: 2
Fore
SplineSet
933 798 m 2
 933 770 l 2
 933 706 915 645 884 591 c 1
 1007 450 l 1
 849 312 l 1
 736 441 l 1
 678 406 613 386 547 386 c 2
 529 386 l 2
 462 386 397 407 340 441 c 1
 227 312 l 1
 69 450 l 1
 192 591 l 1
 161 646 143 707 143 770 c 2
 143 798 l 2
 143 858 161 919 192 973 c 1
 69 1114 l 1
 227 1252 l 1
 338 1125 l 1
 395 1161 461 1183 529 1183 c 2
 547 1183 l 2
 615 1183 681 1161 738 1125 c 1
 849 1252 l 1
 1007 1114 l 1
 884 973 l 1
 915 919 933 858 933 798 c 2
547 973 m 2
 529 973 l 2
 445 973 353 877 353 798 c 2
 353 770 l 2
 353 685 445 596 529 596 c 2
 547 596 l 2
 631 596 723 683 723 770 c 2
 723 798 l 2
 723 877 631 973 547 973 c 2
EndSplineSet
Validated: 3073
EndChar

StartChar: brokenbar
Encoding: 166 166 211
Width: 1075
VWidth: 1947
GlyphClass: 2
Flags: W
VStem: 433 210<-77 600 800 1477>
LayerCount: 2
Fore
SplineSet
433 600 m 1
 643 600 l 1
 643 -77 l 1
 433 -77 l 1
 433 600 l 1
433 1477 m 1
 643 1477 l 1
 643 800 l 1
 433 800 l 1
 433 1477 l 1
EndSplineSet
Validated: 3073
EndChar

StartChar: onequarter
Encoding: 188 188 212
Width: 1075
VWidth: 1708
GlyphClass: 2
Flags: W
HStem: -66 202<716 798>
VStem: 150 210<771 1305> 798 210<-209 -66 136 264>
LayerCount: 2
Fore
SplineSet
764 1468 m 1
 956 1382 l 1
 311 -66 l 1
 119 18 l 1
 764 1468 l 1
150 1305 m 1
 0 1202 l 1
 -46 1269 l 1
 187 1585 l 1
 360 1585 l 1
 360 771 l 1
 150 771 l 1
 150 1305 l 1
798 264 m 1
 716 136 l 1
 798 136 l 1
 798 264 l 1
556 192 m 1
 810 575 l 1
 1008 575 l 1
 1008 -209 l 1
 798 -209 l 1
 798 -66 l 1
 556 -66 l 1
 556 192 l 1
EndSplineSet
Validated: 3073
EndChar

StartChar: onehalf
Encoding: 189 189 213
Width: 1075
VWidth: 1708
GlyphClass: 2
Flags: W
HStem: -315 210<789 1026> 368 210<713.697 858.799>
VStem: 150 210<771 1305> 862 210<249.703 365.171>
LayerCount: 2
Fore
SplineSet
271 -68 m 1
 79 18 l 1
 724 1468 l 1
 916 1382 l 1
 271 -68 l 1
527 418 m 1
 538 444 l 2
 562 500 645 578 784 578 c 2
 796 578 l 2
 1002 578 1072 447 1072 325 c 2
 1072 303 l 2
 1072 267 1063 209 988 123 c 2
 789 -105 l 1
 1026 -105 l 1
 1026 -315 l 1
 550 -315 l 1
 550 -84 l 1
 571 -44 594 -10 620 20 c 2
 830 261 l 2
 861 297 862 300 862 303 c 2
 862 325 l 2
 862 354 861 368 796 368 c 2
 784 368 l 2
 734 368 728 356 713 325 c 1
 527 418 l 1
150 1305 m 1
 0 1202 l 1
 -47 1269 l 1
 200 1594 l 1
 202 1595 l 1
 360 1595 l 1
 360 771 l 1
 150 771 l 1
 150 1305 l 1
EndSplineSet
Validated: 3073
EndChar

StartChar: threequarters
Encoding: 190 190 214
Width: 1075
VWidth: 1708
GlyphClass: 2
Flags: W
HStem: -66 192<716 800> 711 210<216.036 367.312> 1101 210<190 343.121> 1407 210<218.346 342.838>
VStem: 344 210<1312.97 1404.44> 374 210<930.003 1093.04> 800 258<126 254> 848 210<-209 -66>
LayerCount: 2
Fore
SplineSet
289 1617 m 2xf8
 301 1617 l 2
 489 1617 554 1512 554 1364 c 2
 554 1341 l 2xf8
 554 1298 541 1256 517 1219 c 1
 562 1165 584 1090 584 1008 c 2
 584 997 l 2
 584 871 465 711 301 711 c 2
 289 711 l 2
 141 711 6 812 6 964 c 1
 216 964 l 1
 216 932 265 921 289 921 c 2
 301 921 l 2
 345 921 374 955 374 997 c 2
 374 1008 l 2xf4
 374 1072 341 1101 301 1101 c 2
 190 1101 l 1
 190 1311 l 1
 302 1311 l 2
 329 1311 344 1336 344 1341 c 2
 344 1364 l 2
 344 1386 337 1407 301 1407 c 2
 289 1407 l 2
 256 1407 225 1389 218 1373 c 1
 27 1459 l 1
 76 1566 192 1617 289 1617 c 2xf8
864 1468 m 1
 1056 1382 l 1
 411 -66 l 1
 219 18 l 1
 864 1468 l 1
800 254 m 1xf2
 716 126 l 1
 800 126 l 1
 800 254 l 1xf2
606 192 m 1
 860 575 l 1
 1058 575 l 1
 1058 -209 l 1
 848 -209 l 1
 848 -66 l 1xf1
 606 -66 l 1
 606 192 l 1
EndSplineSet
Validated: 3073
EndChar

StartChar: Lslash
Encoding: 321 321 216
Width: 1075
VWidth: 1947
GlyphClass: 2
Flags: W
HStem: 0 211<320 967> 1380 20G<110 320>
VStem: 110 210<211 419 693 1400>
LayerCount: 2
Fore
SplineSet
320 211 m 1
 967 211 l 1
 967 0 l 1
 110 0 l 1
 110 419 l 1
 78 411 l 1
 24 613 l 1
 110 636 l 1
 110 1400 l 1
 320 1400 l 1
 320 693 l 1
 720 799 l 1
 774 597 l 1
 320 475 l 1
 320 211 l 1
EndSplineSet
Validated: 3073
EndChar

StartChar: lslash
Encoding: 322 322 257
Width: 1075
VWidth: 1947
GlyphClass: 2
Flags: W
HStem: 0 210<215 433 643 860> 1190 210<215 433>
VStem: 433 210<210 468 742 1190>
LayerCount: 2
Fore
SplineSet
859 799 m 1
 913 597 l 1
 643 524 l 1
 643 210 l 1
 860 210 l 1
 860 0 l 1
 215 0 l 1
 215 210 l 1
 433 210 l 1
 433 468 l 1
 217 411 l 1
 163 613 l 1
 433 686 l 1
 433 1190 l 1
 215 1190 l 1
 215 1400 l 1
 643 1400 l 1
 643 742 l 1
 859 799 l 1
EndSplineSet
Validated: 3073
EndChar

StartChar: dotlessj
Encoding: 567 567 260
Width: 1075
VWidth: 1947
GlyphClass: 2
Flags: W
HStem: -399 210<488.689 653.093> 814 210<314 663>
VStem: 663 210<-178.351 814>
LayerCount: 2
Fore
SplineSet
314 1024 m 1
 873 1024 l 1
 873 -110 l 2
 873 -258 755 -399 568 -399 c 3
 374 -399 266 -267 266 -110 c 1
 476 -110 l 1
 476 -149 512 -189 568 -189 c 3
 633 -189 663 -155 663 -108 c 2
 663 814 l 1
 314 814 l 1
 314 1024 l 1
EndSplineSet
Validated: 3073
EndChar

StartChar: eng
Encoding: 331 331 261
Width: 1075
VWidth: 2334
GlyphClass: 2
Flags: W
HStem: -399 210<464.02 714.262> 0 21G<110 320> 839 210<423.792 710.847> 1004 20G<110 320>
VStem: 110 210<0 723.712 981 1024> 755 210<-146.256 794.888>
LayerCount: 2
Fore
SplineSet
755 687 m 2xec
 755 746 747 839 548 839 c 2
 528 839 l 2xec
 409 839 320 677 320 597 c 2
 320 -0 l 1
 110 0 l 1
 110 1024 l 1
 320 1024 l 1xdc
 320 981 l 1
 380 1023 450 1049 528 1049 c 2
 548 1049 l 2
 954 1049 965 741 965 687 c 2
 965 -28 l 2
 965 -231 824 -399 613 -399 c 2
 554 -399 l 2
 396 -399 317 -306 310 -300 c 1
 464 -156 l 2
 464 -156 491 -189 554 -189 c 2
 613 -189 l 2
 706 -189 755 -115 755 -28 c 2
 755 687 l 2xec
EndSplineSet
Validated: 3073
EndChar

StartChar: ellipsis
Encoding: 8230 8230 266
Width: 1075
VWidth: 1947
GlyphClass: 2
Flags: W
HStem: 12 201<104.099 260.18 460.04 615.841 815.378 971.841>
VStem: 87 190<28.3537 196.445> 443 190<28.8501 196.445> 798 191<28.8501 196.445>
LayerCount: 2
Fore
SplineSet
989 113 m 0
 989 61 948 12 893 12 c 0
 840 12 798 59 798 113 c 0
 798 165 839 213 893 213 c 0
 949 213 989 162 989 113 c 0
277 113 m 0
 277 61 237 12 182 12 c 0
 128 12 87 59 87 113 c 0
 87 165 127 213 182 213 c 0
 237 213 277 162 277 113 c 0
633 113 m 0
 633 61 592 12 537 12 c 0
 484 12 443 59 443 113 c 0
 443 165 483 213 537 213 c 0
 593 213 633 162 633 113 c 0
EndSplineSet
Validated: 3073
EndChar

StartChar: uparrow
Encoding: 8593 8593 267
Width: 1075
VWidth: 1708
GlyphClass: 2
Flags: W
HStem: 1024 20G<458.598 617.402>
VStem: 458 160<177 794>
LayerCount: 2
Fore
SplineSet
618 177 m 1
 458 177 l 1
 458 794 l 1
 235 564 l 1
 121 676 l 1
 478 1044 l 1
 598 1044 l 1
 955 676 l 1
 841 564 l 1
 618 794 l 1
 618 177 l 1
EndSplineSet
Validated: 3073
EndChar

StartChar: downarrow
Encoding: 8595 8595 268
Width: 1075
VWidth: 1708
GlyphClass: 2
Flags: W
VStem: 458 160<387 991>
LayerCount: 2
Fore
SplineSet
458 991 m 1
 618 991 l 1
 618 387 l 1
 838 633 l 1
 958 527 l 1
 598 124 l 1
 478 124 l 1
 118 527 l 1
 238 633 l 1
 458 387 l 1
 458 991 l 1
EndSplineSet
Validated: 3073
EndChar

StartChar: spaceopenbox
Encoding: 9251 9251 269
Width: 1075
VWidth: 1708
GlyphClass: 2
Flags: W
HStem: -197 353<77 287 712 922> -197 210<287 712>
VStem: 77 210<13 156> 712 210<13 156>
LayerCount: 2
Fore
SplineSet
922 156 m 1xb0
 922 -197 l 1
 77 -197 l 1
 77 156 l 1
 287 156 l 1xb0
 287 13 l 1
 712 13 l 1x70
 712 156 l 1
 922 156 l 1xb0
EndSplineSet
Validated: 3073
EndChar

StartChar: uni2074
Encoding: 8308 8308 271
Width: 1075
VWidth: 1947
GlyphClass: 2
Flags: W
HStem: 702 210<433 595 805 921> 1405 20G<566.575 805>
VStem: 595 210<544 702 912 1109>
LayerCount: 2
Fore
SplineSet
595 1109 m 1
 433 912 l 1
 595 912 l 1
 595 1109 l 1
142 888 m 1
 583 1425 l 1
 805 1425 l 1
 805 912 l 1
 921 912 l 1
 921 702 l 1
 805 702 l 1
 805 544 l 1
 595 544 l 1
 595 702 l 1
 142 702 l 1
 142 888 l 1
EndSplineSet
Validated: 3073
EndChar

StartChar: Eng
Encoding: 330 330 273
Width: 1075
VWidth: 2334
GlyphClass: 2
Flags: W
HStem: -399 210<464.02 714.262> 0 21G<110 320> 1215 210<428.8 708.844> 1380 20G<110 320>
VStem: 110 210<0 1093.82 1354 1400> 755 210<-146.256 1173.1>
LayerCount: 2
Fore
SplineSet
755 1063 m 2xec
 755 1119 747 1215 548 1215 c 2
 528 1215 l 2xec
 413 1215 320 1045 320 960 c 2
 320 -0 l 1
 110 0 l 1
 110 1400 l 1
 320 1400 l 1xdc
 320 1354 l 1
 379 1397 450 1425 528 1425 c 2
 548 1425 l 2
 948 1425 965 1122 965 1063 c 2
 965 -28 l 2
 965 -231 824 -399 613 -399 c 2
 554 -399 l 2
 396 -399 317 -306 310 -300 c 1
 464 -156 l 2
 464 -156 491 -189 554 -189 c 2
 613 -189 l 2
 706 -189 755 -115 755 -28 c 2
 755 1063 l 2xec
EndSplineSet
Validated: 3073
EndChar

StartChar: dcroat
Encoding: 273 273 274
Width: 1075
VWidth: 1947
GlyphClass: 2
Flags: W
HStem: -25 210<396.57 691.42> 0 21G<755 965> 839 210<384.205 691.42> 1147 210<480 755 965 1015> 1380 20G<755 965>
VStem: 110 210<266.024 770.184> 755 210<0 19 248.42 774.75 1005 1147 1357 1400>
LayerCount: 2
Fore
SplineSet
320 597 m 2xbe
 320 427 l 2
 320 266 406 185 528 185 c 2
 548 185 l 2
 673 185 755 234 755 427 c 2
 755 597 l 2
 755 788 673 839 548 839 c 2
 528 839 l 2
 403 839 320 788 320 597 c 2xbe
1015 1357 m 1
 1015 1147 l 1
 965 1147 l 1
 965 -0 l 1
 755 0 l 1x7e
 755 19 l 1
 696 -10 627 -25 548 -25 c 2
 528 -25 l 2
 302 -25 110 136 110 427 c 2
 110 597 l 2
 110 891 272 1049 528 1049 c 2
 548 1049 l 2
 627 1049 696 1034 755 1005 c 1
 755 1147 l 1
 480 1147 l 1
 480 1357 l 1
 755 1357 l 1
 755 1400 l 1
 965 1400 l 1
 965 1357 l 1
 1015 1357 l 1
EndSplineSet
Validated: 3073
EndChar

StartChar: bullet
Encoding: 8226 8226 280
Width: 1075
VWidth: 1947
GlyphClass: 2
Flags: W
HStem: 403 549<380.239 696.903>
VStem: 247 581<522.186 818.763>
LayerCount: 2
Fore
SplineSet
828 666 m 3
 828 504 694 403 537 403 c 3
 536 403 535 403 534 403 c 3
 356 403 247 512 247 664 c 3
 247 664 247 665 247 666 c 3
 247 834 377 952 535 952 c 24
 536 952 537 952 537 952 c 3
 718 952 828 822 828 666 c 3
EndSplineSet
Validated: 3073
EndChar

StartChar: florin
Encoding: 402 402 281
Width: 1075
VWidth: 1947
GlyphClass: 2
Flags: W
HStem: -416 210<156.322 388.191> 690 210<213 443 664 897> 1215 210<691.365 921.496>
LayerCount: 2
Fore
SplineSet
881 1186 m 1
 876 1191 824 1215 785 1215 c 27
 735 1215 680 1175 678 1144 c 2
 664 900 l 1
 897 900 l 1
 897 690 l 1
 653 690 l 1
 608 -133 l 2
 598 -307 423 -416 291 -416 c 3
 225 -416 115 -408 22 -281 c 1
 194 -159 l 1
 205 -174 249 -206 291 -206 c 27
 344 -206 394 -191 398 -121 c 2
 443 690 l 1
 213 690 l 1
 213 900 l 1
 454 900 l 1
 468 1154 l 2
 482 1406 720 1425 785 1425 c 3
 942 1425 1023 1341 1051 1310 c 1
 881 1186 l 1
EndSplineSet
Validated: 3073
EndChar

StartChar: dagger
Encoding: 8224 8224 282
Width: 1075
VWidth: 1947
GlyphClass: 2
Flags: W
HStem: -385 21G<433 643> 815 209<109 433 643 967> 1405 20G<433 643>
VStem: 433 210<-385 815 1024 1425>
LayerCount: 2
Fore
SplineSet
967 1024 m 1
 967 815 l 1
 643 815 l 1
 643 -385 l 1
 433 -385 l 1
 433 815 l 1
 109 815 l 1
 109 1024 l 1
 433 1024 l 1
 433 1425 l 1
 643 1425 l 1
 643 1024 l 1
 967 1024 l 1
EndSplineSet
Validated: 3073
EndChar

StartChar: daggerdbl
Encoding: 8225 8225 283
Width: 1075
VWidth: 1947
GlyphClass: 2
Flags: W
HStem: -385 21G<433 643> 14 210<109 433 643 967> 815 209<109 433 643 967> 1405 20G<433 643>
VStem: 433 210<-385 14 224 815 1024 1425>
LayerCount: 2
Fore
SplineSet
967 1024 m 1
 967 815 l 1
 643 815 l 1
 643 224 l 1
 967 224 l 1
 967 14 l 1
 643 14 l 1
 643 -385 l 1
 433 -385 l 1
 433 14 l 1
 109 14 l 1
 109 224 l 1
 433 224 l 1
 433 815 l 1
 109 815 l 1
 109 1024 l 1
 433 1024 l 1
 433 1425 l 1
 643 1425 l 1
 643 1024 l 1
 967 1024 l 1
EndSplineSet
Validated: 3073
EndChar

StartChar: trademark
Encoding: 8482 8482 284
Width: 1075
VWidth: 1947
GlyphClass: 2
Flags: W
HStem: 1233 150<113 238 388 490> 1380 20G<490 646.404 830.55 986>
VStem: 238 150<469 1233> 490 150<466 711 1383 1400> 682 112<519 584.536> 835 150<466 708 1335.56 1400>
LayerCount: 2
Fore
SplineSet
490 466 m 1x7c
 490 1233 l 1
 388 1233 l 1
 388 469 l 1
 238 469 l 1
 238 1233 l 1
 113 1233 l 1
 113 1383 l 1
 490 1383 l 1xbc
 490 1400 l 1
 642 1400 l 1
 738 964 l 1
 835 1400 l 1
 986 1400 l 1
 985 466 l 1
 835 466 l 1
 835 708 l 1
 794 519 l 1
 682 519 l 1
 640 711 l 1
 640 466 l 1
 490 466 l 1x7c
EndSplineSet
Validated: 3073
EndChar

StartChar: Ecyrillic
Encoding: 1028 1028 290
Width: 1075
VWidth: 1708
GlyphClass: 2
Flags: W
HStem: -25 210<417.861 665.309> 621 210<312 623> 1047 21G<714 801.655> 1215 210<418.442 666.333>
VStem: 99 211<333.496 621 831 1073.54> 728 200<249.2 281.584 1102.53 1150.59>
LayerCount: 2
Fore
SplineSet
538 -25 m 0
 144 -25 99 388 99 700 c 0
 99 1028 151 1425 538 1425 c 0
 749 1425 877 1306 934 1105 c 1
 732 1047 l 1
 696 1173 639 1215 538 1215 c 0
 391 1215 326 1095 312 831 c 1
 623 831 l 1
 623 621 l 1
 310 621 l 1
 319 312 386 185 538 185 c 0
 635 185 691 223 728 341 c 1
 928 279 l 1
 856 46 699 -25 538 -25 c 0
EndSplineSet
Validated: 3073
EndChar

StartChar: Becyrillic
Encoding: 1041 1041 298
Width: 1075
VWidth: 1947
GlyphClass: 2
Flags: W
HStem: -25 210<320 712.182> 650 210<320 722.166> 1190 210<320 863>
VStem: 110 210<185 650 860 1190> 755 210<221.375 617>
LayerCount: 2
Fore
SplineSet
755 505 m 2
 755 613 717 650 548 650 c 2
 320 650 l 1
 320 185 l 1
 548 185 l 2
 735 185 755 252 755 332 c 2
 755 505 l 2
548 860 m 2
 948 860 965 639 965 505 c 2
 965 332 l 2
 965 202 958 -25 548 -25 c 2
 110 -25 l 1
 110 1400 l 1
 863 1400 l 1
 863 1190 l 1
 320 1190 l 1
 320 860 l 1
 548 860 l 2
EndSplineSet
Validated: 3073
EndChar

StartChar: Gecyrillic
Encoding: 1043 1043 299
Width: 1075
VWidth: 1947
GlyphClass: 2
Flags: W
HStem: -0 21G<110 320> 1190 210<320 967>
VStem: 110 210<0 1190>
LayerCount: 2
Fore
SplineSet
110 -0 m 1
 110 1400 l 1
 967 1400 l 1
 967 1190 l 1
 320 1190 l 1
 320 0 l 1
 110 -0 l 1
EndSplineSet
Validated: 3073
EndChar

StartChar: Decyrillic
Encoding: 1044 1044 300
Width: 1075
VWidth: 1947
GlyphClass: 2
Flags: W
HStem: 0 211<377 732> 1190 210<647.526 732>
VStem: 732 210<211 1190>
LayerCount: 2
Fore
SplineSet
312 988 m 2
 330 1082 408 1303 684 1400 c 1
 942 1400 l 1
 942 211 l 1
 1012 211 l 1
 1012 -6 l 1
 953 -162 l 1
 802 -162 l 1
 802 0 l 1
 274 0 l 1
 274 -162 l 1
 116 -162 l 1
 64 -25 l 1
 64 211 l 1
 163 211 l 1
 312 988 l 2
377 211 m 1
 732 211 l 1
 732 1190 l 1
 720 1190 l 1
 626 1151 538 1054 518 948 c 2
 377 211 l 1
EndSplineSet
Validated: 3073
EndChar

StartChar: Zhecyrillic
Encoding: 1046 1046 302
Width: 1075
VWidth: 1947
GlyphClass: 2
Flags: W
HStem: 0 21G<28 259.209 433 643 816.717 1048> 1380 20G<33 260.858 817.065 1043>
VStem: 433 210<0 230 878 1320>
LayerCount: 2
Fore
SplineSet
433 878 m 1
 433 1320 l 1
 643 1320 l 1
 643 878 l 1
 824 1400 l 1
 1043 1400 l 1
 799 685 l 1
 1048 0 l 1
 824 0 l 1
 690 368 l 1
 643 230 l 1
 643 0 l 1
 433 0 l 1
 433 230 l 1
 385 369 l 1
 252 0 l 1
 28 0 l 1
 277 686 l 1
 33 1400 l 1
 254 1400 l 1
 433 878 l 1
EndSplineSet
Validated: 3073
EndChar

StartChar: Zecyrillic
Encoding: 1047 1047 303
Width: 1075
VWidth: 1947
GlyphClass: 2
Flags: W
HStem: -25 210<352.03 702.91> 672 210<354 652.493> 1215 210<356.885 659.665>
VStem: 87 210<240.833 337> 703 210<932.137 1176.99> 755 210<241.113 600.13>
LayerCount: 2
Fore
SplineSet
504 1425 m 2xf8
 548 1425 l 2
 758 1425 913 1280 913 1063 c 2
 913 1024 l 2xf8
 913 943 878 857 819 792 c 1
 913 712 965 583 965 417 c 2
 965 397 l 2
 965 137 833 -25 548 -25 c 2
 504 -25 l 2
 274 -25 87 120 87 337 c 1
 297 337 l 1
 297 192 480 185 504 185 c 2
 548 185 l 2
 699 185 755 239 755 397 c 2
 755 417 l 2xf4
 755 609 674 671 550 672 c 1
 354 672 l 1
 354 882 l 1
 550 882 l 2
 648 882 703 974 703 1024 c 2
 703 1063 l 2
 703 1150 656 1215 548 1215 c 2
 504 1215 l 2
 418 1215 336 1178 309 1116 c 1
 117 1200 l 1
 186 1360 359 1425 504 1425 c 2xf8
EndSplineSet
Validated: 3073
EndChar

StartChar: Iicyrillic
Encoding: 1048 1048 304
Width: 1075
VWidth: 1947
GlyphClass: 2
Flags: W
HStem: -0 21G<110 302.404 755 965> 1380 20G<110 320 772.607 965>
VStem: 110 210<509 1400> 755 210<0 890>
LayerCount: 2
Fore
SplineSet
110 0 m 1
 110 1400 l 1
 320 1400 l 1
 320 509 l 1
 783 1400 l 1
 965 1400 l 1
 965 0 l 1
 755 -0 l 1
 755 890 l 1
 292 0 l 1
 110 0 l 1
EndSplineSet
Validated: 3073
EndChar

StartChar: Elcyrillic
Encoding: 1051 1051 307
Width: 1075
VWidth: 1947
GlyphClass: 2
Flags: W
HStem: 0 21G<63 283.814 755 965> 1190 210<645.938 755>
VStem: 755 210<0 1190>
LayerCount: 2
Fore
SplineSet
302 993 m 2
 320 1069 404 1301 684 1400 c 1
 965 1400 l 1
 965 -0 l 1
 755 0 l 1
 755 1190 l 1
 720 1190 l 1
 625 1151 532 1052 506 943 c 2
 279 0 l 1
 63 0 l 1
 302 993 l 2
EndSplineSet
Validated: 3073
EndChar

StartChar: Pecyrillic
Encoding: 1055 1055 311
Width: 1075
VWidth: 1947
GlyphClass: 2
Flags: W
HStem: -0 21G<110 320 755 965> 1190 210<320 755>
VStem: 110 210<0 1190> 755 210<0 1190>
LayerCount: 2
Fore
SplineSet
110 -0 m 1
 110 1400 l 1
 965 1400 l 1
 965 -0 l 1
 755 0 l 1
 755 1190 l 1
 320 1190 l 1
 320 0 l 1
 110 -0 l 1
EndSplineSet
Validated: 3073
EndChar

StartChar: Ucyrillic
Encoding: 1059 1059 315
Width: 1075
VWidth: 1947
GlyphClass: 2
Flags: W
HStem: -25 210<250.469 433.507> -9 200<248.751 441.492> 1380 20G<90 327.811 769.358 993>
LayerCount: 2
Fore
SplineSet
660 216 m 2xa0
 632 115 563 -22 353 -25 c 2
 320 -25 l 2xa0
 291 -25 255 -22 218 -9 c 2
 180 4 l 1
 250 202 l 1
 280 191 l 2x60
 290 187 311 185 320 185 c 2
 351 185 l 2
 428 186 443 222 458 276 c 2
 508 451 l 1
 90 1400 l 1
 319 1400 l 1
 597 769 l 1
 775 1400 l 1
 993 1400 l 1
 660 216 l 2xa0
EndSplineSet
Validated: 3073
EndChar

StartChar: Efcyrillic
Encoding: 1060 1060 316
Width: 1075
VWidth: 1947
GlyphClass: 2
Flags: W
HStem: -25 21G<433 643> 90 216<354.596 433 643 718.248> 1104 215<357.312 433 643 721.404> 1405 20G<433 643>
VStem: 41 210<432.693 971.014> 433 210<-25 99.0259 306 1104 1311.76 1425> 825 210<432.02 972.329>
CounterMasks: 1 0e
LayerCount: 2
Fore
SplineSet
433 306 m 1
 433 1104 l 1
 321 1068 251 958 251 700 c 0
 251 443 322 340 433 306 c 1
643 1104 m 1
 643 305 l 1
 755 338 825 443 825 700 c 0
 825 961 755 1069 643 1104 c 1
643 -25 m 1
 433 -25 l 1
 433 90 l 1
 249 121 41 251 41 700 c 0
 41 1154 249 1287 433 1319 c 1
 433 1425 l 1
 643 1425 l 1
 643 1320 l 1
 827 1289 1035 1156 1035 700 c 0
 1035 313 882 129 643 90 c 1
 643 -25 l 1
EndSplineSet
Validated: 3073
EndChar

StartChar: Tsecyrillic
Encoding: 1062 1062 318
Width: 1075
VWidth: 1947
GlyphClass: 2
Flags: W
HStem: 0 210<320 675> 1380 20G<110 320 675 885>
VStem: 110 210<210 1400> 675 210<211 1400>
LayerCount: 2
Fore
SplineSet
320 210 m 1
 675 210 l 1
 675 1400 l 1
 885 1400 l 1
 885 211 l 1
 1011 211 l 1
 1011 83 l 1
 866 -233 l 1
 675 -145 l 1
 742 0 l 1
 110 0 l 1
 110 1400 l 1
 320 1400 l 1
 320 210 l 1
EndSplineSet
Validated: 3073
EndChar

StartChar: Checyrillic
Encoding: 1063 1063 319
Width: 1075
VWidth: 1947
GlyphClass: 2
Flags: W
HStem: 0 21G<755 965> 407 210<361.075 755> 1380 20G<110 320 755 965>
VStem: 110 210<658.602 1400> 755 210<0 407 617 1400>
LayerCount: 2
Fore
SplineSet
320 782 m 2
 320 620 438 617 528 617 c 2
 755 617 l 1
 755 1400 l 1
 965 1400 l 1
 965 -0 l 1
 755 0 l 1
 755 407 l 1
 528 407 l 2
 439 407 244 414 151 595 c 0
 122 651 110 715 110 782 c 2
 110 1400 l 1
 320 1400 l 1
 320 782 l 2
EndSplineSet
Validated: 3073
EndChar

StartChar: Shacyrillic
Encoding: 1064 1064 320
Width: 1075
VWidth: 1947
GlyphClass: 2
Flags: W
HStem: -0 210<263 433 643 813> 1380 20G<53 263 813 1023>
VStem: 53 210<210 1400> 433 210<210 1152> 813 210<210 1400>
CounterMasks: 1 38
LayerCount: 2
Fore
SplineSet
643 210 m 1
 813 210 l 1
 813 1400 l 1
 1023 1400 l 1
 1023 0 l 1
 53 -0 l 1
 53 1400 l 1
 263 1400 l 1
 263 210 l 1
 433 210 l 1
 433 1152 l 1
 643 1152 l 1
 643 210 l 1
EndSplineSet
Validated: 3073
EndChar

StartChar: Shchacyrillic
Encoding: 1065 1065 321
Width: 1075
VWidth: 1947
GlyphClass: 2
Flags: W
HStem: -0 210<263 404 614 755> 1380 20G<53 263 755 965>
VStem: 53 210<210 1400> 404 210<210 1152> 755 210<211 1400>
CounterMasks: 1 38
LayerCount: 2
Fore
SplineSet
776 0 m 1
 53 -0 l 1
 53 1400 l 1
 263 1400 l 1
 263 210 l 1
 404 210 l 1
 404 1152 l 1
 614 1152 l 1
 614 210 l 1
 755 210 l 1
 755 1400 l 1
 965 1400 l 1
 965 211 l 1
 1045 211 l 1
 1045 83 l 1
 900 -233 l 1
 710 -145 l 1
 776 0 l 1
EndSplineSet
Validated: 3073
EndChar

StartChar: Hardsigncyrillic
Encoding: 1066 1066 322
Width: 1075
VWidth: 1947
GlyphClass: 2
Flags: W
HStem: 0 210<494 726.795> 610 210<494 718.181> 1380 20G<74 494>
VStem: 284 210<210 610 820 1190> 755 210<234.726 572.008>
LayerCount: 2
Fore
SplineSet
618 820 m 2
 657 820 795 819 892 690 c 0
 941 624 965 549 965 455 c 2
 965 347 l 2
 965 307 945 0 618 0 c 2
 284 0 l 1
 284 1190 l 1
 230 1190 l 1
 153 961 l 1
 74 961 l 1
 74 1400 l 1
 494 1400 l 1
 494 820 l 1
 618 820 l 2
755 455 m 2
 755 585 661 610 618 610 c 2
 494 610 l 1
 494 210 l 1
 618 210 l 2
 738 210 755 284 755 347 c 2
 755 455 l 2
EndSplineSet
Validated: 3073
EndChar

StartChar: Yericyrillic
Encoding: 1067 1067 323
Width: 1075
VWidth: 1947
GlyphClass: 2
Flags: W
HStem: 0 210<286 433.99> 659 210<286 420.11> 1380 20G<76 286 790 1000>
VStem: 76 210<210 659 869 1400> 467 210<245.267 617.731> 790 210<0 1400>
LayerCount: 2
Fore
SplineSet
286 869 m 1
 611 855 677 660 677 505 c 2
 677 347 l 2
 677 253 660 69 434 16 c 0
 400 8 347 0 259 0 c 2
 76 0 l 1
 76 1400 l 1
 286 1400 l 1
 286 869 l 1
467 347 m 2
 467 505 l 2
 467 624 390 654 286 659 c 1
 286 210 l 1
 453 215 467 275 467 347 c 2
1000 -0 m 1
 790 0 l 1
 790 1400 l 1
 1000 1400 l 1
 1000 -0 l 1
EndSplineSet
Validated: 3073
EndChar

StartChar: Softsigncyrillic
Encoding: 1068 1068 324
Width: 1075
VWidth: 1947
GlyphClass: 2
Flags: W
HStem: 0 210<320 733.259> 610 210<320 712.9> 1380 20G<110 320>
VStem: 110 210<210 610 820 1400> 755 210<240.273 565.908>
LayerCount: 2
Fore
SplineSet
755 445 m 2
 755 601 648 610 548 610 c 2
 320 610 l 1
 320 210 l 1
 548 210 l 2
 735 210 755 257 755 337 c 2
 755 445 l 2
548 820 m 2
 623 820 965 810 965 445 c 2
 965 337 l 2
 965 264 945 66 723 16 c 0
 689 8 636 0 548 0 c 2
 110 0 l 1
 110 1400 l 1
 320 1400 l 1
 320 820 l 1
 548 820 l 2
EndSplineSet
Validated: 3073
EndChar

StartChar: Ereversedcyrillic
Encoding: 1069 1069 325
Width: 1075
VWidth: 1947
GlyphClass: 2
Flags: W
HStem: -25 210<410.88 658.614> 651 210<453 762> 1046 21G<270.857 361> 1215 210<409.32 657.969>
VStem: 146 202<252.999 287.773 1099.35 1148.04> 767 210<333.496 651 860 1072.55>
LayerCount: 2
Fore
SplineSet
762 860 m 1
 745 1104 680 1215 538 1215 c 0
 437 1215 379 1174 343 1046 c 1
 141 1102 l 1
 198 1305 327 1425 538 1425 c 0
 925 1425 977 1028 977 700 c 0
 977 388 931 -25 538 -25 c 0
 374 -25 216 50 146 285 c 1
 348 345 l 1
 384 225 441 185 538 185 c 0
 701 185 762 335 767 651 c 1
 453 651 l 1
 453 861 l 1
 762 860 l 1
EndSplineSet
Validated: 3073
EndChar

StartChar: IUcyrillic
Encoding: 1070 1070 326
Width: 1075
VWidth: 1947
GlyphClass: 2
Flags: W
HStem: -25 210<663.063 758.412> 0 21G<53 263> 595 210<263 401.613> 1215 210<670.275 759.03> 1380 20G<53 263>
VStem: 53 210<0 595 805 1400> 400 209<257.447 595 805 1139.16> 813 210<245.835 1152.28>
LayerCount: 2
Fore
SplineSet
400 805 m 1x6f
 417 1119 440 1425 711 1425 c 3
 978 1425 1023 1179 1023 700 c 3
 1023 216 969 -25 711 -25 c 3xb7
 438 -25 417 267 400 595 c 1
 263 595 l 1
 263 -0 l 1
 53 0 l 1
 53 1400 l 1
 263 1400 l 1
 263 805 l 1
 400 805 l 1x6f
813 700 m 3
 813 905 801 1215 711 1215 c 3
 630 1215 609 905 609 700 c 3
 609 435 636 185 711 185 c 3
 795 185 813 450 813 700 c 3
EndSplineSet
Validated: 3073
EndChar

StartChar: IAcyrillic
Encoding: 1071 1071 327
Width: 1075
VWidth: 1947
GlyphClass: 2
Flags: W
HStem: -0 21G<56 305.655 755 965> 580 210<604 755> 1190 210<345.777 755>
VStem: 110 210<828.326 1158.46> 755 210<0 580 790 1190>
LayerCount: 2
Fore
SplineSet
374 596 m 1
 315 610 110 665 110 943 c 2
 110 1063 l 2
 110 1107 129 1311 324 1374 c 0
 401 1399 484 1400 528 1400 c 2
 965 1400 l 1
 965 -0 l 1
 755 0 l 1
 755 580 l 1
 604 580 l 1
 295 0 l 1
 56 -0 l 1
 374 596 l 1
320 943 m 2
 320 797 418 790 528 790 c 2
 755 790 l 1
 755 1190 l 1
 528 1190 l 2
 330 1190 320 1125 320 1063 c 2
 320 943 l 2
EndSplineSet
Validated: 3073
EndChar

StartChar: becyrillic
Encoding: 1073 1073 329
Width: 1075
VWidth: 2334
GlyphClass: 2
Flags: W
HStem: -25 210<396.57 691.42> 839 210<384.127 691.42> 1190 210<404.14 821.909>
VStem: 110 210<266.024 774.75> 755 210<252.615 769.783>
LayerCount: 2
Fore
SplineSet
528 1049 m 2
 548 1049 l 2
 805 1049 965 890 965 597 c 2
 965 427 l 2
 965 130 804 -25 548 -25 c 2
 528 -25 l 2
 302 -25 110 136 110 427 c 2
 110 923 l 2
 110 1260 329 1399 537 1400 c 3
 697 1400 717 1405 827 1441 c 1
 893 1241 l 1
 759 1197 715 1191 537 1190 c 3
 463 1190 356 1159 327 1008 c 1
 384 1035 452 1049 528 1049 c 2
320 597 m 2
 320 427 l 2
 320 266 406 185 528 185 c 2
 548 185 l 2
 673 185 755 234 755 427 c 2
 755 597 l 2
 755 788 673 839 548 839 c 2
 528 839 l 2
 403 839 320 788 320 597 c 2
EndSplineSet
Validated: 3073
EndChar

StartChar: vecyrillic
Encoding: 1074 1074 330
Width: 1075
VWidth: 2334
GlyphClass: 2
Flags: W
HStem: 0 210<320 751.58> 444 210<320 706.202> 814 210<320 702.466>
VStem: 110 210<210 444 654 814> 716 210<670.267 791.642> 777 210<240.391 409.035>
LayerCount: 2
Fore
SplineSet
987 316 m 2xf4
 987 208 954 0 571 0 c 2
 110 0 l 1
 110 1024 l 1
 509 1024 l 2
 573 1024 641 1022 721 996 c 0
 871 948 926 868 926 740 c 3xf8
 926 660 920 634 866 571 c 1
 940 515 987 431 987 325 c 2
 987 316 l 2xf4
777 325 m 2xf4
 777 441 624 444 570 444 c 2
 320 444 l 1
 320 210 l 1
 571 210 l 2
 765 210 777 280 777 316 c 2
 777 325 l 2xf4
716 740 m 3xf8
 716 796 622 814 509 814 c 2
 320 814 l 1
 320 654 l 1
 509 654 l 2
 696 654 716 678 716 740 c 3xf8
EndSplineSet
Validated: 3073
EndChar

StartChar: gecyrillic
Encoding: 1075 1075 331
Width: 1075
VWidth: 1947
GlyphClass: 2
Flags: W
HStem: -25 210<317.696 684.704> 839 210<359.373 714.74>
VStem: 76 210<223.703 353.996 687 772.381> 721 210<720.266 823.576> 755 210<250.551 337>
LayerCount: 2
Fore
SplineSet
76 687 m 1xf0
 76 874 263 1049 493 1049 c 2
 514 1049 l 2
 558 1049 624 1049 694 1033 c 0
 922 981 931 808 931 757 c 2
 931 745 l 2xf0
 931 709 927 594 759 527 c 2
 326 354 l 2
 293 340 286 321 286 301 c 2
 286 287 l 2
 286 209 412 185 493 185 c 2
 548 185 l 2
 689 185 755 285 755 337 c 1
 965 337 l 1xe8
 965 122 739 -25 548 -25 c 2
 493 -25 l 2
 390 -25 304 -0 236 36 c 0
 90 114 76 249 76 287 c 2
 76 301 l 2
 76 408 135 502 248 548 c 2
 685 723 l 2
 702 729 721 746 721 759 c 2
 721 771 l 2
 721 818 703 839 514 839 c 2
 493 839 l 2
 385 839 286 758 286 687 c 1
 76 687 l 1xf0
EndSplineSet
Validated: 3073
EndChar

StartChar: decyrillic
Encoding: 1076 1076 332
Width: 1075
VWidth: 1947
GlyphClass: 2
Flags: W
HStem: 0 211<377 732> 814 210<604.673 732>
VStem: 732 210<211 814>
LayerCount: 2
Fore
SplineSet
243 624 m 1
 282 850 530 1006 692 1024 c 1
 942 1024 l 1
 942 211 l 1
 1012 211 l 1
 1012 -3 l 1
 951 -162 l 1
 802 -162 l 1
 802 0 l 1
 274 0 l 1
 274 -162 l 1
 122 -162 l 1
 64 -7 l 1
 64 211 l 1
 163 211 l 1
 243 624 l 1
377 211 m 1
 732 211 l 1
 732 814 l 1
 711 814 l 1
 600 791 467 690 449 586 c 1
 377 211 l 1
EndSplineSet
Validated: 3073
EndChar

StartChar: zhecyrillic
Encoding: 1078 1078 334
Width: 1075
VWidth: 1947
GlyphClass: 2
Flags: W
HStem: 0 21G<56 292.607 433 643 782.358 1020> 1004 20G<433 643>
VStem: 433 210<0 156 625 1024>
LayerCount: 2
Fore
SplineSet
433 625 m 1
 433 1024 l 1
 643 1024 l 1
 643 625 l 1
 873 1085 l 1
 1061 991 l 1
 809 488 l 1
 1020 0 l 1
 791 0 l 1
 686 243 l 1
 643 156 l 1
 643 0 l 1
 433 0 l 1
 433 156 l 1
 389 244 l 1
 284 0 l 1
 56 0 l 1
 266 490 l 1
 15 991 l 1
 203 1085 l 1
 433 625 l 1
EndSplineSet
Validated: 3073
EndChar

StartChar: zecyrillic
Encoding: 1079 1079 335
Width: 1075
VWidth: 1947
GlyphClass: 2
Flags: W
HStem: -25 210<367.953 707.373> 455 210<424 679.105> 838 210<356.885 695.202>
VStem: 703 210<695.138 820.228> 755 210<230.117 410.8>
LayerCount: 2
Fore
SplineSet
703 776 m 2xf0
 703 788 681 838 548 838 c 2
 504 838 l 2
 418 838 336 801 309 739 c 1
 117 823 l 1
 186 983 359 1048 504 1048 c 2
 548 1048 l 2
 622 1048 663 1042 731 1014 c 0
 851 964 913 871 913 776 c 2
 913 765 l 2xf0
 913 720 906 636 842 577 c 1
 917 514 965 437 965 334 c 2
 965 314 l 2
 965 262 958 218 917 152 c 0
 843 35 704 -25 548 -25 c 2
 528 -25 l 2
 230 -25 110 168 110 297 c 1
 320 297 l 1
 320 278 327 259 357 236 c 0
 418 190 498 185 528 185 c 2
 548 185 l 2
 637 185 755 216 755 314 c 2
 755 334 l 2xe8
 755 357 745 379 727 398 c 0
 681 445 610 455 548 455 c 2
 424 455 l 1
 424 665 l 1
 550 665 l 2
 627 665 703 700 703 765 c 2
 703 776 l 2xf0
EndSplineSet
Validated: 3073
EndChar

StartChar: iicyrillic
Encoding: 1080 1080 336
Width: 1075
VWidth: 1947
GlyphClass: 2
Flags: W
HStem: -0 21G<110 301.928 755 965> 1004 20G<110 320 774.087 965>
VStem: 110 210<395 1024> 755 210<0 627>
LayerCount: 2
Fore
SplineSet
110 0 m 1
 110 1024 l 1
 320 1024 l 1
 320 395 l 1
 789 1024 l 1
 965 1024 l 1
 965 0 l 1
 755 -0 l 1
 755 627 l 1
 287 0 l 1
 110 0 l 1
EndSplineSet
Validated: 3073
EndChar

StartChar: kacyrillic
Encoding: 1082 1082 338
Width: 1075
VWidth: 1947
GlyphClass: 2
Flags: W
HStem: 0 21G<110 320 702.457 999> 1004 20G<110 320>
VStem: 110 210<0 120 450 1024>
LayerCount: 2
Fore
SplineSet
320 0 m 1
 110 0 l 1
 110 1024 l 1
 320 1024 l 1
 320 450 l 1
 814 1050 l 1
 976 916 l 1
 598 458 l 1
 999 0 l 1
 720 0 l 1
 463 293 l 1
 320 120 l 1
 320 0 l 1
EndSplineSet
Validated: 3073
EndChar

StartChar: elcyrillic
Encoding: 1083 1083 339
Width: 1075
VWidth: 1947
GlyphClass: 2
Flags: W
HStem: 0 21G<67 292.972 755 965> 813 211<633.944 755>
VStem: 755 210<0 813>
LayerCount: 2
Fore
SplineSet
257 632 m 2
 285 725 383 918 684 1024 c 1
 965 1024 l 1
 965 -0 l 1
 755 0 l 1
 755 813 l 1
 719 813 l 1
 593 765 483 658 459 576 c 2
 287 0 l 1
 67 0 l 1
 257 632 l 2
EndSplineSet
Validated: 3073
EndChar

StartChar: emcyrillic
Encoding: 1084 1084 340
Width: 1075
VWidth: 1947
GlyphClass: 2
Flags: W
HStem: 0 21G<17 230.844 845.228 1059> 1004 20G<110.145 337.337 739.628 966.836>
LayerCount: 2
Fore
SplineSet
229 0 m 1
 17 0 l 1
 112 1024 l 1
 330 1024 l 1
 538 457 l 1
 747 1024 l 1
 965 1024 l 1
 1059 0 l 1
 847 0 l 1
 798 553 l 1
 633 106 l 1
 443 106 l 1
 280 553 l 1
 229 0 l 1
EndSplineSet
Validated: 3073
EndChar

StartChar: encyrillic
Encoding: 1085 1085 341
Width: 1075
VWidth: 1947
GlyphClass: 2
Flags: W
HStem: 0 21G<110 320 755 965> 365 210<320 755> 1004 20G<110 320 755 965>
VStem: 110 210<0 365 575 1024> 755 210<0 365 575 1024>
LayerCount: 2
Fore
SplineSet
320 -0 m 1
 110 0 l 1
 110 1024 l 1
 320 1024 l 1
 320 575 l 1
 755 575 l 1
 755 1024 l 1
 965 1024 l 1
 965 -0 l 1
 755 0 l 1
 755 365 l 1
 320 365 l 1
 320 -0 l 1
EndSplineSet
Validated: 3073
EndChar

StartChar: tecyrillic
Encoding: 1090 1090 346
Width: 1075
VWidth: 1947
GlyphClass: 2
Flags: W
HStem: -0 21G<433 643> 815 209<86 433 643 990>
VStem: 433 210<0 815>
LayerCount: 2
Fore
SplineSet
990 1024 m 1
 990 815 l 1
 643 815 l 1
 643 0 l 1
 433 -0 l 1
 433 815 l 1
 86 815 l 1
 86 1024 l 1
 990 1024 l 1
EndSplineSet
Validated: 3073
EndChar

StartChar: efcyrillic
Encoding: 1092 1092 348
Width: 1075
VWidth: 1947
GlyphClass: 2
Flags: W
HStem: -385 21G<433 643> -17 213<343.888 433 643 732.112> 758 215<350.924 433 643 725.363> 1029 20G<433 643>
VStem: 53 210<284.226 662.019> 433 210<-385 -9.02515 196 758 964.353 1049> 813 210<284.226 661.813>
CounterMasks: 1 0e
LayerCount: 2
Fore
SplineSet
433 196 m 1
 433 758 l 1
 328 729 263 646 263 473 c 0
 263 298 329 222 433 196 c 1
643 758 m 1
 643 196 l 1
 747 222 813 298 813 473 c 0
 813 646 748 729 643 758 c 1
643 -385 m 1
 433 -385 l 1
 433 -17 l 1
 207 18 53 173 53 473 c 0
 53 767 204 935 433 973 c 1
 433 1049 l 1
 643 1049 l 1
 643 973 l 1
 873 935 1023 766 1023 473 c 0
 1023 173 869 18 643 -17 c 1
 643 -385 l 1
EndSplineSet
Validated: 3073
EndChar

StartChar: tsecyrillic
Encoding: 1094 1094 350
Width: 1075
VWidth: 2334
GlyphClass: 2
Flags: W
HStem: -25 210<347.905 628.54> 1004 20G<110 320 755 965>
VStem: 110 210<217.578 1024> 755 210<22.5322 61 327.627 1024> 804 210<-105.296 55.4106>
LayerCount: 2
Fore
SplineSet
320 337 m 2xf0
 320 246 336 185 504 185 c 2
 525 185 l 2
 641 185 755 364 755 447 c 2
 755 1024 l 1
 965 1024 l 1
 965 147 l 1xf0
 1010 85 1014 6 1014 -56 c 3
 1014 -162 920 -265 818 -320 c 1
 718 -136 l 1
 781 -102 804 -56 804 -56 c 3xe8
 804 9 800 23 755 59 c 1
 755 61 l 1
 688 9 610 -25 525 -25 c 2
 504 -25 l 2
 150 -25 110 188 110 337 c 2
 110 1024 l 1
 320 1024 l 1
 320 337 l 2xf0
EndSplineSet
Validated: 3073
EndChar

StartChar: checyrillic
Encoding: 1095 1095 351
Width: 1075
VWidth: 1947
GlyphClass: 2
Flags: W
HStem: 0 21G<755 965> 322 210<351.005 623.973> 1004 20G<110 320 755 965>
VStem: 110 210<563.314 1024> 755 210<0 411 682.635 1024>
LayerCount: 2
Fore
SplineSet
320 697 m 2
 320 609 325 532 504 532 c 2
 525 532 l 2
 639 532 755 722 755 807 c 2
 755 1024 l 1
 965 1024 l 1
 965 -0 l 1
 755 0 l 1
 755 411 l 1
 688 357 610 322 525 322 c 2
 504 322 l 2
 123 322 110 591 110 697 c 2
 110 1024 l 1
 320 1024 l 1
 320 697 l 2
EndSplineSet
Validated: 3073
EndChar

StartChar: shacyrillic
Encoding: 1096 1096 352
Width: 1075
VWidth: 2334
GlyphClass: 2
Flags: W
HStem: -25 210<279.057 398.816 645.212 772.875> 1004 20G<64 274 433 643 802 1012>
VStem: 64 210<188.984 1024> 433 210<212.288 1024> 802 210<207.754 1024>
CounterMasks: 1 38
LayerCount: 2
Fore
SplineSet
706 185 m 2
 777 185 802 286 802 337 c 2
 802 1024 l 1
 1012 1024 l 1
 1012 0 l 1
 818 -0 l 1
 769 -21 730 -25 706 -25 c 2
 694 -25 l 2
 616 -25 581 -21 509 38 c 1
 438 -19 359 -25 337 -25 c 2
 325 -25 l 2
 64 -25 64 198 64 247 c 2
 64 1024 l 1
 274 1024 l 1
 274 247 l 2
 274 199 289 185 325 185 c 2
 337 185 l 2
 399 185 433 286 433 337 c 2
 433 1024 l 1
 643 1024 l 1
 643 247 l 2
 643 201 660 185 694 185 c 2
 706 185 l 2
EndSplineSet
Validated: 3073
EndChar

StartChar: shchacyrillic
Encoding: 1097 1097 353
Width: 1075
VWidth: 2334
GlyphClass: 2
Flags: W
HStem: -25 210<279.057 403.875 645.763 772.875> 1004 20G<64 274 433 643 802 1012>
VStem: 64 210<188.984 1024> 433 210<207.754 1024> 802 210<207.754 1024> 853 210<-101.932 12.9358>
LayerCount: 2
Fore
SplineSet
337 185 m 2xf4
 408 185 433 286 433 337 c 2
 433 1024 l 1
 643 1024 l 1
 643 247 l 2
 643 205 657 185 694 185 c 2
 706 185 l 2
 777 185 802 286 802 337 c 2
 802 1024 l 1
 1012 1024 l 1
 1012 149 l 1xf8
 1028 127 1063 61 1063 -21 c 3
 1063 -111 1021 -222 864 -320 c 1
 764 -136 l 1
 832 -94 853 -52 853 -19 c 3
 853 -5 853 -1 845 14 c 1
 782 -24 725 -25 708 -25 c 0
 707 -25 707 -25 706 -25 c 2
 694 -25 l 2
 599 -25 557 -8 509 38 c 1
 437 -21 358 -25 337 -25 c 2
 325 -25 l 2
 64 -25 64 198 64 247 c 2
 64 1024 l 1
 274 1024 l 1
 274 247 l 2
 274 201 289 185 325 185 c 2
 337 185 l 2xf4
EndSplineSet
Validated: 3073
EndChar

StartChar: hardsigncyrillic
Encoding: 1098 1098 354
Width: 1075
VWidth: 1947
GlyphClass: 2
Flags: W
HStem: 0 209<494 723.304> 456 210<494 721.068>
VStem: 74 83<572 616.364> 284 210<209 456 666 801> 755 210<245.014 418.091>
LayerCount: 2
Fore
SplineSet
548 666 m 2
 611 666 705 660 804 606 c 0
 893 558 965 474 965 357 c 2
 965 311 l 2
 965 276 951 138 805 60 c 0
 737 24 651 1 548 0 c 2
 284 0 l 1
 284 801 l 1
 231 801 l 1
 157 572 l 1
 74 572 l 1
 74 1011 l 1
 494 1011 l 1
 494 666 l 1
 548 666 l 2
755 357 m 2
 755 416 657 456 548 456 c 2
 494 456 l 1
 494 209 l 1
 548 209 l 2
 629 209 755 233 755 311 c 2
 755 357 l 2
EndSplineSet
Validated: 3073
EndChar

StartChar: yericyrillic
Encoding: 1099 1099 355
Width: 1075
VWidth: 1947
GlyphClass: 2
Flags: W
HStem: 0 210<263 416.801> 456 210<263 415.79> 1004 20G<53 263 813 1023>
VStem: 53 210<210 456 666 1024> 467 210<244.726 420.687> 813 210<0 1024>
LayerCount: 2
Fore
SplineSet
263 666 m 1
 283 666 l 2
 377 666 457 644 519 611 c 0
 663 534 677 375 677 357 c 2
 677 311 l 2
 677 197 614 108 520 56 c 0
 431 7 351 0 283 0 c 2
 53 0 l 1
 53 1024 l 1
 263 1024 l 1
 263 666 l 1
813 1024 m 1
 1023 1024 l 1
 1023 0 l 1
 813 -0 l 1
 813 1024 l 1
263 210 m 1
 283 210 l 2
 330 210 372 213 419 239 c 0
 459 261 467 288 467 311 c 2
 467 357 l 2
 467 374 466 400 418 427 c 0
 371 453 314 456 283 456 c 2
 263 456 l 1
 263 210 l 1
EndSplineSet
Validated: 3073
EndChar

StartChar: softsigncyrillic
Encoding: 1100 1100 356
Width: 1075
VWidth: 1947
GlyphClass: 2
Flags: W
HStem: -0 210<320 722.061> 456 210<320 721.741> 1028 20G<110 320>
VStem: 110 210<210 456 666 1048> 755 210<248.589 416.575>
LayerCount: 2
Fore
SplineSet
320 666 m 1
 548 666 l 2
 650 666 735 640 804 609 c 0
 954 542 965 390 965 357 c 2
 965 311 l 2
 965 194 893 109 804 60 c 0
 705 6 611 0 548 0 c 2
 110 -0 l 1
 110 1048 l 1
 320 1048 l 1
 320 666 l 1
755 357 m 2
 755 448 566 456 548 456 c 2
 320 456 l 1
 320 210 l 1
 548 210 l 2
 661 210 755 250 755 311 c 2
 755 357 l 2
EndSplineSet
Validated: 3073
EndChar

StartChar: ereversedcyrillic
Encoding: 1101 1101 357
Width: 1075
VWidth: 1947
GlyphClass: 2
Flags: W
HStem: -25 210<335.046 661.107> 407 210<372 738> 838 210<338.769 675.075>
VStem: 738 210<266.41 407 617 769.661>
LayerCount: 2
Fore
SplineSet
116 833 m 1
 145 899 195 1048 510 1048 c 2
 531 1048 l 2
 788 1048 948 890 948 597 c 2
 948 427 l 2
 948 137 756 -25 531 -25 c 2
 510 -25 l 2
 411 -25 197 -21 119 183 c 1
 315 257 l 1
 333 207 391 185 510 185 c 2
 531 185 l 2
 647 185 731 259 738 407 c 1
 372 407 l 1
 372 617 l 1
 738 617 l 1
 732 792 651 838 531 838 c 2
 510 838 l 2
 340 838 325 788 314 763 c 1
 116 833 l 1
EndSplineSet
Validated: 3073
EndChar

StartChar: iucyrillic
Encoding: 1102 1102 358
Width: 1075
VWidth: 1947
GlyphClass: 2
Flags: W
HStem: -25 210<627.062 754.845> 0 21G<64 274> 407 210<274 371.396> 838 210<624.836 752.968> 1004 20G<64 274>
VStem: 64 210<0 407 617 1024> 368 207<244.578 407 617 785.069> 802 210<234.619 783.083>
LayerCount: 2
Fore
SplineSet
368 617 m 1x6f
 390 834 456 1048 688 1048 c 3
 932 1048 1012 838 1012 513 c 3
 1012 178 933 -25 688 -25 c 3xb7
 426 -25 388 182 368 407 c 1
 274 407 l 1
 274 -0 l 1
 64 0 l 1
 64 1024 l 1
 274 1024 l 1
 274 617 l 1
 368 617 l 1x6f
688 185 m 3
 790 185 802 378 802 513 c 27
 802 647 782 838 688 838 c 3
 594 838 575 647 575 513 c 27
 575 378 596 185 688 185 c 3
EndSplineSet
Validated: 3073
EndChar

StartChar: iacyrillic
Encoding: 1103 1103 359
Width: 1075
VWidth: 1947
GlyphClass: 2
Flags: W
HStem: -0 21G<755 965> 382 210<614 755> 813 211<349.993 755>
VStem: 110 210<630.384 775.909> 755 210<0 382 592 813>
LayerCount: 2
Fore
SplineSet
367 408 m 1
 123 465 110 682 110 699 c 2
 110 720 l 2
 110 844 190 939 290 981 c 0
 377 1018 457 1022 528 1024 c 1
 965 1024 l 1
 965 0 l 1
 755 -0 l 1
 755 382 l 1
 614 382 l 1
 274 -47 l 1
 110 83 l 1
 367 408 l 1
320 699 m 2
 320 613 455 592 528 592 c 2
 755 592 l 1
 755 813 l 1
 528 813 l 1
 399 809 320 769 320 720 c 2
 320 699 l 2
EndSplineSet
Validated: 3073
EndChar

StartChar: ecyrillic
Encoding: 1108 1108 362
Width: 1075
VWidth: 1947
GlyphClass: 2
Flags: W
HStem: -25 210<415.893 739.929> 407 210<339 706> 838 210<401.925 738.231>
VStem: 129 210<266.41 407 617 769.661>
LayerCount: 2
Fore
SplineSet
763 763 m 1
 752 790 735 838 567 838 c 2
 546 838 l 2
 426 838 345 792 339 617 c 1
 706 617 l 1
 706 407 l 1
 339 407 l 1
 346 259 430 185 546 185 c 2
 567 185 l 2
 686 185 744 207 762 257 c 1
 958 183 l 1
 880 -20 678 -25 567 -25 c 2
 546 -25 l 2
 321 -25 129 137 129 427 c 2
 129 597 l 2
 129 890 289 1048 546 1048 c 2
 567 1048 l 2
 882 1048 932 899 961 833 c 1
 763 763 l 1
EndSplineSet
Validated: 3073
EndChar

StartChar: numero
Encoding: 8470 8470 372
Width: 1075
VWidth: 1947
Flags: W
HStem: 0 21G<44 254 391.938 612> 1380 20G<44 264.062 402 612>
VStem: 44 210<0 565 1345.27 1400> 402 210<0 54.7286 1021 1400> 873 190<688.62 1081.61>
LayerCount: 2
Fore
SplineSet
612 1021 m 1
 636 1248 750 1330 835 1330 c 3
 863 1330 931 1328 989 1248 c 0
 1028 1193 1063 1096 1063 887 c 3
 1063 803 1030 441 835 441 c 3
 771 441 645 462 612 757 c 1
 612 0 l 1
 397 0 l 1
 254 565 l 1
 254 0 l 1
 44 -0 l 1
 44 1400 l 1
 259 1400 l 1
 402 835 l 1
 402 1400 l 1
 612 1400 l 1
 612 1021 l 1
825 687 m 3
 857 687 873 807 873 887 c 27
 873 966 861 1085 825 1085 c 3
 797 1085 777 966 777 887 c 27
 777 807 795 687 825 687 c 3
EndSplineSet
Validated: 3073
EndChar

StartChar: caroncomb
Encoding: 780 780 377
Width: 1075
VWidth: 1947
Flags: W
HStem: 1422 239
VStem: 295 486
LayerCount: 2
Fore
SplineSet
538 1552 m 1
 695 1661 l 1
 781 1539 l 1
 615 1422 l 1
 461 1422 l 1
 295 1539 l 1
 381 1661 l 1
 538 1552 l 1
EndSplineSet
Validated: 3073
EndChar

StartChar: gravecomb
Encoding: 768 768 379
Width: 1075
VWidth: 2334
Flags: MW
HStem: 1319 407
VStem: 369 398
DStem2: 510 1726 369 1591 0.68678 -0.726865<1.29072 374.21>
LayerCount: 2
Fore
SplineSet
767 1454 m 5
 626 1319 l 5
 369 1591 l 5
 510 1726 l 5
 767 1454 l 5
EndSplineSet
Validated: 3073
EndChar

StartChar: acutecomb
Encoding: 769 769 380
Width: 1075
VWidth: 2334
Flags: MW
HStem: 1319 407
VStem: 309 398
DStem2: 309 1454 450 1319 0.68678 0.726865<0 372.919>
LayerCount: 2
Fore
SplineSet
450 1319 m 5
 309 1454 l 5
 566 1726 l 5
 707 1591 l 5
 450 1319 l 5
EndSplineSet
Validated: 3073
EndChar

StartChar: tildecomb
Encoding: 771 771 381
Width: 1075
VWidth: 1947
Flags: W
HStem: 1447 150<568.199 728.391> 1537 150<348.718 508.66>
VStem: 200 677
LayerCount: 2
Fore
SplineSet
220 1574 m 2x60
 265 1629 318 1687 421 1687 c 2
 437 1687 l 2x60
 499 1687 524 1680 578 1632 c 2
 597 1615 l 2
 606 1608 622 1597 638 1597 c 2
 655 1597 l 2
 692 1597 707 1609 740 1654 c 2
 757 1677 l 1
 877 1587 l 1
 860 1564 l 2
 784 1462 727 1447 655 1447 c 2
 638 1447 l 2xa0
 582 1447 548 1460 497 1503 c 2
 478 1519 l 2
 468 1527 453 1537 437 1537 c 2
 421 1537 l 2
 393 1537 364 1514 338 1481 c 2
 318 1456 l 1
 200 1548 l 1
 220 1574 l 2x60
EndSplineSet
Validated: 3073
EndChar

StartChar: hookabovecomb
Encoding: 777 777 382
Width: 1075
VWidth: 1947
Flags: W
HStem: 1255 187<470 619.278> 1551 130<379.448 662.564>
VStem: 470 150<1255 1323.21> 668 150<1450.66 1539.96>
LayerCount: 2
Fore
SplineSet
818 1495 m 3
 818 1350 664 1321 620 1315 c 1
 620 1255 l 1
 470 1255 l 1
 470 1442 l 1
 545 1442 l 2
 661 1442 668 1473 668 1495 c 3
 668 1511 643 1551 557 1551 c 1
 494 1550 455 1535 397 1506 c 1
 315 1612 l 1
 387 1659 460 1681 557 1681 c 3
 751 1681 818 1606 818 1495 c 3
EndSplineSet
Validated: 3073
EndChar

StartChar: dotbelowcomb
Encoding: 803 803 383
Width: 1075
VWidth: 2334
Flags: W
HStem: -409 312<430.52 646.047>
VStem: 383 312<-360.57 -145.43>
LayerCount: 2
Fore
SplineSet
383 -253 m 7
 383 -167 451 -97 538 -97 c 7
 624 -97 695 -167 695 -253 c 7
 695 -339 624 -409 538 -409 c 7
 451 -409 383 -339 383 -253 c 7
EndSplineSet
Validated: 3073
EndChar

StartChar: commaturnedabovecmb
Encoding: 786 786 396
Width: 1075
VWidth: 1947
Flags: W
HStem: -486 150<444.786 680.426> -207 225<500 644.375>
VStem: 500 150<-74.4093 18> 689 150<-321.354 -217.949>
LayerCount: 2
Fore
SplineSet
689 -270 m 1
 689 -210 611 -209 566 -207 c 1
 486 -207 l 1
 500 3 l 1
 500 18 l 1
 650 18 l 1
 650 -3 l 1
 646 -63 l 1
 825 -95 839 -224 839 -270 c 1
 837 -290 840 -369 748 -434 c 0
 706 -463 646 -486 578 -486 c 0
 478 -486 395 -449 328 -391 c 1
 426 -277 l 1
 465 -311 514 -336 578 -336 c 0
 614 -336 681 -319 689 -270 c 1
EndSplineSet
Validated: 3073
EndChar

StartChar: Hbar
Encoding: 294 294 400
Width: 1075
VWidth: 1947
Flags: W
HStem: 0 21G<110 320 755 965> 595 210<320 755> 1055 210<60 110 320 755 965 1015> 1380 20G<110 320 755 965>
VStem: 110 210<0 595 805 1055 1265 1400> 755 210<0 595 805 1055 1265 1400>
LayerCount: 2
Fore
SplineSet
320 805 m 1
 755 805 l 1
 755 1055 l 1
 320 1055 l 1
 320 805 l 1
320 -0 m 1
 110 0 l 1
 110 1055 l 1
 60 1055 l 1
 60 1265 l 1
 110 1265 l 1
 110 1400 l 1
 320 1400 l 1
 320 1265 l 1
 755 1265 l 1
 755 1400 l 1
 965 1400 l 1
 965 1265 l 1
 1015 1265 l 1
 1015 1055 l 1
 965 1055 l 1
 965 -0 l 1
 755 0 l 1
 755 595 l 1
 320 595 l 1
 320 -0 l 1
EndSplineSet
Validated: 3073
EndChar

StartChar: hbar
Encoding: 295 295 401
Width: 1075
VWidth: 2334
Flags: W
HStem: 0 21G<110 320 755 965> 839 210<423.792 717.335> 1135 210<60 110 320 595> 1380 20G<110 320>
VStem: 110 210<0 723.712 981 1135 1345 1400> 755 210<0 802.343>
LayerCount: 2
Fore
SplineSet
755 687 m 1
 753 746 762 839 548 839 c 2
 528 839 l 2
 409 839 320 677 320 597 c 2
 320 -0 l 1
 110 0 l 1
 110 1135 l 1
 60 1135 l 1
 60 1345 l 1
 110 1345 l 1
 110 1400 l 1
 320 1400 l 1
 320 1345 l 1
 595 1345 l 1
 595 1135 l 1
 320 1135 l 1
 320 981 l 1
 380 1023 450 1049 528 1049 c 2
 548 1049 l 2
 974 1049 962 741 965 687 c 1
 965 0 l 1
 755 -0 l 1
 755 687 l 1
EndSplineSet
Validated: 3073
EndChar

StartChar: IJ
Encoding: 306 306 410
Width: 1075
VWidth: 1947
Flags: W
HStem: -13 210<117 243 453 639> 232 210<504 609.49> 1203 210<117 243 453 622 832 959>
VStem: 243 210<197 1203> 622 210<445.302 1203>
LayerCount: 2
Fore
SplineSet
832 597 m 2
 832 249 617 232 592 232 c 2
 504 232 l 1
 504 442 l 1
 592 442 l 2
 604 442 622 501 622 597 c 2
 622 1203 l 1
 453 1203 l 1
 453 197 l 1
 639 197 l 1
 639 -13 l 1
 117 -13 l 1
 117 197 l 1
 243 197 l 1
 243 1203 l 1
 117 1203 l 1
 117 1413 l 1
 959 1413 l 1
 959 1203 l 1
 832 1203 l 1
 832 597 l 2
EndSplineSet
Validated: 3073
EndChar

StartChar: Tbar
Encoding: 358 358 430
Width: 1075
VWidth: 1947
Flags: W
HStem: -0 21G<433 643> 455 210<86 433 643 990> 1190 210<86 433 643 990>
VStem: 433 210<0 455 665 1190>
LayerCount: 2
Fore
SplineSet
990 1400 m 1
 990 1190 l 1
 643 1190 l 1
 643 665 l 1
 990 665 l 1
 990 455 l 1
 643 455 l 1
 643 0 l 1
 433 -0 l 1
 433 455 l 1
 86 455 l 1
 86 665 l 1
 433 665 l 1
 433 1190 l 1
 86 1190 l 1
 86 1400 l 1
 990 1400 l 1
EndSplineSet
Validated: 3073
EndChar

StartChar: tbar
Encoding: 359 359 431
Width: 1075
VWidth: 1947
Flags: W
HStem: -25 210<511.834 722.714> 455 210<86 307 529 990> 798 210<109 327 549 860> 1405 20G<361.849 574>
VStem: 295 210<200.586 455>
LayerCount: 2
Fore
SplineSet
629 185 m 2
 677 185 728 212 732 247 c 1
 942 247 l 1
 934 189 939 185 913 133 c 0
 913 133 831 -25 629 -25 c 2
 609 -25 l 1
 585 -23 547 -24 492 -4 c 0
 368 42 295 144 295 242 c 2
 295 254 l 1
 307 455 l 1
 86 455 l 1
 86 665 l 1
 319 665 l 1
 327 798 l 1
 109 798 l 1
 109 1008 l 1
 339 1008 l 1
 363 1425 l 1
 574 1425 l 1
 549 1008 l 1
 860 1008 l 1
 860 798 l 1
 537 798 l 1
 529 665 l 1
 990 665 l 1
 990 455 l 1
 517 455 l 1
 505 242 l 2
 505 241 519 193 609 185 c 1
 629 185 l 2
EndSplineSet
Validated: 3073
EndChar

StartChar: A
Encoding: 65 65 461
Width: 1075
VWidth: 1708
Flags: W
HStem: 0 21G<85 307.023 768.977 991> 219 210<411 665> 1405 20G<441.919 634.081>
LayerCount: 2
Fore
SplineSet
411 429 m 1
 665 429 l 1
 538 931 l 1
 411 429 l 1
302 0 m 1
 85 0 l 1
 447 1425 l 1
 629 1425 l 1
 991 0 l 1
 774 0 l 1
 719 219 l 1
 357 219 l 1
 302 0 l 1
EndSplineSet
Validated: 3073
EndChar

StartChar: Lambda
Encoding: 923 923 462
Width: 1075
VWidth: 1708
Flags: W
HStem: 0 21G<83 305.112 773.866 996> 1405 20G<440.905 634.151>
LayerCount: 2
Fore
SplineSet
300 0 m 1
 83 0 l 1
 446 1425 l 1
 629 1425 l 1
 996 0 l 1
 779 0 l 1
 539 935 l 1
 300 0 l 1
EndSplineSet
Validated: 3073
EndChar

StartChar: Delta
Encoding: 916 916 463
Width: 1075
VWidth: 1708
Flags: W
HStem: -0 210<351 725> 1405 20G<441.835 634.137>
LayerCount: 2
Fore
SplineSet
725 211 m 1
 538 937 l 1
 351 210 l 1
 725 211 l 1
79 -0 m 1
 447 1425 l 1
 629 1425 l 1
 995 0 l 1
 79 -0 l 1
EndSplineSet
Validated: 3073
EndChar

StartChar: Theta
Encoding: 920 920 464
Width: 1075
VWidth: 1947
Flags: W
HStem: -25 210<418.815 656.064> 594 210<417 659> 1215 210<418.625 658.206>
VStem: 99 210<331.652 1074.11> 417 242<594 804> 767 210<335.191 1074.48>
CounterMasks: 1 1c
LayerCount: 2
Fore
SplineSet
977 700 m 0
 977 364 920 -25 538 -25 c 0
 144 -25 99 388 99 700 c 0
 99 1028 151 1425 538 1425 c 0
 928 1425 977 1027 977 700 c 0
538 1215 m 0
 368 1215 309 1056 309 700 c 0
 309 334 373 185 538 185 c 0
 705 185 767 341 767 700 c 0
 767 1059 710 1215 538 1215 c 0
659 804 m 1
 659 594 l 1
 417 594 l 1
 417 804 l 1
 659 804 l 1
EndSplineSet
Validated: 3073
EndChar

StartChar: Xi
Encoding: 926 926 465
Width: 1075
VWidth: 1708
Flags: W
HStem: -0 337<110 320 755 965> -0 210<320 755> 595 210<349 727> 1049 351<110 320 755 965> 1190 210<320 755>
VStem: 110 210<210 337 1049 1190> 349 378<595 805> 755 210<210 337 1049 1190>
LayerCount: 2
Fore
SplineSet
320 210 m 1x67
 755 210 l 1x67
 755 337 l 1
 965 337 l 1
 965 0 l 1
 110 -0 l 1
 110 337 l 1
 320 337 l 1xa7
 320 210 l 1x67
727 805 m 1
 727 595 l 1
 349 595 l 1
 349 805 l 1
 727 805 l 1
110 1049 m 1x37
 110 1400 l 1
 965 1400 l 1
 965 1049 l 1
 755 1049 l 1x37
 755 1190 l 1
 320 1190 l 1x2f
 320 1049 l 1
 110 1049 l 1x37
EndSplineSet
Validated: 3073
EndChar

StartChar: Sigma
Encoding: 931 931 468
Width: 1075
VWidth: 1947
Flags: W
HStem: 0 210<366 967> 1190 210<367 967>
LayerCount: 2
Fore
SplineSet
109 1400 m 1
 967 1400 l 1
 967 1190 l 1
 367 1190 l 1
 662 702 l 1
 366 210 l 1
 967 210 l 1
 967 0 l 1
 109 0 l 1
 109 189 l 1
 416 702 l 1
 109 1211 l 1
 109 1400 l 1
EndSplineSet
Validated: 3073
EndChar

StartChar: Psi
Encoding: 936 936 473
Width: 1075
VWidth: 1947
Flags: W
HStem: -24 21G<433 643> 407 210<307.887 433 643 767.93> 1405 20G<433 643>
VStem: 87 210<632.791 1320> 433 210<-24 407 617 1425> 779 210<633.051 1320>
CounterMasks: 1 1c
LayerCount: 2
Fore
SplineSet
297 696 m 2
 297 684 306 617 405 617 c 2
 433 617 l 1
 433 1425 l 1
 643 1425 l 1
 643 617 l 1
 671 617 l 2
 779 617 779 680 779 696 c 2
 779 1320 l 1
 989 1320 l 1
 989 696 l 2
 989 520 853 407 671 407 c 2
 643 407 l 1
 643 -24 l 1
 433 -24 l 1
 433 407 l 1
 405 407 l 2
 375 407 324 409 259 441 c 0
 170 485 87 579 87 696 c 2
 87 1320 l 1
 297 1320 l 1
 297 696 l 2
EndSplineSet
Validated: 3073
EndChar

StartChar: Omega
Encoding: 937 937 474
Width: 1075
VWidth: 1947
Flags: W
HStem: 0 210<109 236 840 967> 1215 210<396.974 682.233>
VStem: 99 210<547.958 1117.82> 236 210<210 399.817> 630 210<210 391.075> 767 210<548.641 1116.21>
LayerCount: 2
Fore
SplineSet
236 210 m 1xd0
 236 335 l 1xd0
 116 482 99 681 99 830 c 0
 99 1157 178 1425 538 1425 c 0
 920 1425 977 1111 977 830 c 0xe4
 977 663 953 463 839 332 c 1
 840 210 l 1
 967 210 l 1
 967 0 l 1
 630 0 l 1
 630 422 l 1xc8
 664 454 l 2
 759 543 767 755 767 830 c 0
 767 1124 705 1215 538 1215 c 0
 370 1215 309 1128 309 830 c 0xe4
 309 724 318 546 415 449 c 2
 446 418 l 1
 446 0 l 1
 109 0 l 1
 109 210 l 1
 236 210 l 1xd0
EndSplineSet
Validated: 3073
EndChar

StartChar: alpha
Encoding: 945 945 483
Width: 1075
VWidth: 1947
Flags: W
HStem: -38 210<415.102 564.744> -23 21G<753.514 846.696> 851 210<414.312 568.066> 1027 20G<749.619 843.565>
VStem: 144 210<246.369 781.917>
LayerCount: 2
Fore
SplineSet
853 515 m 1x18
 962 23 l 1
 758 -23 l 1x58
 734 84 l 1
 681 7 537 -38 488 -38 c 3
 429 -38 330 -25 248 88 c 0
 153 219 144 418 144 513 c 1
 146 623 153 806 248 936 c 0
 307 1017 390 1061 488 1061 c 3xa8
 593 1061 678 1016 731 942 c 1
 754 1047 l 1
 960 1001 l 1
 853 515 l 1x18
488 851 m 3xa8
 357 851 354 563 354 513 c 0
 354 351 385 257 418 211 c 0
 446 173 457 172 488 172 c 27
 533 172 570 209 578 246 c 2
 637 515 l 1
 579 777 l 2
 570 816 550 851 488 851 c 3xa8
EndSplineSet
Validated: 3073
EndChar

StartChar: beta
Encoding: 946 946 484
Width: 1075
VWidth: 2334
Flags: W
HStem: -25 210<344.331 732.78> 444 210<469 709.161> 839 210<363.085 728.803>
VStem: 110 210<-321 5 213.955 795.774> 739 210<688.669 821.083> 777 210<225.416 405.554>
LayerCount: 2
Fore
SplineSet
528 839 m 2xf8
 326 839 320 744 320 687 c 2
 320 291 l 2
 320 192 447 185 528 185 c 2
 571 185 l 2
 768 185 776 278 777 291 c 2
 777 325 l 2xf4
 777 441 624 444 570 444 c 2
 469 444 l 1
 469 654 l 1
 532 654 l 2
 572 654 739 663 739 752 c 27
 739 834 666 835 547 839 c 2
 528 839 l 2xf8
987 291 m 2
 987 224 974 -25 571 -25 c 2
 528 -25 l 2
 462 -25 395 -22 320 5 c 1
 320 -321 l 1
 110 -321 l 1
 110 687 l 2
 110 743 116 1049 528 1049 c 2
 547 1049 l 2
 626 1046 692 1042 773 1005 c 0
 879 957 949 872 949 752 c 27xf8
 949 673 936 630 876 564 c 1
 945 508 987 426 987 325 c 2
 987 291 l 2
EndSplineSet
Validated: 3073
EndChar

StartChar: gamma
Encoding: 947 947 485
Width: 1075
VWidth: 2334
Flags: W
HStem: -385 21G<434 644> 1004 20G<106 333.806 743.161 971>
VStem: 434 210<-385 59>
LayerCount: 2
Fore
SplineSet
434 -385 m 1
 434 59 l 1
 106 1024 l 1
 327 1024 l 1
 538 404 l 1
 750 1024 l 1
 971 1024 l 1
 644 64 l 1
 644 -385 l 1
 434 -385 l 1
EndSplineSet
Validated: 3073
EndChar

StartChar: delta
Encoding: 948 948 486
Width: 1075
VWidth: 2334
Flags: W
HStem: -25 210<396.57 691.42> 1190 210<530 860>
VStem: 110 210<266.024 767.163> 755 210<252.615 774.75>
LayerCount: 2
Fore
SplineSet
320 597 m 2
 320 427 l 2
 320 266 406 185 528 185 c 2
 548 185 l 2
 673 185 755 234 755 427 c 2
 755 597 l 2
 755 788 673 839 548 839 c 2
 528 839 l 2
 403 839 320 788 320 597 c 2
530 1190 m 1
 807 982 l 1
 803 976 l 1
 906 902 965 774 965 597 c 2
 965 427 l 2
 965 130 804 -25 548 -25 c 2
 528 -25 l 2
 302 -25 110 136 110 427 c 2
 110 597 l 2
 110 834 215 984 391 1032 c 1
 144 1217 l 1
 144 1400 l 1
 860 1400 l 1
 860 1190 l 1
 530 1190 l 1
EndSplineSet
Validated: 3073
EndChar

StartChar: epsilon
Encoding: 949 949 487
Width: 1075
VWidth: 2334
Flags: W
HStem: -25 210<351.634 746.639> 428 210<369.109 708> 839 210<356.438 745.857>
VStem: 110 210<217.156 380.502 662.622 798.92>
LayerCount: 2
Fore
SplineSet
747 801 m 1
 723 821 674 839 572 839 c 2
 528 839 l 2
 474 839 320 823 320 732 c 27
 320 642 446 638 532 638 c 2
 708 638 l 1
 708 428 l 1
 532 428 l 1
 465 424 397 417 347 365 c 0
 332 349 320 329 320 317 c 2
 320 300 l 2
 322 270 332 228 377 209 c 0
 407 196 458 185 528 185 c 2
 572 185 l 2
 688 188 719 195 748 227 c 1
 904 85 l 1
 816 -12 658 -25 572 -25 c 2
 528 -25 l 2
 122 -25 110 224 110 300 c 2
 110 317 l 2
 110 401 154 469 208 523 c 1
 118 598 110 720 110 732 c 3
 110 876 220 976 294 1008 c 0
 379 1045 457 1049 528 1049 c 2
 572 1049 l 2
 826 1049 894 950 909 935 c 1
 747 801 l 1
EndSplineSet
Validated: 3073
EndChar

StartChar: zeta
Encoding: 950 950 488
Width: 1075
VWidth: 2334
Flags: W
HStem: -399 210<538 745.113> -25 210<365.398 745.197>
VStem: 110 210<225.666 441.52> 755 210<-172.889 -44.2257>
LayerCount: 2
Fore
SplineSet
755 -104 m 3
 755 -48 714 -25 548 -25 c 2
 528 -25 l 2
 194 -25 110 189 110 337 c 2
 110 357 l 2
 110 551 281 664 374 718 c 2
 601 849 l 1
 517 873 438 912 369 968 c 1
 501 1130 l 1
 588 1059 716 1024 860 1024 c 2
 967 1024 l 1
 967 881 l 1
 938 849 l 2
 876 780 802 722 717 673 c 2
 480 536 l 2
 462 525 320 435 320 357 c 2
 320 337 l 2
 322 272 330 185 528 185 c 2
 548 185 l 2
 612 185 683 181 764 152 c 0
 905 101 965 0 965 -104 c 3
 965 -210 945 -351 714 -388 c 0
 660 -397 603 -399 538 -399 c 1
 538 -189 l 1
 738 -189 755 -168 755 -104 c 3
EndSplineSet
Validated: 3073
EndChar

StartChar: eta
Encoding: 951 951 489
Width: 1075
VWidth: 2334
Flags: W
HStem: -385 21G<755 965> 0 21G<110 320> 839 210<423.792 709.846> 1004 20G<110 320>
VStem: 110 210<0 723.712 981 1024> 755 210<-385 794.888>
LayerCount: 2
Fore
SplineSet
755 687 m 2xec
 755 746 747 839 548 839 c 2
 528 839 l 2xec
 409 839 320 677 320 597 c 2
 320 -0 l 1
 110 0 l 1
 110 1024 l 1
 320 1024 l 1xdc
 320 981 l 1
 380 1023 450 1049 528 1049 c 2
 548 1049 l 2
 951 1049 965 741 965 687 c 2
 965 -385 l 1
 755 -385 l 1
 755 687 l 2xec
EndSplineSet
Validated: 3073
EndChar

StartChar: theta
Encoding: 952 952 490
Width: 1075
VWidth: 1947
Flags: W
HStem: -25 210<393.766 682.609> 407 210<315 761> 838 210<393.298 682.797>
VStem: 99 216<275.489 407 617 749.416> 761 216<275.489 407 617 749.029>
LayerCount: 2
Fore
SplineSet
761 407 m 1
 315 407 l 1
 338 226 424 185 538 185 c 0
 654 185 738 228 761 407 c 1
761 617 m 1
 739 796 654 838 538 838 c 0
 414 838 336 788 315 617 c 1
 761 617 l 1
977 513 m 0
 977 48 714 -25 538 -25 c 0
 362 -25 99 48 99 513 c 0
 99 976 362 1048 538 1048 c 0
 714 1048 977 975 977 513 c 0
EndSplineSet
Validated: 3073
EndChar

StartChar: lambda
Encoding: 955 955 491
Width: 1075
VWidth: 2334
Flags: W
HStem: 0 21G<105 333.774 743.129 971> 1390 20G<268 495.837>
LayerCount: 2
Fore
SplineSet
105 0 m 1
 426 946 l 1
 268 1410 l 1
 489 1410 l 1
 971 0 l 1
 750 0 l 1
 537 620 l 1
 327 0 l 1
 105 0 l 1
EndSplineSet
Validated: 3073
EndChar

StartChar: xi
Encoding: 958 958 494
Width: 1075
VWidth: 2334
Flags: W
HStem: -399 210<535 716.516> -25 210<348.218 740.984> 428 210<369.539 755>
VStem: 110 210<215.677 380.158 672.245 831.912> 755 210<-145.051 -52.9138>
LayerCount: 2
Fore
SplineSet
110 317 m 2
 110 367 117 432 208 523 c 1
 138 582 110 648 110 732 c 3
 110 837 129 972 358 1058 c 1
 323 1079 288 1104 255 1134 c 1
 397 1290 l 1
 480 1214 569 1187 703 1182 c 2
 860 1176 l 1
 860 1057 l 1
 755 989 l 2
 605 891 320 919 320 732 c 3
 320 651 489 638 532 638 c 2
 755 638 l 1
 755 428 l 1
 532 428 l 2
 373 428 320 344 320 317 c 2
 320 300 l 2
 320 186 454 185 528 185 c 2
 572 185 l 2
 594 185 965 173 965 -88 c 2
 965 -120 l 2
 965 -254 806 -384 535 -399 c 1
 535 -189 l 1
 663 -182 755 -138 755 -113 c 2
 755 -95 l 2
 755 -54 669 -25 572 -25 c 2
 528 -25 l 2
 179 -25 110 170 110 300 c 2
 110 317 l 2
EndSplineSet
Validated: 3073
EndChar

StartChar: pi
Encoding: 960 960 496
Width: 1075
VWidth: 2334
Flags: W
HStem: -0 21G<151 397 675.5 920> 814 210<425 651>
VStem: 215 210<37.6176 802> 651 210<25.9844 814>
LayerCount: 2
Fore
SplineSet
109 990 m 1
 172 1012 248 1024 343 1024 c 2
 733 1024 l 2
 865 1024 931 1071 967 1115 c 1
 967 859 l 1
 936 845 901 834 861 826 c 1
 861 200 l 2
 861 127 888 52 920 -0 c 1
 843 0 765 0 688 0 c 1
 663 69 651 141 651 200 c 2
 651 814 l 1
 425 814 l 1
 425 200 l 2
 425 147 411 73 383 0 c 1
 306 0 228 0 151 -0 c 1
 185 57 215 140 215 200 c 2
 215 802 l 1
 163 790 131 771 109 753 c 1
 109 990 l 1
EndSplineSet
Validated: 3073
EndChar

StartChar: rho
Encoding: 961 961 497
Width: 1075
VWidth: 2334
Flags: W
HStem: -385 21G<110 320> -25 210<384.662 691.42> 839 210<384.592 679.047>
VStem: 110 210<-385 19 249.25 771.385> 755 210<253.816 757.59>
LayerCount: 2
Fore
SplineSet
755 427 m 2
 755 597 l 2
 755 758 670 839 548 839 c 2
 528 839 l 2
 403 839 320 790 320 597 c 2
 320 427 l 2
 320 236 403 185 528 185 c 2
 548 185 l 2
 673 185 755 236 755 427 c 2
548 -25 m 2
 528 -25 l 2
 449 -25 379 -10 320 19 c 1
 320 -385 l 1
 110 -385 l 1
 110 597 l 2
 110 894 273 1049 528 1049 c 2
 548 1049 l 2
 774 1049 965 887 965 597 c 2
 965 427 l 2
 965 133 804 -25 548 -25 c 2
EndSplineSet
Validated: 3073
EndChar

StartChar: sigmafinal
Encoding: 962 962 498
Width: 1075
VWidth: 2059
Flags: W
HStem: -399 210<535 737.893> -25 210<396.201 742.688> 841 210<431.649 858.577>
VStem: 110 210<266.023 737.673> 755 210<-159.799 -49.4277>
LayerCount: 2
Fore
SplineSet
535 -189 m 1
 623 -189 755 -174 755 -111 c 2
 755 -97 l 2
 755 -42 691 -33 548 -25 c 2
 528 -25 l 2
 303 -25 110 136 110 427 c 2
 110 597 l 2
 110 863 315 1051 617 1051 c 3
 672 1051 787 1033 881 1008 c 2
 959 987 l 1
 906 783 l 1
 844 800 l 2
 778 818 675 841 617 841 c 3
 430 841 320 744 320 597 c 2
 320 427 l 2
 320 267 405 185 528 185 c 2
 548 185 l 2
 832 170 965 38 965 -92 c 2
 965 -111 l 2
 965 -153 948 -280 797 -350 c 0
 750 -372 666 -399 535 -399 c 1
 535 -189 l 1
EndSplineSet
Validated: 3073
EndChar

StartChar: sigma
Encoding: 963 963 499
Width: 1075
VWidth: 1947
Flags: W
HStem: -25 210<392.68 642.825> 838 210<393.978 644.33 881 976>
VStem: 99 210<281.632 742.419> 738 210<293.789 731.815>
LayerCount: 2
Fore
SplineSet
948 513 m 0
 948 196 794 -25 523 -25 c 0
 353 -25 99 64 99 513 c 0
 99 960 353 1048 523 1048 c 0
 558 1048 592 1044 623 1037 c 1
 976 1038 l 1
 976 828 l 1
 881 828 l 1
 925 742 948 634 948 513 c 0
523 838 m 0
 404 838 309 772 309 513 c 0
 309 250 406 185 523 185 c 0
 695 185 738 362 738 513 c 0
 738 663 695 838 523 838 c 0
EndSplineSet
Validated: 3073
EndChar

StartChar: tau
Encoding: 964 964 500
Width: 1075
VWidth: 2334
Flags: W
HStem: 0 21G<348 610.5> 814 210<133.246 433 643 912.274>
VStem: 433 210<55.1282 814>
LayerCount: 2
Fore
SplineSet
343 1024 m 2
 733 1024 l 2
 865 1024 931 1071 967 1115 c 1
 967 859 l 1
 907 832 830 814 733 814 c 2
 643 814 l 1
 643 200 l 2
 643 133 625 64 596 -0 c 1
 348 0 l 1
 394 52 433 129 433 200 c 2
 433 814 l 1
 343 814 l 2
 206 814 145 783 109 753 c 1
 109 990 l 1
 172 1012 248 1024 343 1024 c 2
EndSplineSet
Validated: 3073
EndChar

StartChar: upsilon
Encoding: 965 965 501
Width: 1075
VWidth: 1947
Flags: W
HStem: -25 210<398.999 647.623> 838 210<619 703.796> 1004 20G<110 320>
VStem: 110 210<277.451 1024> 767 210<333.377 767.006>
LayerCount: 2
Fore
SplineSet
767 513 m 3xb8
 767 768 692 838 619 838 c 1
 619 1048 l 1xd8
 721 1048 825 1038 912 887 c 1
 969 782 977 684 977 513 c 3
 977 48 714 -25 538 -25 c 3
 281 -25 110 123 110 513 c 3
 110 683 110 854 110 1024 c 1
 320 1024 l 1
 320 854 320 683 320 513 c 3
 320 236 407 185 538 185 c 3
 674 185 767 357 767 513 c 3xb8
EndSplineSet
Validated: 3073
EndChar

StartChar: phi
Encoding: 966 966 502
Width: 1075
VWidth: 1947
Flags: W
HStem: -385 21G<433 643> 838 210<654.436 763.487>
VStem: 53 210<314.188 943> 433 210<-385 -6.00513 201 835.402> 813 210<311.361 786.666>
CounterMasks: 1 38
LayerCount: 2
Fore
SplineSet
704 838 m 27
 646 838 643 766 643 702 c 2
 643 201 l 1
 776 246 813 381 813 513 c 3
 813 649 793 736 771 783 c 0
 745 838 738 838 704 838 c 27
433 702 m 2
 433 855 438 1048 704 1048 c 3
 825 1048 890 1038 961 873 c 0
 989 808 1023 703 1023 513 c 3
 1023 222 879 28 643 -16 c 1
 643 -385 l 1
 433 -385 l 1
 433 -16 l 1
 197 28 53 223 53 513 c 2
 53 943 l 1
 263 943 l 1
 263 513 l 2
 263 381 300 246 433 201 c 1
 433 702 l 2
EndSplineSet
Validated: 3073
EndChar

StartChar: chi
Encoding: 967 967 503
Width: 1075
VWidth: 2062
Flags: W
HStem: -385 21G<126 362.679 714 1005> 1004 20G<78 359 725.388 963>
LayerCount: 2
Fore
SplineSet
354 -385 m 1
 126 -385 l 1
 421 298 l 1
 359 510 l 2
 304 698 231 842 199 880 c 2
 78 1024 l 1
 353 1024 l 1
 359 1016 l 2
 436 926 514 715 551 599 c 1
 734 1024 l 1
 963 1024 l 1
 644 284 l 1
 695 111 l 2
 739 -39 820 -186 873 -244 c 2
 1005 -385 l 1
 720 -385 l 1
 714 -377 l 2
 646 -296 562 -147 515 -14 c 1
 354 -385 l 1
EndSplineSet
Validated: 3073
EndChar

StartChar: psi
Encoding: 968 968 504
Width: 1075
VWidth: 1947
Flags: W
HStem: -385 21G<433 643> 1029 20G<433 643>
VStem: 53 210<314.188 943> 433 210<-385 -8.82291 201 1049> 813 210<307.016 943>
CounterMasks: 1 38
LayerCount: 2
Fore
SplineSet
433 1049 m 1
 643 1049 l 1
 643 199 l 1
 746 231 813 322 813 513 c 2
 813 943 l 1
 1023 943 l 1
 1023 513 l 2
 1023 207 876 25 643 -16 c 1
 643 -385 l 1
 433 -385 l 1
 433 -16 l 1
 197 28 53 223 53 513 c 2
 53 943 l 1
 263 943 l 1
 263 513 l 2
 263 381 300 246 433 201 c 1
 433 1049 l 1
EndSplineSet
Validated: 3073
EndChar

StartChar: omega
Encoding: 969 969 505
Width: 1075
VWidth: 2334
Flags: W
HStem: -25 210<298.342 432.224 644.345 782.244> 1004 20G<116.5 393 683 956.5>
VStem: 64 210<198.077 903.439> 433 210<187.637 700> 802 210<196.099 902.695>
CounterMasks: 1 38
LayerCount: 2
Fore
SplineSet
935 1024 m 1
 978 935 1007 824 1012 702 c 1
 1012 337 l 2
 1012 279 1002 222 983 168 c 1
 921 -9 760 -25 733 -25 c 2
 722 -25 l 2
 643 -25 584 -7 540 23 c 1
 496 -7 434 -25 350 -25 c 2
 338 -25 l 2
 252 -25 174 25 122 114 c 0
 69 204 68 281 64 336 c 1
 64 702 l 2
 64 795 91 918 142 1024 c 1
 393 1024 l 1
 334 971 274 819 274 702 c 2
 274 336 l 1
 280 220 328 185 338 185 c 2
 350 185 l 2
 428 185 433 199 433 247 c 2
 433 700 l 1
 643 700 l 1
 643 247 l 2
 643 211 646 185 722 185 c 2
 733 185 l 2
 784 191 802 275 802 337 c 2
 802 702 l 1
 795 870 721 990 683 1024 c 1
 935 1024 l 1
EndSplineSet
Validated: 3073
EndChar

StartChar: dieresiscmb
Encoding: 776 776 508
Width: 1075
VWidth: 1947
Flags: W
HStem: 1212 304<192.56 394.963 683.81 883.125>
VStem: 146 295<1258.75 1471.12> 637 292<1258.36 1473.17>
LayerCount: 2
Fore
SplineSet
441 1367 m 3
 441 1285 374 1212 294 1212 c 3
 214 1212 146 1281 146 1367 c 3
 146 1458 218 1516 292 1516 c 3
 377 1516 441 1446 441 1367 c 3
929 1367 m 3
 929 1277 858 1212 784 1212 c 3
 706 1212 637 1282 637 1367 c 3
 637 1452 706 1516 784 1516 c 3
 855 1516 929 1458 929 1367 c 3
EndSplineSet
Validated: 3073
EndChar

StartChar: Djecyrillic
Encoding: 1026 1026 512
Width: 1075
VWidth: 2334
Flags: W
HStem: 0 21G<319 529 707 856> 782 210<611.936 777.816> 1190 210<86 319 529 863>
VStem: 319 210<0 679.824 939 1190> 790 210<216.295 771.084>
LayerCount: 2
Fore
SplineSet
1000 336 m 2
 1000 210 984 0 728 0 c 2
 707 0 l 1
 707 210 l 1
 728 210 l 2
 765 210 786 228 790 336 c 1
 790 687 l 2
 790 759 762 782 699 782 c 2
 678 782 l 2
 657 782 529 737 529 417 c 2
 529 -0 l 1
 319 0 l 1
 319 1190 l 1
 86 1190 l 1
 86 1400 l 1
 863 1400 l 1
 863 1190 l 1
 529 1190 l 1
 529 939 l 1
 568 967 620 992 678 992 c 2
 699 992 l 2
 876 992 1000 879 1000 687 c 2
 1000 336 l 2
EndSplineSet
Validated: 3073
EndChar

StartChar: Ljecyrillic
Encoding: 1033 1033 513
Width: 1075
VWidth: 1947
Flags: W
HStem: 0 210<656 807.166> 659 211<656 796.298> 1380 20G<358.5 656>
VStem: 446 210<210 659 870 1190> 836 210<244.904 627.261>
LayerCount: 2
Fore
SplineSet
1046 357 m 2
 1046 20 754 0 629 0 c 2
 446 0 l 1
 446 1190 l 1
 414 1190 l 17
 391 1175 371 1106 367 1065 c 2
 258 0 l 1
 48 0 l 1
 157 1085 l 2
 178 1295 327 1378 390 1400 c 9
 656 1400 l 1
 656 870 l 1
 1039 858 1046 588 1046 515 c 2
 1046 357 l 2
656 210 m 1
 815 216 836 264 836 357 c 2
 836 515 l 2
 836 613 803 652 656 659 c 1
 656 210 l 1
EndSplineSet
Validated: 3073
EndChar

StartChar: Njecyrillic
Encoding: 1034 1034 514
Width: 1075
VWidth: 1947
Flags: W
HStem: 0 210<656 803.99> 660 210<264 446 656 789.711> 1380 20G<53 264 446 656>
VStem: 53 210<0 660 870 1400> 446 210<210 660 870 1400> 836 210<248.008 616.163>
LayerCount: 2
Fore
SplineSet
836 357 m 2
 836 515 l 2
 836 627 759 655 656 660 c 1
 656 210 l 1
 822 213 836 284 836 357 c 2
656 869 m 1
 980 856 1046 645 1046 515 c 2
 1046 357 l 2
 1046 308 1032 69 804 16 c 0
 770 8 717 0 629 0 c 2
 446 0 l 1
 446 660 l 1
 263 660 l 1
 263 -0 l 1
 53 0 l 1
 53 1400 l 1
 264 1400 l 1
 264 870 l 1
 446 870 l 1
 446 1400 l 1
 656 1400 l 1
 656 869 l 1
EndSplineSet
Validated: 3073
EndChar

StartChar: Tshecyrillic
Encoding: 1035 1035 515
Width: 1075
VWidth: 2334
Flags: W
HStem: 0 21G<319 529 790 1000> 782 210<598.799 777.816> 1190 210<86 319 529 863>
VStem: 319 210<0 692.928 939 1190> 790 210<0 771.084>
LayerCount: 2
Fore
SplineSet
863 1400 m 1
 863 1190 l 1
 529 1190 l 1
 529 939 l 1
 601 991 654 992 678 992 c 2
 699 992 l 2
 876 992 1000 879 1000 687 c 2
 1000 0 l 1
 790 -0 l 1
 790 687 l 2
 790 757 764 782 699 782 c 2
 678 782 l 2
 582 782 529 635 529 417 c 2
 529 -0 l 1
 319 0 l 1
 319 1190 l 1
 86 1190 l 1
 86 1400 l 1
 863 1400 l 1
EndSplineSet
Validated: 3073
EndChar

StartChar: Dzhecyrillic
Encoding: 1039 1039 516
Width: 1075
VWidth: 2334
Flags: W
HStem: -385 21G<433 643> 0 210<320 433 643 755> 1380 20G<110 320 755 965>
VStem: 110 210<210 1400> 433 210<-385 0> 755 210<210 1400>
LayerCount: 2
Fore
SplineSet
320 210 m 1
 755 210 l 1
 755 1400 l 1
 965 1400 l 1
 965 0 l 1
 643 0 l 1
 643 -385 l 1
 433 -385 l 1
 433 0 l 1
 110 -0 l 1
 110 1400 l 1
 320 1400 l 1
 320 210 l 1
EndSplineSet
Validated: 3073
EndChar

StartChar: djecyrillic
Encoding: 1106 1106 517
Width: 1075
VWidth: 2334
Flags: W
HStem: -399 210<464.02 714.262> 0 21G<168 378> 718 210<486.475 732.791> 1048 210<40 168 378 704> 1404 20G<168 378>
VStem: 168 210<0 595.97 858 1048 1258 1424> 755 210<-146.256 696.064>
LayerCount: 2
Fore
SplineSet
755 553 m 2
 755 672 741 718 606 718 c 2
 585 718 l 2
 471 718 378 546 378 463 c 2
 378 -0 l 1
 168 0 l 1
 168 1048 l 1
 40 1048 l 1
 40 1258 l 1
 168 1258 l 1
 168 1424 l 1
 378 1424 l 1
 378 1258 l 1
 704 1258 l 1
 704 1048 l 1
 378 1048 l 1
 378 858 l 1
 437 901 507 928 585 928 c 2
 606 928 l 2
 951 928 965 662 965 553 c 2
 965 -28 l 2
 965 -231 824 -399 613 -399 c 2
 554 -399 l 2
 396 -399 317 -306 310 -300 c 1
 464 -156 l 2
 464 -156 491 -189 554 -189 c 2
 613 -189 l 2
 706 -189 755 -115 755 -28 c 2
 755 553 l 2
EndSplineSet
Validated: 3073
EndChar

StartChar: dzhecyrillic
Encoding: 1119 1119 519
Width: 1075
VWidth: 2334
Flags: W
HStem: -385 21G<433 643> 0 211<320 433 643 755> 1004 20G<110 322 755 965>
VStem: 110 210<211 1024> 433 210<-385 0> 755 210<211 1024>
LayerCount: 2
Fore
SplineSet
320 211 m 1
 755 211 l 1
 755 1024 l 1
 965 1024 l 1
 965 0 l 1
 643 0 l 1
 643 -385 l 1
 433 -385 l 1
 433 0 l 1
 110 0 l 1
 110 1024 l 1
 322 1024 l 1
 320 211 l 1
EndSplineSet
Validated: 3073
EndChar

StartChar: ljecyrillic
Encoding: 1113 1113 520
Width: 1075
VWidth: 1947
Flags: W
HStem: 0 210<644 784.382> 456 210<645 789.527> 813 211<345.392 435>
VStem: 435 210<210 456 666 813> 802 210<227.523 441.347>
LayerCount: 2
Fore
SplineSet
91 622 m 2
 111 908 231 977 364 1024 c 1
 645 1024 l 1
 645 666 l 1
 699 666 l 2
 865 666 1012 549 1012 357 c 2
 1012 311 l 2
 1012 122 871 0 699 0 c 2
 435 0 l 1
 435 813 l 1
 400 813 l 1
 339 788 310 744 301 608 c 2
 259 0 l 1
 48 -0 l 1
 91 622 l 2
644 456 m 1
 644 210 l 1
 699 210 l 2
 743 210 802 230 802 311 c 2
 802 357 l 2
 802 437 743 456 699 456 c 2
 644 456 l 1
EndSplineSet
Validated: 3073
EndChar

StartChar: njecyrillic
Encoding: 1114 1114 521
Width: 1075
VWidth: 1947
Flags: W
HStem: 0 210<644 784.382> 456 210<274 434 644 789.527> 1004 20G<64 274 434 644>
VStem: 64 210<0 456 666 1024> 434 210<210 456 666 1024> 802 210<227.523 441.347>
LayerCount: 2
Fore
SplineSet
274 -0 m 1
 64 0 l 1
 64 1024 l 1
 274 1024 l 1
 274 666 l 1
 434 666 l 1
 434 1024 l 1
 644 1024 l 1
 644 666 l 1
 699 666 l 2
 865 666 1012 549 1012 357 c 2
 1012 311 l 2
 1012 122 871 0 699 0 c 2
 434 -0 l 1
 434 456 l 1
 274 456 l 1
 274 -0 l 1
644 210 m 1
 699 210 l 2
 743 210 802 230 802 311 c 2
 802 357 l 2
 802 437 743 456 699 456 c 2
 644 456 l 1
 644 210 l 1
EndSplineSet
Validated: 3073
EndChar

StartChar: apostrophereverse
Encoding: 8219 8219 523
Width: 1075
VWidth: 1708
Flags: W
HStem: 932 74<636.994 687.875>
VStem: 343 239<1111.02 1375>
LayerCount: 2
Fore
SplineSet
619 1193 m 0
 590 1186 582 1146 582 1125 c 3
 582 1069 655 1024 704 1006 c 1
 684 932 l 1
 422 960 343 1126 343 1322 c 3
 343 1428 424 1518 538 1518 c 3
 655 1518 732 1424 732 1322 c 3
 732 1262 673 1206 619 1193 c 0
EndSplineSet
Validated: 3073
EndChar

StartChar: arrowleft
Encoding: 8592 8592 526
Width: 1075
VWidth: 1708
Flags: W
HStem: 520 160<353 949> 1027 20G<461.072 501.091>
LayerCount: 2
Fore
SplineSet
949 680 m 1
 949 520 l 1
 353 520 l 1
 596 263 l 1
 480 153 l 1
 127 526 l 1
 127 674 l 1
 480 1047 l 1
 596 937 l 1
 353 680 l 1
 949 680 l 1
EndSplineSet
Validated: 3073
EndChar

StartChar: arrowright
Encoding: 8594 8594 527
Width: 1075
VWidth: 1708
Flags: W
HStem: 520 160<127 723> 1027 20G<574.909 614.928>
LayerCount: 2
Fore
SplineSet
127 520 m 1
 127 680 l 1
 723 680 l 1
 480 937 l 1
 596 1047 l 1
 949 674 l 1
 949 526 l 1
 596 153 l 1
 480 263 l 1
 723 520 l 1
 127 520 l 1
EndSplineSet
Validated: 3073
EndChar

StartChar: lthorizform
Encoding: 9472 9472 528
Width: 1075
Flags: W
HStem: 443 160<0 1075>
LayerCount: 2
Fore
SplineSet
0 443 m 1
 -0 603 l 1
 1075 603 l 1
 1075 443 l 1
 0 443 l 1
EndSplineSet
Validated: 3073
EndChar

StartChar: ltvertform
Encoding: 9474 9474 529
Width: 1075
Flags: W
VStem: 458 160<-615 1775>
LayerCount: 2
Fore
SplineSet
618 -615 m 1
 458 -615 l 1
 458 1775 l 1
 618 1775 l 1
 618 -615 l 1
EndSplineSet
Validated: 3073
EndChar

StartChar: rightanglenw
Encoding: 9484 9484 530
Width: 1075
Flags: W
HStem: 443 160<618 1075>
VStem: 458 160<-615 443>
LayerCount: 2
Fore
SplineSet
458 -615 m 1
 458 603 l 1
 1075 603 l 1
 1075 443 l 1
 618 443 l 1
 618 -615 l 1
 458 -615 l 1
EndSplineSet
Validated: 3073
EndChar

StartChar: rightanglene
Encoding: 9488 9488 531
Width: 1075
Flags: W
HStem: 443 160<0 458>
VStem: 458 160<-615 443>
LayerCount: 2
Fore
SplineSet
458 443 m 1
 0 443 l 1
 -0 603 l 1
 618 603 l 1
 618 -615 l 1
 458 -615 l 1
 458 443 l 1
EndSplineSet
Validated: 3073
EndChar

StartChar: rightanglesw
Encoding: 9492 9492 532
Width: 1075
Flags: W
HStem: 443 160<618 1075>
VStem: 458 160<603 1775>
LayerCount: 2
Fore
SplineSet
618 603 m 1
 1075 603 l 1
 1075 443 l 1
 458 443 l 1
 458 1775 l 1
 618 1775 l 1
 618 603 l 1
EndSplineSet
Validated: 3073
EndChar

StartChar: rightanglese
Encoding: 9496 9496 533
Width: 1075
Flags: W
HStem: 443 160<0 458>
VStem: 458 160<603 1775>
LayerCount: 2
Fore
SplineSet
618 1775 m 1
 618 443 l 1
 0 443 l 1
 -0 603 l 1
 458 603 l 1
 458 1775 l 1
 618 1775 l 1
EndSplineSet
Validated: 3073
EndChar

StartChar: ltvertrightform
Encoding: 9500 9500 534
Width: 1075
Flags: W
HStem: 443 160<618 1075>
VStem: 458 160<-615 443 603 1775>
LayerCount: 2
Fore
SplineSet
618 -615 m 1
 458 -615 l 1
 458 1775 l 1
 618 1775 l 1
 618 603 l 1
 1075 603 l 1
 1075 443 l 1
 618 443 l 1
 618 -615 l 1
EndSplineSet
Validated: 3073
EndChar

StartChar: ltvertleftform
Encoding: 9508 9508 535
Width: 1075
Flags: W
HStem: 443 160<0 458>
VStem: 458 160<-615 443 603 1775>
LayerCount: 2
Fore
SplineSet
0 443 m 1
 -0 603 l 1
 458 603 l 1
 458 1775 l 1
 618 1775 l 1
 618 -615 l 1
 458 -615 l 1
 458 443 l 1
 0 443 l 1
EndSplineSet
Validated: 3073
EndChar

StartChar: ltdnhorizform
Encoding: 9516 9516 536
Width: 1075
Flags: W
HStem: 443 160<0 458 618 1075>
VStem: 458 160<-615 443>
LayerCount: 2
Fore
SplineSet
0 443 m 1
 -0 603 l 1
 1075 603 l 1
 1075 443 l 1
 618 443 l 1
 618 -615 l 1
 458 -615 l 1
 458 443 l 1
 0 443 l 1
EndSplineSet
Validated: 3073
EndChar

StartChar: ltuphorizform
Encoding: 9524 9524 537
Width: 1075
Flags: W
HStem: 443 160<0 458 618 1075>
VStem: 458 160<603 1775>
LayerCount: 2
Fore
SplineSet
0 443 m 1
 -0 603 l 1
 458 603 l 1
 458 1775 l 1
 618 1775 l 1
 618 603 l 1
 1075 603 l 1
 1075 443 l 1
 0 443 l 1
EndSplineSet
Validated: 3073
EndChar

StartChar: ltverthorizform
Encoding: 9532 9532 538
Width: 1075
Flags: W
HStem: 443 160<0 458 618 1075>
VStem: 458 160<-615 443 603 1775>
LayerCount: 2
Fore
SplineSet
0 443 m 1
 -0 603 l 1
 458 603 l 1
 458 1775 l 1
 618 1775 l 1
 618 603 l 1
 1075 603 l 1
 1075 443 l 1
 618 443 l 1
 618 -615 l 1
 458 -615 l 1
 458 443 l 1
 0 443 l 1
EndSplineSet
Validated: 3073
EndChar

StartChar: horizdblbar
Encoding: 9552 9552 539
Width: 1075
Flags: W
HStem: 283 160<0 1075> 635 160<0 1075>
LayerCount: 2
Fore
SplineSet
0 635 m 1
 -0 795 l 1
 1075 795 l 1
 1075 635 l 1
 0 635 l 1
0 283 m 1
 -0 443 l 1
 1075 443 l 1
 1075 283 l 1
 0 283 l 1
EndSplineSet
Validated: 3073
EndChar

StartChar: vertdblbar
Encoding: 9553 9553 540
Width: 1075
Flags: W
VStem: 298 160<-615 1775> 618 160<-615 1775>
LayerCount: 2
Fore
SplineSet
778 -615 m 1
 618 -615 l 1
 618 1775 l 1
 778 1775 l 1
 778 -615 l 1
458 -615 m 1
 298 -615 l 1
 298 1775 l 1
 458 1775 l 1
 458 -615 l 1
EndSplineSet
Validated: 3073
EndChar

StartChar: dnrtdblform
Encoding: 9554 9554 541
Width: 1075
Flags: W
HStem: 283 160<618 1075> 635 160<618 1075>
VStem: 458 160<-615 283 443 635>
LayerCount: 2
Fore
SplineSet
618 283 m 1
 618 -615 l 1
 458 -615 l 1
 458 795 l 1
 1075 795 l 1
 1075 635 l 1
 618 635 l 1
 618 443 l 1
 1075 443 l 1
 1075 283 l 1
 618 283 l 1
EndSplineSet
Validated: 3073
EndChar

StartChar: dndblrtform
Encoding: 9555 9555 542
Width: 1075
Flags: W
HStem: 443 160<458 618 778 1075>
VStem: 298 160<-615 443> 618 160<-615 443>
LayerCount: 2
Fore
SplineSet
778 -615 m 1
 618 -615 l 1
 618 443 l 1
 458 443 l 1
 458 -615 l 1
 298 -615 l 1
 298 603 l 1
 1075 603 l 1
 1075 443 l 1
 778 443 l 1
 778 -615 l 1
EndSplineSet
Validated: 3073
EndChar

StartChar: dbldnrtform
Encoding: 9556 9556 543
Width: 1075
Flags: W
HStem: 283 160<778 1075> 635 160<458 1075>
VStem: 298 160<-615 635> 618 160<-615 283>
LayerCount: 2
Fore
SplineSet
458 635 m 1
 458 -615 l 1
 298 -615 l 1
 298 795 l 1
 1075 795 l 1
 1075 635 l 1
 458 635 l 1
778 283 m 1
 778 -615 l 1
 618 -615 l 1
 618 443 l 1
 1075 443 l 1
 1075 283 l 1
 778 283 l 1
EndSplineSet
Validated: 3073
EndChar

StartChar: dnleftdblform
Encoding: 9557 9557 544
Width: 1075
Flags: W
HStem: 283 160<0 458> 635 160<0 458>
VStem: 458 160<-615 283 443 635>
LayerCount: 2
Fore
SplineSet
0 795 m 1
 618 795 l 1
 618 -615 l 1
 458 -615 l 1
 458 283 l 1
 0 283 l 1
 -0 443 l 1
 458 443 l 1
 458 635 l 1
 -0 635 l 1
 0 795 l 1
EndSplineSet
Validated: 3073
EndChar

StartChar: dndblleftform
Encoding: 9558 9558 545
Width: 1075
Flags: W
HStem: 443 160<0 298 458 618>
VStem: 298 160<-615 443> 618 160<-615 443>
LayerCount: 2
Fore
SplineSet
458 -615 m 1
 298 -615 l 1
 298 443 l 1
 0 443 l 1
 -0 603 l 1
 778 603 l 1
 778 -615 l 1
 618 -615 l 1
 618 443 l 1
 458 443 l 1
 458 -615 l 1
EndSplineSet
Validated: 3073
EndChar

StartChar: dbldnleftform
Encoding: 9559 9559 546
Width: 1075
Flags: W
HStem: 283 160<0 298> 635 160<0 618>
VStem: 298 160<-615 283> 618 160<-615 635>
LayerCount: 2
Fore
SplineSet
0 795 m 1
 778 795 l 1
 778 -615 l 1
 618 -615 l 1
 618 635 l 1
 -0 635 l 1
 0 795 l 1
0 443 m 1
 458 443 l 1
 458 -615 l 1
 298 -615 l 1
 298 283 l 1
 -0 283 l 1
 0 443 l 1
EndSplineSet
Validated: 3073
EndChar

StartChar: uprtdblform
Encoding: 9560 9560 547
Width: 1075
Flags: W
HStem: 283 160<618 1075> 603 160<618 1075>
VStem: 458 160<443 603 763 1775>
LayerCount: 2
Fore
SplineSet
1075 283 m 1
 458 283 l 1
 458 1775 l 1
 618 1775 l 1
 618 763 l 1
 1075 763 l 1
 1075 603 l 1
 618 603 l 1
 618 443 l 1
 1075 443 l 1
 1075 283 l 1
EndSplineSet
Validated: 3073
EndChar

StartChar: updblrtform
Encoding: 9561 9561 548
Width: 1075
Flags: W
HStem: 443 160<458 618 778 1075>
VStem: 298 160<603 1775> 618 160<603 1775>
LayerCount: 2
Fore
SplineSet
778 603 m 1
 1075 603 l 1
 1075 443 l 1
 298 443 l 1
 298 1775 l 1
 458 1775 l 1
 458 603 l 1
 618 603 l 1
 618 1775 l 1
 778 1775 l 1
 778 603 l 1
EndSplineSet
Validated: 3073
EndChar

StartChar: dbluprtform
Encoding: 9562 9562 549
Width: 1075
Flags: W
HStem: 283 160<458 1075> 635 160<778 1075>
VStem: 298 160<443 1775> 618 160<795 1775>
LayerCount: 2
Fore
SplineSet
1075 635 m 1
 618 635 l 1
 618 1775 l 1
 778 1775 l 1
 778 795 l 1
 1075 795 l 1
 1075 635 l 1
1075 283 m 1
 298 283 l 1
 298 1775 l 1
 458 1775 l 1
 458 443 l 1
 1075 443 l 1
 1075 283 l 1
EndSplineSet
Validated: 3073
EndChar

StartChar: upleftdblform
Encoding: 9563 9563 550
Width: 1075
Flags: W
HStem: 283 160<0 458> 603 160<0 458>
VStem: 458 160<443 603 763 1775>
LayerCount: 2
Fore
SplineSet
0 603 m 1
 -0 763 l 1
 458 763 l 1
 458 1775 l 1
 618 1775 l 1
 618 283 l 1
 -0 283 l 1
 0 443 l 1
 458 443 l 1
 458 603 l 1
 0 603 l 1
EndSplineSet
Validated: 3073
EndChar

StartChar: updblleftform
Encoding: 9564 9564 551
Width: 1075
Flags: W
HStem: 443 160<0 298 458 618>
VStem: 298 160<603 1775> 618 160<603 1775>
LayerCount: 2
Fore
SplineSet
778 1775 m 1
 778 443 l 1
 0 443 l 1
 -0 603 l 1
 298 603 l 1
 298 1775 l 1
 458 1775 l 1
 458 603 l 1
 618 603 l 1
 618 1775 l 1
 778 1775 l 1
EndSplineSet
Validated: 3073
EndChar

StartChar: dblupleftform
Encoding: 9565 9565 552
Width: 1075
Flags: W
HStem: 283 160<0 618> 635 160<0 298>
VStem: 298 160<795 1775> 618 160<443 1775>
LayerCount: 2
Fore
SplineSet
298 795 m 1
 298 1775 l 1
 458 1775 l 1
 458 635 l 1
 -0 635 l 1
 0 795 l 1
 298 795 l 1
618 443 m 1
 618 1775 l 1
 778 1775 l 1
 778 283 l 1
 -0 283 l 1
 0 443 l 1
 618 443 l 1
EndSplineSet
Validated: 3073
EndChar

StartChar: vertrtdblform
Encoding: 9566 9566 553
Width: 1075
Flags: W
HStem: 283 160<618 1075> 603 160<618 1075>
VStem: 458 160<-615 283 443 603 763 1775>
LayerCount: 2
Fore
SplineSet
618 -615 m 1
 458 -615 l 1
 458 1775 l 1
 618 1775 l 1
 618 763 l 1
 1075 763 l 1
 1075 603 l 1
 618 603 l 1
 618 443 l 1
 1075 443 l 1
 1075 283 l 1
 618 283 l 1
 618 -615 l 1
EndSplineSet
Validated: 3073
EndChar

StartChar: vertdblrtform
Encoding: 9567 9567 554
Width: 1075
Flags: W
HStem: 443 160<778 1075>
VStem: 298 160<-615 1775> 618 160<-615 443 603 1775>
LayerCount: 2
Fore
SplineSet
778 -615 m 1
 618 -615 l 1
 618 1775 l 1
 778 1775 l 1
 778 603 l 1
 1075 603 l 1
 1075 443 l 1
 778 443 l 1
 778 -615 l 1
458 -615 m 1
 298 -615 l 1
 298 1775 l 1
 458 1775 l 1
 458 -615 l 1
EndSplineSet
Validated: 3073
EndChar

StartChar: dblvertrtform
Encoding: 9568 9568 555
Width: 1075
Flags: W
HStem: 283 160<778 1075> 635 160<778 1075>
VStem: 298 160<-615 1775> 618 457<283 443 635 795> 618 160<-615 283 795 1775>
LayerCount: 2
Fore
SplineSet
458 -615 m 1xe0
 298 -615 l 1
 298 1775 l 1
 458 1775 l 1
 458 -615 l 1xe0
1075 635 m 1xf0
 618 635 l 1xf0
 618 1775 l 1
 778 1775 l 1
 778 795 l 1xe8
 1075 795 l 1
 1075 635 l 1xf0
778 283 m 1xe8
 778 -615 l 1
 618 -615 l 1xe8
 618 443 l 1
 1075 443 l 1
 1075 283 l 1xf0
 778 283 l 1xe8
EndSplineSet
Validated: 3073
EndChar

StartChar: vertleftdblform
Encoding: 9569 9569 556
Width: 1075
Flags: W
HStem: 283 160<0 458> 603 160<0 458>
VStem: 458 160<-615 283 443 603 763 1775>
LayerCount: 2
Fore
SplineSet
618 -615 m 1
 458 -615 l 1
 458 283 l 1
 0 283 l 1
 -0 443 l 1
 458 443 l 1
 458 603 l 1
 0 603 l 1
 -0 763 l 1
 458 763 l 1
 458 1775 l 1
 618 1775 l 1
 618 -615 l 1
EndSplineSet
Validated: 3073
EndChar

StartChar: vertdblleftform
Encoding: 9570 9570 557
Width: 1075
Flags: W
HStem: 443 160<0 298>
VStem: 298 160<-615 443 603 1775> 618 160<-615 1775>
LayerCount: 2
Fore
SplineSet
0 443 m 1
 -0 603 l 1
 298 603 l 1
 298 1775 l 1
 458 1775 l 1
 458 -615 l 1
 298 -615 l 1
 298 443 l 1
 0 443 l 1
778 -615 m 1
 618 -615 l 1
 618 1775 l 1
 778 1775 l 1
 778 -615 l 1
EndSplineSet
Validated: 3073
EndChar

StartChar: dblvertleftform
Encoding: 9571 9571 558
Width: 1075
Flags: W
HStem: 283 160<0 298> 635 160<0 298>
VStem: -0 458<283 443 635 795> 298 160<-615 283 795 1775> 618 160<-615 1775>
LayerCount: 2
Fore
SplineSet
778 -615 m 1xc8
 618 -615 l 1
 618 1775 l 1
 778 1775 l 1
 778 -615 l 1xc8
298 795 m 1xd8
 298 1775 l 1
 458 1775 l 1xd8
 458 635 l 1
 -0 635 l 1
 0 795 l 1xe8
 298 795 l 1xd8
0 443 m 1xe8
 458 443 l 1xe8
 458 -615 l 1
 298 -615 l 1
 298 283 l 1xd8
 -0 283 l 1
 0 443 l 1xe8
EndSplineSet
Validated: 3073
EndChar

StartChar: dnhorizdblform
Encoding: 9572 9572 559
Width: 1075
Flags: W
HStem: 283 160<0 458 618 1075> 635 160<0 1075>
VStem: 458 160<-615 283>
LayerCount: 2
Fore
SplineSet
618 -615 m 1
 458 -615 l 1
 458 283 l 1
 0 283 l 1
 -0 443 l 1
 1075 443 l 1
 1075 283 l 1
 618 283 l 1
 618 -615 l 1
0 635 m 1
 -0 795 l 1
 1075 795 l 1
 1075 635 l 1
 0 635 l 1
EndSplineSet
Validated: 3073
EndChar

StartChar: dndblhorizform
Encoding: 9573 9573 560
Width: 1075
Flags: W
HStem: 443 160<0 298 458 618 778 1075>
VStem: 298 160<-615 443> 618 160<-615 443>
LayerCount: 2
Fore
SplineSet
0 443 m 1
 -0 603 l 1
 1075 603 l 1
 1075 443 l 1
 778 443 l 1
 778 -615 l 1
 618 -615 l 1
 618 443 l 1
 458 443 l 1
 458 -615 l 1
 298 -615 l 1
 298 443 l 1
 0 443 l 1
EndSplineSet
Validated: 3073
EndChar

StartChar: dbldnhorizform
Encoding: 9574 9574 561
Width: 1075
Flags: W
HStem: 283 160<0 298 778 1075> 635 160<0 1075>
VStem: 298 160<-615 283> 618 160<-615 283>
LayerCount: 2
Fore
SplineSet
0 635 m 1
 -0 795 l 1
 1075 795 l 1
 1075 635 l 1
 0 635 l 1
0 443 m 1
 458 443 l 1
 458 -615 l 1
 298 -615 l 1
 298 283 l 1
 -0 283 l 1
 0 443 l 1
778 283 m 1
 778 -615 l 1
 618 -615 l 1
 618 443 l 1
 1075 443 l 1
 1075 283 l 1
 778 283 l 1
EndSplineSet
Validated: 3073
EndChar

StartChar: uphorizdblform
Encoding: 9575 9575 562
Width: 1075
Flags: W
HStem: 283 160<0 1075> 635 160<0 458 618 1075>
VStem: 458 160<795 1775>
LayerCount: 2
Fore
SplineSet
0 635 m 1
 -0 795 l 1
 458 795 l 1
 458 1775 l 1
 618 1775 l 1
 618 795 l 1
 1075 795 l 1
 1075 635 l 1
 0 635 l 1
0 283 m 1
 -0 443 l 1
 1075 443 l 1
 1075 283 l 1
 0 283 l 1
EndSplineSet
Validated: 3073
EndChar

StartChar: updblhorizform
Encoding: 9576 9576 563
Width: 1075
Flags: W
HStem: 443 160<0 298 458 618 778 1075>
VStem: 298 160<603 1775> 618 160<603 1775>
LayerCount: 2
Fore
SplineSet
0 443 m 1
 -0 603 l 1
 298 603 l 1
 298 1775 l 1
 458 1775 l 1
 458 603 l 1
 618 603 l 1
 618 1775 l 1
 778 1775 l 1
 778 603 l 1
 1075 603 l 1
 1075 443 l 1
 0 443 l 1
EndSplineSet
Validated: 3073
EndChar

StartChar: dbluphorizform
Encoding: 9577 9577 564
Width: 1075
Flags: W
HStem: 283 160<0 1075> 635 160<0 298 778 1075>
VStem: 298 160<795 1775> 618 160<795 1775>
LayerCount: 2
Fore
SplineSet
298 795 m 1
 298 1775 l 1
 458 1775 l 1
 458 635 l 1
 -0 635 l 1
 0 795 l 1
 298 795 l 1
1075 635 m 1
 618 635 l 1
 618 1775 l 1
 778 1775 l 1
 778 795 l 1
 1075 795 l 1
 1075 635 l 1
0 283 m 1
 -0 443 l 1
 1075 443 l 1
 1075 283 l 1
 0 283 l 1
EndSplineSet
Validated: 3073
EndChar

StartChar: verthorizdblform
Encoding: 9578 9578 565
Width: 1075
Flags: W
HStem: 283 160<0 458 618 1075> 635 160<0 458 618 1075>
VStem: 458 160<-615 283 795 1775>
LayerCount: 2
Fore
SplineSet
618 -615 m 1
 458 -615 l 1
 458 283 l 1
 0 283 l 1
 -0 443 l 1
 1075 443 l 1
 1075 283 l 1
 618 283 l 1
 618 -615 l 1
0 635 m 1
 -0 795 l 1
 458 795 l 1
 458 1775 l 1
 618 1775 l 1
 618 795 l 1
 1075 795 l 1
 1075 635 l 1
 0 635 l 1
EndSplineSet
Validated: 3073
EndChar

StartChar: vertdblhorizform
Encoding: 9579 9579 566
Width: 1075
Flags: W
HStem: 443 160<0 298 778 1075>
VStem: 298 160<-615 443 603 1775> 618 160<-615 443 603 1775>
LayerCount: 2
Fore
SplineSet
0 443 m 1
 -0 603 l 1
 298 603 l 1
 298 1775 l 1
 458 1775 l 1
 458 -615 l 1
 298 -615 l 1
 298 443 l 1
 0 443 l 1
778 -615 m 1
 618 -615 l 1
 618 1775 l 1
 778 1775 l 1
 778 603 l 1
 1075 603 l 1
 1075 443 l 1
 778 443 l 1
 778 -615 l 1
EndSplineSet
Validated: 3073
EndChar

StartChar: dblverthorizform
Encoding: 9580 9580 567
Width: 1075
Flags: W
HStem: 283 160<0 298 778 1075> 635 160<0 298 778 1075>
VStem: -0 458<283 443 635 795> 298 160<-615 283 795 1775> 618 457<283 443 635 795> 618 160<-615 283 795 1775>
LayerCount: 2
Fore
SplineSet
298 795 m 1xd0
 298 1775 l 1
 458 1775 l 1xd0
 458 635 l 1
 -0 635 l 1
 0 795 l 1xe0
 298 795 l 1xd0
1075 635 m 1xc8
 618 635 l 1xc8
 618 1775 l 1
 778 1775 l 1
 778 795 l 1xc4
 1075 795 l 1
 1075 635 l 1xc8
0 443 m 1xe0
 458 443 l 1xe0
 458 -615 l 1
 298 -615 l 1
 298 283 l 1xd0
 -0 283 l 1
 0 443 l 1xe0
778 283 m 1xc4
 778 -615 l 1
 618 -615 l 1xc4
 618 443 l 1
 1075 443 l 1
 1075 283 l 1xc8
 778 283 l 1xc4
EndSplineSet
Validated: 3073
EndChar

StartChar: upblock
Encoding: 9600 9600 568
Width: 1075
Flags: W
HStem: 523 1252<0 1075>
VStem: -0 1075<523 1775>
LayerCount: 2
Fore
SplineSet
1075 523 m 1
 -0 523 l 1
 0 1775 l 1
 1075 1775 l 1
 1075 523 l 1
EndSplineSet
Validated: 3073
EndChar

StartChar: dnblock
Encoding: 9604 9604 569
Width: 1075
Flags: W
HStem: -615 1138<0 1075>
VStem: -0 1075<-615 523>
LayerCount: 2
Fore
SplineSet
1075 -615 m 1
 -0 -615 l 1
 -0 523 l 1
 1075 523 l 1
 1075 -615 l 1
EndSplineSet
Validated: 3073
EndChar

StartChar: block
Encoding: 9608 9608 570
Width: 1075
Flags: W
VStem: -0 1075<-615 1775>
LayerCount: 2
Fore
SplineSet
-0 -615 m 1
 0 1775 l 1
 1075 1775 l 1
 1075 -615 l 1
 -0 -615 l 1
EndSplineSet
Validated: 3073
EndChar

StartChar: lfblock
Encoding: 9612 9612 571
Width: 1075
Flags: W
VStem: -0 538<-615 1775>
LayerCount: 2
Fore
SplineSet
-0 -615 m 1
 0 1775 l 1
 538 1775 l 1
 538 -615 l 1
 -0 -615 l 1
EndSplineSet
Validated: 3073
EndChar

StartChar: rtblock
Encoding: 9616 9616 572
Width: 1075
Flags: W
VStem: 538 537<-615 1775>
LayerCount: 2
Fore
SplineSet
538 -615 m 1
 538 1775 l 1
 1075 1775 l 1
 1075 -615 l 1
 538 -615 l 1
EndSplineSet
Validated: 3073
EndChar

StartChar: shadelight
Encoding: 9617 9617 573
Width: 1075
Flags: W
HStem: -514 100<179 269 538 630 897 987> -315 100<0 90 358 449 719 808> -115 99<179 269 538 630 897 987> 83 100<0 90 358 449 719 808> 283 99<179 269 538 630 897 987> 482 99<0 90 358 449 719 808> 681 100<179 269 538 630 897 987> 881 99<0 90 358 449 719 808> 1080 99<179 269 538 630 897 987> 1278 100<0 90 358 449 719 808> 1477 100<179 269 538 630 897 987> 1677 98<0 90 358 449 719 808>
VStem: 0 90<-315 -215 83 183 482 581 881 980 1278 1378 1677 1775> 179 90<-514 -414 -115 -16 283 382 681 781 1080 1179 1477 1577> 358 91<-315 -215 83 183 482 581 881 980 1278 1378 1677 1775> 538 92<-514 -414 -115 -16 283 382 681 781 1080 1179 1477 1577> 719 89<-315 -215 83 183 482 581 881 980 1278 1378 1677 1775> 897 90<-514 -414 -115 -16 283 382 681 781 1080 1179 1477 1577>
LayerCount: 2
Fore
SplineSet
0 1378 m 1
 90 1378 l 1
 90 1278 l 1
 0 1278 l 1
 0 1378 l 1
358 1378 m 1
 449 1378 l 1
 449 1278 l 1
 358 1278 l 1
 358 1378 l 1
719 1378 m 1
 808 1378 l 1
 808 1278 l 1
 719 1278 l 1
 719 1378 l 1
179 1179 m 1
 269 1179 l 1
 269 1080 l 1
 179 1080 l 1
 179 1179 l 1
538 1179 m 1
 630 1179 l 1
 630 1080 l 1
 538 1080 l 1
 538 1179 l 1
897 1179 m 1
 987 1179 l 1
 987 1080 l 1
 897 1080 l 1
 897 1179 l 1
719 980 m 1
 808 980 l 1
 808 881 l 1
 719 881 l 1
 719 980 l 1
358 980 m 1
 449 980 l 1
 449 881 l 1
 358 881 l 1
 358 980 l 1
0 980 m 1
 90 980 l 1
 90 881 l 1
 0 881 l 1
 0 980 l 1
897 781 m 1
 987 781 l 1
 987 681 l 1
 897 681 l 1
 897 781 l 1
538 781 m 1
 630 781 l 1
 630 681 l 1
 538 681 l 1
 538 781 l 1
179 781 m 1
 269 781 l 1
 269 681 l 1
 179 681 l 1
 179 781 l 1
0 581 m 1
 90 581 l 1
 90 482 l 1
 0 482 l 1
 0 581 l 1
358 581 m 1
 449 581 l 1
 449 482 l 1
 358 482 l 1
 358 581 l 1
719 581 m 1
 808 581 l 1
 808 482 l 1
 719 482 l 1
 719 581 l 1
897 382 m 1
 987 382 l 1
 987 283 l 1
 897 283 l 1
 897 382 l 1
538 382 m 1
 630 382 l 1
 630 283 l 1
 538 283 l 1
 538 382 l 1
179 382 m 1
 269 382 l 1
 269 283 l 1
 179 283 l 1
 179 382 l 1
0 183 m 1
 90 183 l 1
 90 83 l 1
 0 83 l 1
 0 183 l 1
358 183 m 1
 449 183 l 1
 449 83 l 1
 358 83 l 1
 358 183 l 1
719 183 m 1
 808 183 l 1
 808 83 l 1
 719 83 l 1
 719 183 l 1
179 -16 m 1
 269 -16 l 1
 269 -115 l 1
 179 -115 l 1
 179 -16 l 1
538 -16 m 1
 630 -16 l 1
 630 -115 l 1
 538 -115 l 1
 538 -16 l 1
897 -16 m 1
 987 -16 l 1
 987 -115 l 1
 897 -115 l 1
 897 -16 l 1
719 -215 m 1
 808 -215 l 1
 808 -315 l 1
 719 -315 l 1
 719 -215 l 1
358 -215 m 1
 449 -215 l 1
 449 -315 l 1
 358 -315 l 1
 358 -215 l 1
0 -215 m 1
 90 -215 l 1
 90 -315 l 1
 0 -315 l 1
 0 -215 l 1
179 -414 m 1
 269 -414 l 1
 269 -514 l 1
 179 -514 l 1
 179 -414 l 1
538 -414 m 1
 630 -414 l 1
 630 -514 l 1
 538 -514 l 1
 538 -414 l 1
897 -414 m 1
 987 -414 l 1
 987 -514 l 1
 897 -514 l 1
 897 -414 l 1
179 1577 m 1
 269 1577 l 1
 269 1477 l 1
 179 1477 l 1
 179 1577 l 1
538 1577 m 1
 630 1577 l 1
 630 1477 l 1
 538 1477 l 1
 538 1577 l 1
897 1577 m 1
 987 1577 l 1
 987 1477 l 1
 897 1477 l 1
 897 1577 l 1
0 1775 m 1
 90 1775 l 1
 90 1677 l 1
 0 1677 l 1
 0 1775 l 1
358 1775 m 1
 449 1775 l 1
 449 1677 l 1
 358 1677 l 1
 358 1775 l 1
719 1775 m 1
 808 1775 l 1
 808 1677 l 1
 719 1677 l 1
 719 1775 l 1
EndSplineSet
Validated: 3073
EndChar

StartChar: shademedium
Encoding: 9618 9618 574
Width: 1075
Flags: W
HStem: -514 100<0 90 179 269 358 448 538 629 719 807 897 987> -315 100<90 179 269 358 448 538 629 719 807 897 987 1075> -115 99<0 90 179 269 358 448 538 629 719 807 897 987> 83 100<90 179 269 358 448 538 629 719 807 897 987 1075> 283 99<0 90 179 269 358 448 538 629 719 807 897 987> 482 99<90 179 269 358 448 538 629 719 807 897 987 1075> 681 100<0 90 179 269 358 448 538 629 719 807 897 987> 881 99<90 179 269 358 448 538 629 719 807 897 987 1075> 1080 99<0 90 179 269 358 448 538 629 719 807 897 987> 1278 100<90 179 269 358 448 538 629 719 807 897 987 1075> 1477 100<0 90 179 269 358 448 538 629 719 807 897 987> 1677 98<90 179 269 358 448 538 629 719 807 897 987 1075>
VStem: 0 90<-514 -414 -115 -16 283 382 681 781 1080 1179 1477 1577> 90 89<-315 -215 83 183 482 581 881 980 1278 1378 1677 1775> 179 90<-514 -414 -115 -16 283 382 681 781 1080 1179 1477 1577> 269 89<-315 -215 83 183 482 581 881 980 1278 1378 1677 1775> 358 90<-514 -414 -115 -16 283 382 681 781 1080 1179 1477 1577> 448 90<-315 -215 83 183 482 581 881 980 1278 1378 1677 1775> 538 91<-514 -414 -115 -16 283 382 681 781 1080 1179 1477 1577> 629 90<-315 -215 83 183 482 581 881 980 1278 1378 1677 1775> 719 88<-514 -414 -115 -16 283 382 681 781 1080 1179 1477 1577> 807 90<-315 -215 83 183 482 581 881 980 1278 1378 1677 1775> 897 90<-514 -414 -115 -16 283 382 681 781 1080 1179 1477 1577> 987 88<-315 -215 83 183 482 581 881 980 1278 1378 1677 1775>
LayerCount: 2
Fore
SplineSet
90 1378 m 1
 179 1378 l 1
 179 1278 l 1
 90 1278 l 1
 90 1378 l 1
269 1378 m 1
 358 1378 l 1
 358 1278 l 1
 269 1278 l 1
 269 1378 l 1
448 1378 m 1
 538 1378 l 1
 538 1278 l 1
 448 1278 l 1
 448 1378 l 1
629 1378 m 1
 719 1378 l 1
 719 1278 l 1
 629 1278 l 1
 629 1378 l 1
807 1378 m 1
 897 1378 l 1
 897 1278 l 1
 807 1278 l 1
 807 1378 l 1
987 1378 m 1
 1075 1378 l 1
 1075 1278 l 1
 987 1278 l 1
 987 1378 l 1
0 1179 m 1
 90 1179 l 1
 90 1080 l 1
 0 1080 l 1
 0 1179 l 1
179 1179 m 1
 269 1179 l 1
 269 1080 l 1
 179 1080 l 1
 179 1179 l 1
358 1179 m 1
 448 1179 l 1
 448 1080 l 1
 358 1080 l 1
 358 1179 l 1
538 1179 m 1
 629 1179 l 1
 629 1080 l 1
 538 1080 l 1
 538 1179 l 1
719 1179 m 1
 807 1179 l 1
 807 1080 l 1
 719 1080 l 1
 719 1179 l 1
897 1179 m 1
 987 1179 l 1
 987 1080 l 1
 897 1080 l 1
 897 1179 l 1
90 980 m 1
 179 980 l 1
 179 881 l 1
 90 881 l 1
 90 980 l 1
269 980 m 1
 358 980 l 1
 358 881 l 1
 269 881 l 1
 269 980 l 1
448 980 m 1
 538 980 l 1
 538 881 l 1
 448 881 l 1
 448 980 l 1
629 980 m 1
 719 980 l 1
 719 881 l 1
 629 881 l 1
 629 980 l 1
807 980 m 1
 897 980 l 1
 897 881 l 1
 807 881 l 1
 807 980 l 1
987 980 m 1
 1075 980 l 1
 1075 881 l 1
 987 881 l 1
 987 980 l 1
0 781 m 1
 90 781 l 1
 90 681 l 1
 0 681 l 1
 0 781 l 1
179 781 m 1
 269 781 l 1
 269 681 l 1
 179 681 l 1
 179 781 l 1
358 781 m 1
 448 781 l 1
 448 681 l 1
 358 681 l 1
 358 781 l 1
538 781 m 1
 629 781 l 1
 629 681 l 1
 538 681 l 1
 538 781 l 1
719 781 m 1
 807 781 l 1
 807 681 l 1
 719 681 l 1
 719 781 l 1
897 781 m 1
 987 781 l 1
 987 681 l 1
 897 681 l 1
 897 781 l 1
90 581 m 1
 179 581 l 1
 179 482 l 1
 90 482 l 1
 90 581 l 1
269 581 m 1
 358 581 l 1
 358 482 l 1
 269 482 l 1
 269 581 l 1
448 581 m 1
 538 581 l 1
 538 482 l 1
 448 482 l 1
 448 581 l 1
629 581 m 1
 719 581 l 1
 719 482 l 1
 629 482 l 1
 629 581 l 1
807 581 m 1
 897 581 l 1
 897 482 l 1
 807 482 l 1
 807 581 l 1
987 581 m 1
 1075 581 l 1
 1075 482 l 1
 987 482 l 1
 987 581 l 1
0 382 m 1
 90 382 l 1
 90 283 l 1
 0 283 l 1
 0 382 l 1
358 382 m 1
 448 382 l 1
 448 283 l 1
 358 283 l 1
 358 382 l 1
538 382 m 1
 629 382 l 1
 629 283 l 1
 538 283 l 1
 538 382 l 1
719 382 m 1
 807 382 l 1
 807 283 l 1
 719 283 l 1
 719 382 l 1
897 382 m 1
 987 382 l 1
 987 283 l 1
 897 283 l 1
 897 382 l 1
179 382 m 1
 269 382 l 1
 269 283 l 1
 179 283 l 1
 179 382 l 1
987 183 m 1
 1075 183 l 1
 1075 83 l 1
 987 83 l 1
 987 183 l 1
807 183 m 1
 897 183 l 1
 897 83 l 1
 807 83 l 1
 807 183 l 1
629 183 m 1
 719 183 l 1
 719 83 l 1
 629 83 l 1
 629 183 l 1
448 183 m 1
 538 183 l 1
 538 83 l 1
 448 83 l 1
 448 183 l 1
269 183 m 1
 358 183 l 1
 358 83 l 1
 269 83 l 1
 269 183 l 1
90 183 m 1
 179 183 l 1
 179 83 l 1
 90 83 l 1
 90 183 l 1
0 -16 m 1
 90 -16 l 1
 90 -115 l 1
 0 -115 l 1
 0 -16 l 1
179 -16 m 1
 269 -16 l 1
 269 -115 l 1
 179 -115 l 1
 179 -16 l 1
358 -16 m 1
 448 -16 l 1
 448 -115 l 1
 358 -115 l 1
 358 -16 l 1
538 -16 m 1
 629 -16 l 1
 629 -115 l 1
 538 -115 l 1
 538 -16 l 1
719 -16 m 1
 807 -16 l 1
 807 -115 l 1
 719 -115 l 1
 719 -16 l 1
897 -16 m 1
 987 -16 l 1
 987 -115 l 1
 897 -115 l 1
 897 -16 l 1
987 -215 m 1
 1075 -215 l 1
 1075 -315 l 1
 987 -315 l 1
 987 -215 l 1
807 -215 m 1
 897 -215 l 1
 897 -315 l 1
 807 -315 l 1
 807 -215 l 1
629 -215 m 1
 719 -215 l 1
 719 -315 l 1
 629 -315 l 1
 629 -215 l 1
448 -215 m 1
 538 -215 l 1
 538 -315 l 1
 448 -315 l 1
 448 -215 l 1
269 -215 m 1
 358 -215 l 1
 358 -315 l 1
 269 -315 l 1
 269 -215 l 1
90 -215 m 1
 179 -215 l 1
 179 -315 l 1
 90 -315 l 1
 90 -215 l 1
0 -414 m 1
 90 -414 l 1
 90 -514 l 1
 0 -514 l 1
 0 -414 l 1
179 -414 m 1
 269 -414 l 1
 269 -514 l 1
 179 -514 l 1
 179 -414 l 1
358 -414 m 1
 448 -414 l 1
 448 -514 l 1
 358 -514 l 1
 358 -414 l 1
538 -414 m 1
 629 -414 l 1
 629 -514 l 1
 538 -514 l 1
 538 -414 l 1
719 -414 m 1
 807 -414 l 1
 807 -514 l 1
 719 -514 l 1
 719 -414 l 1
897 -414 m 1
 987 -414 l 1
 987 -514 l 1
 897 -514 l 1
 897 -414 l 1
0 1577 m 1
 90 1577 l 1
 90 1477 l 1
 0 1477 l 1
 0 1577 l 1
179 1577 m 1
 269 1577 l 1
 269 1477 l 1
 179 1477 l 1
 179 1577 l 1
358 1577 m 1
 448 1577 l 1
 448 1477 l 1
 358 1477 l 1
 358 1577 l 1
538 1577 m 1
 629 1577 l 1
 629 1477 l 1
 538 1477 l 1
 538 1577 l 1
719 1577 m 1
 807 1577 l 1
 807 1477 l 1
 719 1477 l 1
 719 1577 l 1
897 1577 m 1
 987 1577 l 1
 987 1477 l 1
 897 1477 l 1
 897 1577 l 1
90 1775 m 1
 179 1775 l 1
 179 1677 l 1
 90 1677 l 1
 90 1775 l 1
269 1775 m 1
 358 1775 l 1
 358 1677 l 1
 269 1677 l 1
 269 1775 l 1
448 1775 m 1
 538 1775 l 1
 538 1677 l 1
 448 1677 l 1
 448 1775 l 1
629 1775 m 1
 719 1775 l 1
 719 1677 l 1
 629 1677 l 1
 629 1775 l 1
807 1775 m 1
 897 1775 l 1
 897 1677 l 1
 807 1677 l 1
 807 1775 l 1
987 1775 m 1
 1075 1775 l 1
 1075 1677 l 1
 987 1677 l 1
 987 1775 l 1
EndSplineSet
Validated: 3073
EndChar

StartChar: shadedark
Encoding: 9619 9619 575
Width: 1075
Flags: W
HStem: -615 300<0 90 179 269 358 448 538 629 719 807 897 987> -615 101<90 179 269 358 448 538 629 719 807 897 987 1075> -414 299<90 179 269 358 448 538 629 719 807 897 987 1075> -215 299<0 90 179 269 358 448 538 629 719 807 897 987> -16 299<90 179 269 358 448 538 629 719 807 897 987 1075> 183 299<0 90 179 269 358 448 538 629 719 807 897 987> 382 299<90 179 269 358 448 538 629 719 807 897 987 1075> 581 299<0 90 179 269 358 448 538 629 719 807 897 987> 781 299<90 179 269 358 448 538 629 719 807 897 987 1075> 980 299<0 90 179 269 358 448 538 629 719 807 897 987> 1179 299<90 179 269 358 448 538 629 719 807 897 987 1075> 1378 299<0 90 179 269 358 448 538 629 719 807 897 987> 1577 198<90 179 269 358 448 538 629 719 807 897 987 1075>
VStem: 0 90<-514 -414 -115 -16 283 382 681 781 1080 1179 1478 1577> 90 89<-315 -215 84 183 482 581 881 980 1279 1378 1677 1775> 179 90<-514 -414 -115 -16 283 382 681 781 1080 1179 1478 1577> 269 89<-315 -215 84 183 482 581 880 980 1279 1378 1677 1775> 358 90<-514 -414 -115 -16 283 382 681 781 1080 1179 1478 1577> 448 90<-315 -215 84 183 482 581 880 980 1279 1378 1677 1775> 538 91<-514 -414 -115 -16 283 382 681 781 1080 1179 1478 1577> 629 90<-315 -215 84 183 482 581 880 980 1279 1378 1677 1775> 719 88<-514 -414 -115 -16 283 382 681 781 1080 1179 1478 1577> 807 90<-315 -215 84 183 482 581 880 980 1279 1378 1677 1775> 897 90<-514 -414 -115 -16 283 382 681 781 1080 1179 1478 1577> 987 88<-315 -215 84 183 482 581 880 980 1279 1378 1677 1775>
LayerCount: 2
Fore
SplineSet
1075 1577 m 1x000fff80
 987 1577 l 1
 987 1478 l 1
 1075 1478 l 1
 1075 1179 l 1
 987 1179 l 1
 987 1080 l 1
 1075 1080 l 1
 1075 781 l 1
 987 781 l 1
 987 681 l 1
 1075 681 l 1
 1075 382 l 1
 987 382 l 1
 987 283 l 1
 1075 283 l 1
 1075 -16 l 1
 987 -16 l 1
 987 -115 l 1
 1075 -115 l 1
 1075 -414 l 1
 987 -414 l 1
 987 -514 l 1
 1075 -514 l 1
 1075 -615 l 1x6aafff80
 0 -615 l 1
 0 -315 l 1
 90 -315 l 1
 90 -215 l 1
 0 -215 l 1
 0 83 l 1
 90 83 l 1
 90 183 l 1
 0 183 l 1
 0 482 l 1
 90 482 l 1
 90 581 l 1
 0 581 l 1
 0 881 l 1
 90 881 l 1
 90 980 l 1
 0 980 l 1
 0 1279 l 1
 90 1279 l 1
 90 1378 l 1
 0 1378 l 1
 0 1677 l 1
 90 1677 l 1x9557ff80
 90 1775 l 1
 179 1775 l 1x000fff80
 179 1677 l 1
 269 1677 l 1x0017ff80
 269 1775 l 1
 358 1775 l 1x000fff80
 358 1677 l 1
 448 1677 l 1x0017ff80
 448 1775 l 1
 538 1775 l 1x000fff80
 538 1677 l 1
 629 1677 l 1x0017ff80
 629 1775 l 1
 719 1775 l 1x000fff80
 719 1677 l 1
 807 1677 l 1x0017ff80
 807 1775 l 1
 897 1775 l 1x000fff80
 897 1677 l 1
 987 1677 l 1x0017ff80
 987 1775 l 1
 1075 1775 l 1
 1075 1577 l 1x000fff80
90 1179 m 1
 90 1080 l 1
 179 1080 l 1
 179 1179 l 1
 90 1179 l 1
269 1179 m 1
 269 1080 l 1
 358 1080 l 1
 358 1179 l 1
 269 1179 l 1
448 1179 m 1
 448 1080 l 1
 538 1080 l 1
 538 1179 l 1
 448 1179 l 1
629 1179 m 1
 629 1080 l 1
 719 1080 l 1
 719 1179 l 1
 629 1179 l 1
807 1179 m 1
 807 1080 l 1
 897 1080 l 1
 897 1179 l 1
 807 1179 l 1
987 980 m 1x0147ff80
 897 980 l 1
 897 880 l 1
 987 880 l 1
 987 980 l 1x0147ff80
807 980 m 1
 719 980 l 1
 719 880 l 1
 807 880 l 1
 807 980 l 1
629 980 m 1
 538 980 l 1
 538 880 l 1
 629 880 l 1
 629 980 l 1
448 980 m 1
 358 980 l 1
 358 880 l 1
 448 880 l 1
 448 980 l 1
269 980 m 1
 179 980 l 1
 179 880 l 1
 269 880 l 1
 269 980 l 1
90 781 m 1x0287ff80
 90 681 l 1
 179 681 l 1
 179 781 l 1
 90 781 l 1x0287ff80
269 781 m 1
 269 681 l 1
 358 681 l 1
 358 781 l 1
 269 781 l 1
448 781 m 1
 448 681 l 1
 538 681 l 1
 538 781 l 1
 448 781 l 1
629 781 m 1
 629 681 l 1
 719 681 l 1
 719 781 l 1
 629 781 l 1
807 781 m 1
 807 681 l 1
 897 681 l 1
 897 781 l 1
 807 781 l 1
269 581 m 1x0507ff80
 179 581 l 1
 179 482 l 1
 269 482 l 1
 269 581 l 1x0507ff80
358 581 m 1
 358 482 l 1
 448 482 l 1
 448 581 l 1
 358 581 l 1
538 581 m 1
 538 482 l 1
 629 482 l 1
 629 581 l 1
 538 581 l 1
719 581 m 1
 719 482 l 1
 807 482 l 1
 807 581 l 1
 719 581 l 1
897 581 m 1
 897 482 l 1
 987 482 l 1
 987 581 l 1
 897 581 l 1
90 382 m 1x0a07ff80
 90 283 l 1
 179 283 l 1
 179 382 l 1
 90 382 l 1x0a07ff80
448 382 m 1
 448 283 l 1
 538 283 l 1
 538 382 l 1
 448 382 l 1
358 283 m 1
 358 382 l 1
 269 382 l 1
 269 283 l 1
 358 283 l 1
629 382 m 1
 629 283 l 1
 719 283 l 1
 719 382 l 1
 629 382 l 1
807 382 m 1
 807 283 l 1
 897 283 l 1
 897 382 l 1
 807 382 l 1
987 84 m 1x1407ff80
 987 183 l 1
 897 183 l 1
 897 84 l 1
 987 84 l 1x1407ff80
807 84 m 1
 807 183 l 1
 719 183 l 1
 719 84 l 1
 807 84 l 1
629 84 m 1
 629 183 l 1
 538 183 l 1
 538 84 l 1
 629 84 l 1
448 84 m 1
 448 183 l 1
 358 183 l 1
 358 84 l 1
 448 84 l 1
269 84 m 1
 269 183 l 1
 179 183 l 1
 179 84 l 1
 269 84 l 1
90 -16 m 1x2807ff80
 90 -115 l 1
 179 -115 l 1
 179 -16 l 1
 90 -16 l 1x2807ff80
269 -16 m 1
 269 -115 l 1
 358 -115 l 1
 358 -16 l 1
 269 -16 l 1
448 -16 m 1
 448 -115 l 1
 538 -115 l 1
 538 -16 l 1
 448 -16 l 1
629 -16 m 1
 629 -115 l 1
 719 -115 l 1
 719 -16 l 1
 629 -16 l 1
807 -16 m 1
 807 -115 l 1
 897 -115 l 1
 897 -16 l 1
 807 -16 l 1
987 -315 m 1x9007ff80
 987 -215 l 1
 897 -215 l 1
 897 -315 l 1
 987 -315 l 1x9007ff80
807 -315 m 1
 807 -215 l 1
 719 -215 l 1
 719 -315 l 1
 807 -315 l 1
629 -315 m 1
 629 -215 l 1
 538 -215 l 1
 538 -315 l 1
 629 -315 l 1
448 -315 m 1
 448 -215 l 1
 358 -215 l 1
 358 -315 l 1
 448 -315 l 1
269 -315 m 1
 269 -215 l 1
 179 -215 l 1
 179 -315 l 1
 269 -315 l 1
90 -414 m 1x6007ff80
 90 -514 l 1
 179 -514 l 1
 179 -414 l 1
 90 -414 l 1x6007ff80
269 -414 m 1
 269 -514 l 1
 358 -514 l 1
 358 -414 l 1
 269 -414 l 1
448 -414 m 1
 448 -514 l 1
 538 -514 l 1
 538 -414 l 1
 448 -414 l 1
629 -414 m 1
 629 -514 l 1
 719 -514 l 1
 719 -414 l 1
 629 -414 l 1
807 -414 m 1
 807 -514 l 1
 897 -514 l 1
 897 -414 l 1
 807 -414 l 1
987 1378 m 1x0057ff80
 897 1378 l 1
 897 1279 l 1
 987 1279 l 1
 987 1378 l 1x0057ff80
807 1378 m 1
 719 1378 l 1
 719 1279 l 1
 807 1279 l 1
 807 1378 l 1
629 1378 m 1
 538 1378 l 1
 538 1279 l 1
 629 1279 l 1
 629 1378 l 1
448 1378 m 1
 358 1378 l 1
 358 1279 l 1
 448 1279 l 1
 448 1378 l 1
269 1378 m 1
 179 1378 l 1
 179 1279 l 1
 269 1279 l 1
 269 1378 l 1
897 1577 m 1x002fff80
 807 1577 l 1
 807 1478 l 1
 897 1478 l 1
 897 1577 l 1x002fff80
719 1577 m 1
 629 1577 l 1
 629 1478 l 1
 719 1478 l 1
 719 1577 l 1
538 1577 m 1
 448 1577 l 1
 448 1478 l 1
 538 1478 l 1
 538 1577 l 1
358 1577 m 1
 269 1577 l 1
 269 1478 l 1
 358 1478 l 1
 358 1577 l 1
179 1577 m 1
 90 1577 l 1
 90 1478 l 1
 179 1478 l 1
 179 1577 l 1
EndSplineSet
Validated: 3073
EndChar

StartChar: blacksquare
Encoding: 9632 9632 576
Width: 1075
Flags: W
HStem: 98 1233<0 1075>
VStem: 0 1075<98 1331>
LayerCount: 2
Fore
SplineSet
0 1331 m 1
 1075 1331 l 1
 1075 98 l 1
 0 98 l 1
 0 1331 l 1
EndSplineSet
Validated: 3073
EndChar

StartChar: whitesquare
Encoding: 9633 9633 577
Width: 1075
Flags: W
HStem: 98 262<219 856> 1107 224<219 856>
VStem: 0 219<360 1107> 856 219<360 1107>
LayerCount: 2
Fore
SplineSet
0 1331 m 1
 1075 1331 l 1
 1075 98 l 1
 0 98 l 1
 0 1331 l 1
219 1107 m 1
 219 360 l 1
 856 360 l 1
 856 1107 l 1
 219 1107 l 1
EndSplineSet
Validated: 3073
EndChar

StartChar: blacksmallsquare
Encoding: 9642 9642 578
Width: 1075
Flags: W
HStem: 467 551<262 813>
VStem: 262 551<467 1018>
LayerCount: 2
Fore
SplineSet
813 467 m 1
 262 467 l 1
 262 1018 l 1
 813 1018 l 1
 813 467 l 1
EndSplineSet
Validated: 3073
EndChar

StartChar: whitesmallsquare
Encoding: 9643 9643 579
Width: 1075
Flags: W
HStem: 467 133<399 676> 885 133<399 676>
VStem: 262 137<600 885> 676 137<600 885>
LayerCount: 2
Fore
SplineSet
813 467 m 1
 262 467 l 1
 262 1018 l 1
 813 1018 l 1
 813 467 l 1
676 600 m 1
 676 885 l 1
 399 885 l 1
 399 600 l 1
 676 600 l 1
EndSplineSet
Validated: 3073
EndChar

StartChar: blackrectangle
Encoding: 9644 9644 580
Width: 1075
Flags: W
HStem: 461 269<0 1075>
LayerCount: 2
Fore
SplineSet
0 730 m 1
 1075 730 l 1
 1075 461 l 1
 0 461 l 1
 0 730 l 1
EndSplineSet
Validated: 3073
EndChar

StartChar: triagup
Encoding: 9650 9650 581
Width: 1075
Flags: W
LayerCount: 2
Fore
SplineSet
0 96 m 1
 537 1103 l 1
 1075 96 l 1
 0 96 l 1
EndSplineSet
Validated: 3073
EndChar

StartChar: triagrt
Encoding: 9658 9658 582
Width: 1075
Flags: W
HStem: 1021 20G<72.0359 104.361>
LayerCount: 2
Fore
SplineSet
74 -73 m 1
 72 1041 l 1
 1004 465 l 1
 74 -73 l 1
EndSplineSet
Validated: 3073
EndChar

StartChar: triagdn
Encoding: 9660 9660 583
Width: 1075
Flags: W
LayerCount: 2
Fore
SplineSet
1075 1103 m 1
 539 96 l 1
 0 1103 l 1
 1075 1103 l 1
EndSplineSet
Validated: 3073
EndChar

StartChar: triaglf
Encoding: 9668 9668 584
Width: 1075
Flags: W
HStem: 1022 20G<970.764 1003>
LayerCount: 2
Fore
SplineSet
73 465 m 1
 1003 1042 l 1
 1003 -73 l 1
 73 465 l 1
EndSplineSet
Validated: 3073
EndChar

StartChar: lozenge
Encoding: 9674 9674 585
Width: 1075
Flags: W
LayerCount: 2
Fore
SplineSet
585 1538 m 1
 973 864 l 1
 585 121 l 1
 480 121 l 1
 104 864 l 1
 480 1538 l 1
 585 1538 l 1
535 1235 m 1
 305 866 l 1
 535 421 l 1
 767 866 l 1
 535 1235 l 1
EndSplineSet
Validated: 3073
EndChar

StartChar: whitecircle
Encoding: 9675 9675 586
Width: 1075
Flags: W
HStem: 221 212<399.744 674.929> 915 212<399.449 675.469>
VStem: 122 175<535.466 808.895> 779 175<534.535 811.506>
LayerCount: 2
Fore
SplineSet
538 1127 m 0
 774 1127 954 898 954 674 c 0
 954 440 768 221 538 221 c 0
 301 221 122 445 122 674 c 0
 122 890 293 1127 538 1127 c 0
538 915 m 0
 398 915 297 803 297 674 c 0
 297 529 414 433 538 433 c 256
 673 433 779 540 779 674 c 0
 779 797 681 915 538 915 c 0
EndSplineSet
Validated: 3073
EndChar

StartChar: blackcircle
Encoding: 9679 9679 587
Width: 1075
Flags: W
HStem: 221 906<369.641 709.306>
VStem: 122 832<484.661 865.177>
LayerCount: 2
Fore
SplineSet
538 1127 m 0
 774 1127 954 898 954 674 c 0
 954 440 768 221 538 221 c 0
 301 221 122 445 122 674 c 0
 122 890 293 1127 538 1127 c 0
EndSplineSet
Validated: 3073
EndChar

StartChar: bulletinverse
Encoding: 9688 9688 588
Width: 1075
Flags: W
HStem: 72 309<415.072 658.292> 763 309<413.445 659.122>
VStem: 74 273<451.324 695.368> 728 272<449.878 693.707>
LayerCount: 2
Fore
SplineSet
74 72 m 1
 74 1072 l 1
 1000 1072 l 1
 1000 72 l 1
 74 72 l 1
537 763 m 256
 434 763 347 682 347 572 c 0
 347 460 438 381 537 381 c 0
 642 381 728 465 728 572 c 0
 728 678 644 763 537 763 c 256
EndSplineSet
Validated: 3073
EndChar

StartChar: whitecircleinverse
Encoding: 9689 9689 589
Width: 1075
Flags: W
HStem: 91 130<365.578 706.298> 433 482<401.273 677.259> 1127 92<369.876 711.026>
VStem: 0 123<475.43 863.84> 298 481<532.13 810.215> 954 121<480.366 870.553>
LayerCount: 2
Fore
SplineSet
0 91 m 1
 0 1219 l 1
 1075 1219 l 1
 1075 91 l 1
 0 91 l 1
538 1127 m 0
 315 1127 123 910 123 673 c 0
 123 442 305 221 538 221 c 0
 761 221 954 431 954 673 c 0
 954 903 772 1127 538 1127 c 0
539 915 m 0
 673 915 779 806 779 673 c 0
 779 536 670 433 539 433 c 0
 407 433 298 536 298 673 c 0
 298 811 410 915 539 915 c 0
EndSplineSet
Validated: 3073
EndChar

StartChar: whitebullet
Encoding: 9702 9702 590
Width: 1075
Flags: W
HStem: 474 132<436.857 639.033> 880 131<436.651 638.192>
VStem: 269 131<642.264 843.073> 676 130<644.436 842.322>
LayerCount: 2
Fore
SplineSet
806 743 m 0
 806 582 677 474 537 474 c 256
 389 474 269 592 269 743 c 0
 269 892 388 1011 537 1011 c 0
 690 1011 806 891 806 743 c 0
676 743 m 0
 676 822 611 880 537 880 c 256
 466 880 400 825 400 743 c 0
 400 660 466 606 537 606 c 256
 614 606 676 666 676 743 c 0
EndSplineSet
Validated: 3073
EndChar

StartChar: smileface
Encoding: 9786 9786 591
Width: 1075
Flags: W
HStem: 108 147<373.598 701.652> 395 63<433.973 639.605> 709 133<301.37 425.592 650.282 774.302> 1109 110<371.499 699.091>
VStem: 0 149<491.462 869.427> 297 133<713.413 837.843> 646 132<713.188 838.496> 927 147<491.722 867.444>
LayerCount: 2
Fore
SplineSet
1074 681 m 0
 1074 382 839 108 537 108 c 0
 236 108 0 384 0 681 c 0
 0 992 248 1219 537 1219 c 0
 839 1219 1074 981 1074 681 c 0
927 681 m 0
 927 899 757 1109 537 1109 c 0
 318 1109 149 898 149 681 c 0
 149 455 329 255 537 255 c 0
 749 255 927 458 927 681 c 0
430 777 m 256
 430 740 400 709 362 709 c 256
 325 709 297 742 297 777 c 256
 297 810 323 842 362 842 c 256
 402 842 430 811 430 777 c 256
778 777 m 256
 778 740 751 709 714 709 c 256
 674 709 646 740 646 777 c 256
 646 812 673 842 714 842 c 256
 751 842 778 812 778 777 c 256
327 535 m 1
 372 560 l 1
 410 493 465 458 537 458 c 256
 610 458 665 493 702 560 c 1
 748 535 l 1
 700 441 629 395 537 395 c 0
 424 395 362 468 327 535 c 1
EndSplineSet
Validated: 3073
EndChar

StartChar: invsmileface
Encoding: 9787 9787 592
Width: 1075
Flags: W
HStem: 108 236<395.769 678.479> 861 358<326.126 751.604>
VStem: 0 264<532.5 851.305> 400 276<729.188 856.587> 811 263<531.5 855.968>
LayerCount: 2
Fore
SplineSet
1074 681 m 0
 1074 382 839 108 537 108 c 0
 236 108 0 384 0 681 c 0
 0 992 248 1219 537 1219 c 0
 839 1219 1074 981 1074 681 c 0
400 793 m 256
 400 828 371 861 332 861 c 256
 292 861 264 827 264 793 c 256
 264 758 293 725 332 725 c 256
 370 725 400 756 400 793 c 256
811 793 m 256
 811 829 784 861 744 861 c 256
 704 861 676 829 676 793 c 256
 676 756 705 725 744 725 c 256
 783 725 811 756 811 793 c 256
290 509 m 1
 330 431 404 344 537 344 c 0
 671 344 743 430 785 509 c 1
 732 539 l 1
 687 459 623 418 537 418 c 256
 452 418 388 459 343 539 c 1
 290 509 l 1
EndSplineSet
Validated: 3073
EndChar

StartChar: compass
Encoding: 9788 9788 593
Width: 1075
Flags: W
HStem: 523 53<0 189 887 1075> 842 92<567 688.465>
VStem: 189 56<576 672.297> 509 58<12 168.438 934 1124> 828 59<574 677.349>
LayerCount: 2
Fore
SplineSet
509 1124 m 1
 567 1124 l 1
 567 934 l 1
 648 934 707 898 763 855 c 1
 927 1015 l 1
 966 975 l 1
 805 813 l 1
 856 746 887 641 887 574 c 1
 1075 574 l 1
 1075 523 l 1
 887 523 l 1
 878 453 852 348 806 290 c 1
 966 123 l 1
 925 86 l 1
 763 245 l 1
 698 196 649 174 567 165 c 1
 567 12 l 1
 509 12 l 1
 509 165 l 1
 435 175 371 202 314 243 c 1
 149 87 l 1
 111 125 l 1
 271 287 l 1
 224 347 198 449 189 523 c 1
 0 523 l 1
 0 576 l 1
 189 576 l 1
 189 651 223 754 270 811 c 1
 111 973 l 1
 146 1016 l 1
 313 856 l 1
 379 902 446 927 509 934 c 1
 509 1124 l 1
537 842 m 256
 369 842 245 708 245 550 c 0
 245 388 371 258 537 258 c 256
 705 258 828 391 828 550 c 0
 828 713 699 842 537 842 c 256
EndSplineSet
Validated: 3073
EndChar

StartChar: female
Encoding: 9792 9792 594
Width: 1075
Flags: W
HStem: 400 81<205 497 582 871> 673 95<404.19 497 582 670.61> 1247 135<403.214 670.192>
VStem: 214 92<869.11 1148.63> 497 85<56 400 481 681.299> 771 93<865.327 1149.35>
LayerCount: 2
Fore
SplineSet
497 673 m 1
 335 697 214 871 214 1043 c 0
 214 1247 370 1382 539 1382 c 0
 709 1382 864 1245 864 1043 c 0
 864 859 733 693 582 673 c 1
 582 481 l 1
 871 481 l 1
 871 400 l 1
 582 400 l 1
 582 56 l 1
 497 56 l 1
 497 400 l 1
 205 400 l 1
 205 481 l 1
 497 481 l 1
 497 673 l 1
538 1247 m 0
 410 1247 306 1142 306 1008 c 256
 306 871 411 768 538 768 c 256
 663 768 771 868 771 1008 c 256
 771 1147 664 1247 538 1247 c 0
EndSplineSet
Validated: 3073
EndChar

StartChar: male
Encoding: 9794 9794 595
Width: 1075
Flags: W
HStem: 255 124<244.29 513.41> 875 125<239.907 517.234>
VStem: 49 89<488.381 770.77> 620 87<487.202 770.257>
LayerCount: 2
Fore
SplineSet
553 950 m 1
 846 1217 l 1
 785 1284 602 1348 602 1354 c 1
 627 1382 l 9
 1008 1382 l 0
 1027 1365 l 0
 1027 962 l 273
 1000 938 l 1
 994 938 927 1102 899 1162 c 1
 613 901 l 1
 676 838 707 726 707 639 c 0
 707 441 558 255 377 255 c 256
 189 255 49 445 49 624 c 0
 49 810 192 1000 379 1000 c 0
 433 1000 490 983 553 950 c 1
379 875 m 0
 244 875 138 767 138 628 c 256
 138 484 252 379 379 379 c 256
 503 379 620 476 620 628 c 0
 620 774 507 875 379 875 c 0
EndSplineSet
Validated: 3073
EndChar

StartChar: spade
Encoding: 9824 9824 596
Width: 1075
Flags: W
HStem: 140 33<196 308.148 780.622 880>
VStem: 532 16<484.853 587>
LayerCount: 2
Fore
SplineSet
538 1259 m 1
 621 915 964 860 964 615 c 0
 964 500 876 419 772 419 c 0
 681 419 607 475 548 587 c 1
 548 285 715 173 880 173 c 1
 885 140 l 1
 189 140 l 1
 196 173 l 1
 466 173 532 390 532 587 c 1
 477 468 395 419 304 419 c 0
 199 419 111 504 111 611 c 0
 111 870 459 898 538 1259 c 1
EndSplineSet
Validated: 3073
EndChar

StartChar: club
Encoding: 9827 9827 597
Width: 1075
Flags: W
HStem: 139 29<175 228.02 846.429 902> 414 523<108.487 350.196 723.347 968.311>
VStem: 294 484<917.104 1175.49> 529 17<519.892 622>
LayerCount: 2
Fore
SplineSet
909 139 m 1xd0
 170 139 l 1
 175 168 l 1
 199 173 529 238 529 581 c 0
 529 590 529 603 529 622 c 1xd0
 463 488 356 414 242 414 c 0
 118 414 0 507 0 658 c 0
 0 817 121 937 209 937 c 0
 245 937 293 922 353 891 c 1
 304 973 294 1002 294 1051 c 0
 294 1180 392 1249 536 1249 c 0
 676 1249 778 1182 778 1053 c 0xe0
 778 1001 758 947 718 891 c 1
 800 930 812 937 860 937 c 0
 974 937 1075 802 1075 662 c 0
 1075 518 965 414 836 414 c 0
 655 414 564 593 546 622 c 1
 546 285 734 202 902 168 c 1
 909 139 l 1xd0
EndSplineSet
Validated: 3073
EndChar

StartChar: heart
Encoding: 9829 9829 598
Width: 1075
Flags: W
LayerCount: 2
Fore
SplineSet
540 105 m 1
 445 459 93 755 93 989 c 0
 93 1116 186 1165 304 1165 c 0
 398 1165 488 1150 540 999 c 1
 582 1150 680 1166 771 1166 c 0
 895 1166 982 1107 982 1000 c 0
 982 728 632 459 540 105 c 1
EndSplineSet
Validated: 3073
EndChar

StartChar: diamond
Encoding: 9830 9830 599
Width: 1075
Flags: W
LayerCount: 2
Fore
SplineSet
537 1246 m 1
 624 1039 788 833 939 700 c 1
 812 602 635 329 537 115 c 1
 458 294 266 602 138 700 c 1
 291 833 424 1008 537 1246 c 1
EndSplineSet
Validated: 3073
EndChar

StartChar: musicalnote
Encoding: 9834 9834 600
Width: 1075
Flags: W
HStem: 122 313<297.836 433.237>
VStem: 489 71<418 933 1162 1220> 730 78<467.966 795.536>
LayerCount: 2
Fore
SplineSet
489 418 m 1
 489 1220 l 1
 560 1220 l 1
 560 1162 l 1
 706 982 l 2
 759 907 808 764 808 644 c 0
 808 547 778 462 719 388 c 1
 674 388 l 1
 712 470 730 549 730 623 c 256
 730 786 633 921 560 933 c 1
 560 418 l 2
 560 301 460 122 322 122 c 0
 254 122 214 154 214 215 c 0
 214 309 295 435 404 435 c 0
 429 435 457 430 489 418 c 1
EndSplineSet
Validated: 3073
EndChar

StartChar: musicalnotedbl
Encoding: 9835 9835 601
Width: 1075
Flags: W
HStem: 46 311<127.286 289.342> 135 311<718.31 864.386>
VStem: 318 71<304 713 833 941> 909 70<430 891 974 1082>
LayerCount: 2
Fore
SplineSet
979 430 m 2xb0
 979 261 863 135 742 135 c 0
 651 135 634 191 634 228 c 0
 634 321 714 446 824 446 c 0x70
 855 446 883 439 909 430 c 1
 909 891 l 1
 389 713 l 1
 389 304 l 2
 389 135 273 46 151 46 c 0
 60 46 42 102 42 139 c 0
 42 231 123 357 234 357 c 0
 265 357 295 314 318 304 c 1
 318 1087 l 1
 979 1219 l 1
 979 430 l 2xb0
389 833 m 1
 909 974 l 1
 909 1082 l 1
 389 941 l 1
 389 833 l 1
EndSplineSet
Validated: 3073
EndChar

StartChar: arrowboth
Encoding: 8596 8596 602
Width: 1075
VWidth: 1708
Flags: W
HStem: 520 160<296 780> 1023 20G<369.651 410.314 665.686 706.349>
LayerCount: 2
Fore
SplineSet
999 535 m 1
 690 157 l 1
 566 259 l 1
 780 520 l 1
 296 520 l 1
 510 259 l 1
 386 157 l 1
 77 535 l 1
 77 665 l 1
 386 1043 l 1
 510 941 l 1
 296 680 l 1
 780 680 l 1
 566 941 l 1
 690 1043 l 1
 999 665 l 1
 999 535 l 1
EndSplineSet
Validated: 3073
EndChar

StartChar: arrowbothv
Encoding: 8597 8597 603
Width: 1075
VWidth: 1708
Flags: W
VStem: 458 160<317 906>
LayerCount: 2
Fore
SplineSet
477 55 m 1
 118 457 l 1
 238 563 l 1
 458 317 l 1
 458 906 l 1
 233 694 l 1
 123 810 l 1
 479 1145 l 1
 597 1145 l 1
 953 810 l 1
 843 694 l 1
 618 906 l 1
 618 317 l 1
 838 563 l 1
 958 457 l 1
 599 55 l 1
 477 55 l 1
EndSplineSet
Validated: 3073
EndChar

StartChar: updownarrowbar
Encoding: 8616 8616 604
Width: 1075
VWidth: 1708
Flags: W
HStem: -54 160<127 432 644 949>
VStem: 458 160<317 906>
LayerCount: 2
Fore
SplineSet
949 106 m 1
 949 -54 l 1
 127 -54 l 1
 127 106 l 1
 432 106 l 1
 118 457 l 1
 238 563 l 1
 458 317 l 1
 458 906 l 1
 233 694 l 1
 123 810 l 1
 479 1145 l 1
 597 1145 l 1
 953 810 l 1
 843 694 l 1
 618 906 l 1
 618 317 l 1
 838 563 l 1
 958 457 l 1
 644 106 l 1
 949 106 l 1
EndSplineSet
Validated: 3073
EndChar

StartChar: nsuperior
Encoding: 8319 8319 605
Width: 1075
VWidth: 1947
Flags: W
HStem: 1214 210<438.817 675.296>
VStem: 171 210<544 1154.05 1386 1424> 695 210<544 1194.15>
LayerCount: 2
Fore
SplineSet
695 1103 m 2
 695 1164 681 1214 547 1214 c 2
 529 1214 l 2
 417 1214 381 1066 381 1024 c 2
 381 544 l 1
 171 544 l 1
 171 1424 l 1
 381 1424 l 1
 381 1386 l 1
 383 1386 l 1
 448 1421 484 1424 529 1424 c 2
 547 1424 l 2
 897 1424 905 1185 905 1103 c 2
 905 544 l 1
 695 544 l 1
 695 1103 l 2
EndSplineSet
Validated: 3073
EndChar

StartChar: radical
Encoding: 8730 8730 606
Width: 1075
VWidth: 1708
Flags: W
HStem: -25 21G<491.027 685.62> 890 210<48 179>
LayerCount: 2
Fore
SplineSet
498 -25 m 1
 179 890 l 1
 48 890 l 1
 48 1100 l 1
 329 1100 l 1
 568 415 l 1
 849 1633 l 1
 1064 1633 l 1
 681 -25 l 1
 498 -25 l 1
EndSplineSet
Validated: 3073
EndChar

StartChar: intersection
Encoding: 8745 8745 608
Width: 1075
Flags: W
HStem: -0 21G<112 322 756 966> 1228 210<385.342 684.494>
VStem: 112 210<0 1171.99> 756 210<0 1160.69>
LayerCount: 2
Fore
SplineSet
112 1063 m 2
 112 1288 298 1438 529 1438 c 2
 547 1438 l 2
 762 1438 966 1282 966 1063 c 2
 966 -0 l 1
 756 0 l 1
 756 1063 l 2
 756 1162 646 1228 547 1228 c 2
 529 1228 l 2
 417 1228 322 1171 322 1063 c 2
 322 0 l 1
 112 -0 l 1
 112 1063 l 2
EndSplineSet
Validated: 3073
EndChar

